<?xml version="1.0" encoding="UTF-8"?>
<svg id="_레이어_1" data-name="레이어 1" xmlns="http://www.w3.org/2000/svg" viewBox="0 0 226.77 226.77">
  <defs>
    <style>
      .cls-1 {
        fill: #494949;
      }

      .cls-2 {
        opacity: .33;
      }

      .cls-2, .cls-3 {
        fill: #7dc6ab;
      }

      .cls-4 {
        opacity: .24;
      }

      .cls-4, .cls-5 {
        fill: #79cae1;
      }

      .cls-5 {
        opacity: .47;
      }

      .cls-3 {
        opacity: .38;
      }
    </style>
  </defs>
  <g>
    <path class="cls-1" d="m46,193.3v7.24h-7.17v-7.24h-9.91c-2.11,0-2.95-1.41-2.95-2.85s.81-2.88,2.95-2.88h26.99c2.14,0,2.95,1.48,2.95,2.88s-.84,2.85-2.95,2.85h-9.91Zm8.71-25.2c1.76,0,2.42,1.3,2.42,2.5s-.67,2.39-2.42,2.39h-19.08c-.63,0-.95.28-.95.84v.88h19.78c1.79,0,2.46,1.16,2.46,2.35s-.7,2.35-2.46,2.35h-19.78v.84c0,.63.32.84.95.84h19.61c1.79,0,2.46,1.23,2.46,2.42s-.7,2.39-2.46,2.39h-22.63c-3.69,0-5.06-1.48-5.06-4.92v-7.94c0-3.41,1.37-4.96,5.06-4.96h22.1Z"/>
    <path class="cls-1" d="m66.65,174.71h-4.5c-2.11,0-2.95-1.55-2.95-2.99s.81-3.02,2.95-3.02h15.88c2.14,0,2.88,1.62,2.88,3.02s-.77,2.99-2.88,2.99h-4.57v3.8c0,1.62-.11,3.13-.28,4.53,5.06,1.76,8.15,5.73,7.77,15.36h-6.57c.42-4.67-.53-7.56-2.64-9.1-1.65,4.43-4.43,7.52-8.05,9.03-1.51.63-3.65.14-4.36-1.23-.7-1.3-.35-2.95,1.05-3.83,4.39-2.74,6.26-7.13,6.26-14.93v-3.62Zm17.01-3.94c0-2.25,1.65-3.41,3.48-3.41s3.48,1.19,3.48,3.41v8.89h1.16c2.14,0,2.78,1.65,2.78,3.06s-.67,3.06-2.78,3.06h-1.16v14.58h-6.96v-29.59Z"/>
    <path class="cls-1" d="m106.18,181.53v-5.87c0-.49-.32-.88-.88-.88h-8.01c-2.11,0-2.95-1.62-2.95-3.06s.81-3.02,2.95-3.02h10.33c3.97,0,5.52,1.86,5.52,5.13v7.73c0,12.44-6.75,16.94-15.85,17.39-1.72.07-3.37-.95-3.37-3.02,0-1.48.84-2.6,2.6-2.81,5.52-.7,9.66-2.95,9.66-11.6Zm11.21-10.75c0-2.25,1.65-3.41,3.48-3.41s3.48,1.19,3.48,3.41v8.89h1.16c2.14,0,2.78,1.65,2.78,3.06s-.67,3.06-2.78,3.06h-1.16v14.58h-6.96v-29.59Z"/>
    <path class="cls-1" d="m142.06,199.03c-4.6,0-5.45-1.37-5.45-5.8v-18.91c0-4.43.84-5.8,5.45-5.8h8.22c4.6,0,5.45,1.37,5.45,5.8v6.08h4.81v-9.63c0-2.25,1.65-3.41,3.48-3.41s3.51,1.19,3.51,3.41v29.59h-6.99v-13.95h-4.81v12.62h-13.67Zm1.37-6.78c0,.77.25,1.2,1.16,1.2h4.32v-18.17c0-.7-.18-1.16-.95-1.16h-3.62c-.77,0-.91.46-.91,1.16v16.97Z"/>
    <path class="cls-1" d="m189.32,192.67c2.04,0,2.64,1.58,2.64,2.92s-.63,3.02-2.64,3.02h-13.49c-4.18,0-5.38-1.48-5.38-5.48v-20.94c0-2.35,1.69-3.41,3.58-3.41s3.48,1.09,3.48,3.41v19.5c0,.81.21.98,1.02.98h10.79Zm4.92,7.7v-29.52c0-2.28,1.65-3.48,3.51-3.48s3.51,1.19,3.51,3.48v29.52h-7.03Z"/>
  </g>
  <path class="cls-5" d="m50.4,152.46h0c-11.37-5.1-16.98-19.8-12.53-32.84l24.61-72.09c4.45-13.03,17.28-19.46,28.65-14.36h0c11.37,5.1,16.98,19.8,12.53,32.84l-24.61,72.09c-4.45,13.03-17.28,19.46-28.65,14.36Z"/>
  <path class="cls-2" d="m115.26,152.46h0c11.37-5.1,16.98-19.8,12.53-32.84l-24.61-72.09c-4.45-13.03-17.28-19.46-28.65-14.36h0c-11.37,5.1-16.98,19.8-12.53,32.84l24.61,72.09c4.45,13.03,17.28,19.46,28.65,14.36Z"/>
  <path class="cls-4" d="m111.01,152.46h0c-11.37-5.1-16.98-19.8-12.53-32.84l24.61-72.09c4.45-13.03,17.28-19.46,28.65-14.36h0c11.37,5.1,16.98,19.8,12.53,32.84l-24.61,72.09c-4.45,13.03-17.28,19.46-28.65,14.36Z"/>
  <path class="cls-3" d="m175.86,152.46h0c11.37-5.1,16.98-19.8,12.53-32.84l-24.61-72.09c-4.45-13.03-17.28-19.46-28.65-14.36h0c-11.37,5.1-16.98,19.8-12.53,32.84l24.61,72.09c4.45,13.03,17.28,19.46,28.65,14.36Z"/>
  <circle class="cls-2" cx="180.35" cy="24.9" r="12.16"/>
</svg>