<svg width="410" height="220" viewBox="0 0 410 220" fill="none" xmlns="http://www.w3.org/2000/svg">
<rect x="1" y="1" width="408" height="218" rx="19" fill="white" stroke="#85D6D1" stroke-width="2"/>
<path d="M50.6094 123C54.0967 134.038 64.1633 154.281 76.5306 146.956C91.9897 137.8 100.689 108.248 117.752 144.228C131.403 173.012 137.824 160.353 139.328 150.425C140.965 140.672 145.675 125.249 151.419 141.583C158.597 162.001 160.408 158.598 163.804 146.772C167.199 134.947 171.27 138.175 175.7 142.925C180.131 147.674 176.588 152.484 190.403 153.247C204.219 154.01 205.793 135.077 215.891 145.145C225.988 155.213 223.841 178.119 236.009 167.279C248.177 156.439 251.034 126.064 262.527 154.229C271.722 176.76 272.115 174.873 280.297 161.216C285.231 152.98 294.946 140.503 302.066 162.419C319.215 215.201 327.271 150.798 334.613 156.209C341.954 161.62 340.225 184.549 344.858 173.293C349.49 162.036 353.851 157.772 361.604 174.218" stroke="#1C77FF" stroke-width="3" stroke-linecap="round"/>
<path d="M320.489 99.1367C319.787 99.1367 319.159 99.0182 318.603 98.7812C318.051 98.5397 317.62 98.2093 317.311 97.79C317.005 97.3662 316.853 96.89 316.853 96.3613C316.853 95.9466 316.941 95.5592 317.119 95.1992C317.301 94.8392 317.55 94.543 317.864 94.3105C318.183 94.0736 318.534 93.9277 318.917 93.873V93.8115C318.589 93.734 318.297 93.5905 318.042 93.3809C317.787 93.1712 317.586 92.9115 317.44 92.6016C317.299 92.2917 317.229 91.959 317.229 91.6035C317.229 91.1022 317.37 90.651 317.652 90.25C317.939 89.8444 318.329 89.5299 318.821 89.3066C319.318 89.0788 319.874 88.9648 320.489 88.9648C321.104 88.9648 321.66 89.0788 322.157 89.3066C322.654 89.5299 323.044 89.8444 323.326 90.25C323.613 90.651 323.757 91.1022 323.757 91.6035C323.757 91.959 323.682 92.2917 323.531 92.6016C323.385 92.9115 323.185 93.1712 322.93 93.3809C322.679 93.5905 322.387 93.734 322.055 93.8115V93.873C322.442 93.9277 322.791 94.0736 323.101 94.3105C323.415 94.543 323.666 94.8392 323.853 95.1992C324.039 95.5592 324.133 95.9466 324.133 96.3613C324.133 96.89 323.976 97.3662 323.661 97.79C323.351 98.2093 322.921 98.5397 322.369 98.7812C321.818 99.0182 321.191 99.1367 320.489 99.1367ZM320.489 97.8926C320.913 97.8926 321.285 97.8242 321.604 97.6875C321.923 97.5508 322.169 97.3571 322.342 97.1064C322.515 96.8558 322.602 96.571 322.602 96.252C322.602 95.9102 322.51 95.6071 322.328 95.3428C322.146 95.0739 321.893 94.8643 321.569 94.7139C321.25 94.5589 320.89 94.4814 320.489 94.4814C320.088 94.4814 319.726 94.5589 319.402 94.7139C319.079 94.8643 318.826 95.0739 318.644 95.3428C318.466 95.6071 318.382 95.9102 318.391 96.252C318.382 96.571 318.464 96.8558 318.637 97.1064C318.81 97.3571 319.056 97.5508 319.375 97.6875C319.694 97.8242 320.065 97.8926 320.489 97.8926ZM320.489 93.3057C320.831 93.3057 321.139 93.2396 321.412 93.1074C321.69 92.9753 321.904 92.7907 322.055 92.5537C322.205 92.3122 322.28 92.041 322.28 91.7402C322.28 91.4349 322.205 91.166 322.055 90.9336C321.909 90.6966 321.699 90.5143 321.426 90.3867C321.152 90.2591 320.84 90.1953 320.489 90.1953C320.138 90.1953 319.824 90.2591 319.546 90.3867C319.272 90.5143 319.061 90.6966 318.91 90.9336C318.764 91.166 318.691 91.4349 318.691 91.7402C318.691 92.041 318.769 92.3122 318.924 92.5537C319.083 92.7907 319.298 92.9753 319.566 93.1074C319.835 93.2396 320.143 93.3057 320.489 93.3057ZM329.096 88.9648C329.766 88.9648 330.379 89.1152 330.935 89.416C331.495 89.7168 331.951 90.2204 332.302 90.9268C332.653 91.6286 332.828 92.5537 332.828 93.7021C332.828 94.8415 332.671 95.819 332.356 96.6348C332.047 97.446 331.6 98.0658 331.017 98.4941C330.438 98.9225 329.752 99.1367 328.959 99.1367C328.367 99.1367 327.833 99.0205 327.359 98.7881C326.885 98.5511 326.498 98.2275 326.197 97.8174C325.896 97.4072 325.707 96.9355 325.63 96.4023H327.12C327.188 96.6849 327.305 96.9333 327.469 97.1475C327.633 97.3571 327.84 97.5212 328.091 97.6396C328.346 97.7581 328.635 97.8174 328.959 97.8174C329.465 97.8174 329.9 97.6761 330.265 97.3936C330.629 97.1064 330.907 96.694 331.099 96.1562C331.295 95.6185 331.393 94.9736 331.393 94.2217H331.27C331.092 94.4997 330.873 94.7389 330.613 94.9395C330.354 95.14 330.064 95.2949 329.745 95.4043C329.426 95.5091 329.091 95.5615 328.74 95.5615C328.157 95.5615 327.619 95.4225 327.127 95.1445C326.639 94.862 326.254 94.4746 325.972 93.9824C325.689 93.4902 325.546 92.9365 325.541 92.3213C325.541 91.6878 325.689 91.1159 325.985 90.6055C326.282 90.0951 326.699 89.6917 327.236 89.3955C327.779 89.0993 328.398 88.9557 329.096 88.9648ZM329.103 90.2227C328.711 90.2227 328.355 90.3161 328.036 90.5029C327.717 90.6898 327.466 90.9427 327.284 91.2617C327.102 91.5762 327.011 91.9202 327.011 92.2939C327.015 92.6676 327.106 93.0117 327.284 93.3262C327.462 93.6406 327.706 93.889 328.016 94.0713C328.33 94.2536 328.681 94.3447 329.068 94.3447C329.456 94.3447 329.811 94.249 330.135 94.0576C330.463 93.8617 330.72 93.6042 330.907 93.2852C331.099 92.9661 331.194 92.6289 331.194 92.2734C331.194 91.9134 331.103 91.5762 330.921 91.2617C330.739 90.9473 330.488 90.6966 330.169 90.5098C329.854 90.3184 329.499 90.2227 329.103 90.2227ZM334.407 97.9062L337.846 94.4404C338.26 94.012 338.579 93.6657 338.803 93.4014C339.026 93.137 339.192 92.8773 339.302 92.6221C339.416 92.3623 339.473 92.0934 339.473 91.8154C339.473 91.501 339.393 91.223 339.233 90.9814C339.074 90.7399 338.855 90.5531 338.577 90.4209C338.299 90.2887 337.987 90.2227 337.641 90.2227C337.281 90.2227 336.964 90.2956 336.69 90.4414C336.422 90.5827 336.212 90.7878 336.062 91.0566C335.916 91.321 335.843 91.6263 335.843 91.9727H334.414C334.414 91.3802 334.553 90.8561 334.831 90.4004C335.109 89.9447 335.494 89.5915 335.986 89.3408C336.483 89.0902 337.046 88.9648 337.675 88.9648C338.299 88.9648 338.855 89.0879 339.343 89.334C339.83 89.5755 340.211 89.9105 340.484 90.3389C340.762 90.7627 340.901 91.2389 340.901 91.7676C340.901 92.1458 340.831 92.5104 340.689 92.8613C340.548 93.2122 340.309 93.5996 339.972 94.0234C339.634 94.4473 339.151 94.9691 338.522 95.5889L336.506 97.6328V97.708H341.065V99H334.414L334.407 97.9062ZM343.711 99.0957C343.538 99.0957 343.376 99.0501 343.226 98.959C343.075 98.8678 342.957 98.7493 342.87 98.6035C342.788 98.4531 342.747 98.2913 342.747 98.1182C342.747 97.9495 342.788 97.79 342.87 97.6396C342.957 97.4893 343.075 97.373 343.226 97.291C343.376 97.2044 343.538 97.1611 343.711 97.1611C343.88 97.1611 344.039 97.2044 344.189 97.291C344.34 97.373 344.458 97.4893 344.545 97.6396C344.632 97.79 344.675 97.9495 344.675 98.1182C344.675 98.2913 344.632 98.4531 344.545 98.6035C344.458 98.7493 344.34 98.8678 344.189 98.959C344.039 99.0501 343.88 99.0957 343.711 99.0957ZM349.583 99.1367C348.913 99.1367 348.312 99.0228 347.778 98.7949C347.245 98.5671 346.826 98.248 346.521 97.8379C346.215 97.4232 346.051 96.9469 346.028 96.4092H347.546C347.569 96.6872 347.671 96.9355 347.854 97.1543C348.036 97.373 348.277 97.5417 348.578 97.6602C348.879 97.7786 349.212 97.8379 349.576 97.8379C349.968 97.8379 350.324 97.7695 350.643 97.6328C350.962 97.4915 351.208 97.3024 351.381 97.0654C351.554 96.8239 351.641 96.5459 351.641 96.2314C351.641 95.8988 351.554 95.6048 351.381 95.3496C351.208 95.0944 350.952 94.8962 350.615 94.7549C350.283 94.6136 349.882 94.543 349.412 94.543H348.564V93.3193H349.412C349.786 93.3193 350.118 93.2533 350.41 93.1211C350.702 92.9889 350.927 92.8044 351.087 92.5674C351.246 92.3304 351.324 92.057 351.319 91.7471C351.324 91.4463 351.256 91.1797 351.114 90.9473C350.973 90.7148 350.772 90.5371 350.513 90.4141C350.253 90.2865 349.952 90.2227 349.61 90.2227C349.273 90.2227 348.961 90.2819 348.674 90.4004C348.387 90.5189 348.152 90.6875 347.97 90.9062C347.792 91.125 347.696 91.3825 347.683 91.6787H346.233C346.256 91.1501 346.418 90.6807 346.719 90.2705C347.024 89.8558 347.43 89.5345 347.936 89.3066C348.446 89.0788 349.007 88.9648 349.617 88.9648C350.251 88.9648 350.807 89.0856 351.285 89.3271C351.768 89.5641 352.14 89.8877 352.399 90.2979C352.659 90.708 352.785 91.1615 352.775 91.6582C352.785 92.0228 352.716 92.3577 352.57 92.6631C352.429 92.9639 352.224 93.2168 351.955 93.4219C351.691 93.6224 351.381 93.766 351.025 93.8525V93.9277C351.472 93.987 351.855 94.126 352.174 94.3447C352.497 94.5589 352.743 94.8301 352.912 95.1582C353.081 95.4863 353.16 95.86 353.151 96.2793C353.16 96.8171 353.01 97.3047 352.7 97.7422C352.39 98.1751 351.962 98.5169 351.415 98.7676C350.868 99.0137 350.257 99.1367 349.583 99.1367ZM354.614 95.8486L358.976 89.1016H359.933V90.8926H359.311L356.187 95.7119V95.7939H362.188V97.0654H354.614V95.8486ZM359.413 96.7031L359.42 96.1426V89.1016H360.849V99H359.413V96.7031Z" fill="#797979"/>
<path d="M54.4326 86.9922C54.4326 87.6986 54.2139 88.348 53.7764 88.9404C53.3389 89.5329 52.7533 90.0273 52.0195 90.4238C51.2858 90.8203 50.4701 91.0892 49.5723 91.2305L49.0732 90.2119C49.8389 90.1025 50.5452 89.8883 51.1924 89.5693C51.8395 89.2503 52.3522 88.8652 52.7305 88.4141C53.1087 87.9629 53.2979 87.4889 53.2979 86.9922V86.5205H54.4326V86.9922ZM54.7744 86.9922C54.7744 87.4889 54.9613 87.9629 55.335 88.4141C55.7132 88.8652 56.2259 89.2503 56.873 89.5693C57.5247 89.8883 58.2334 90.1025 58.999 90.2119L58.5273 91.2305C57.625 91.0892 56.8024 90.8226 56.0596 90.4307C55.3213 90.0387 54.7334 89.5443 54.2959 88.9473C53.863 88.3503 53.6465 87.6986 53.6465 86.9922V86.5205H54.7744V86.9922ZM54.6514 97.5127H53.373V92.8848H54.6514V97.5127ZM59.6211 93.2266H48.4512V92.167H59.6211V93.2266ZM58.5752 87.0264H49.4834V85.9873H58.5752V87.0264ZM70.0938 97.499H68.8018V85.2559H70.0938V97.499ZM71.9941 91.2305H69.7588V90.1504H71.9941V91.2305ZM66.8877 86.5547C66.8877 87.7806 66.6963 88.9268 66.3135 89.9932C65.9352 91.055 65.3291 92.0348 64.4951 92.9326C63.6657 93.8258 62.597 94.596 61.2891 95.2432L60.5645 94.2314C61.6901 93.6663 62.6266 93.0146 63.374 92.2764C64.1214 91.5335 64.682 90.7064 65.0557 89.7949C65.4294 88.8789 65.6162 87.874 65.6162 86.7803V86.5547H66.8877ZM66.2725 87.6348H61.166V86.5547H66.2725V87.6348Z" fill="#3EB7AF"/>
<path d="M52.71 60.5215C52.71 61.401 52.5573 62.2624 52.252 63.1055C51.9466 63.944 51.5273 64.6914 50.9941 65.3477C50.4609 65.9993 49.8571 66.4893 49.1826 66.8174L48.417 65.7988C49.0231 65.5072 49.5723 65.0811 50.0645 64.5205C50.5566 63.9554 50.9417 63.3242 51.2197 62.627C51.5023 61.9251 51.6436 61.2233 51.6436 60.5215V58.7031H52.71V60.5215ZM52.9561 60.5215C52.9561 61.196 53.0928 61.8659 53.3662 62.5312C53.6442 63.1966 54.0293 63.7891 54.5215 64.3086C55.0182 64.8281 55.5765 65.2223 56.1963 65.4912L55.4785 66.5098C54.7858 66.1999 54.1683 65.7396 53.626 65.1289C53.0882 64.5182 52.6689 63.8141 52.3682 63.0166C52.0719 62.2191 51.9238 61.3874 51.9238 60.5215V58.7031H52.9561V60.5215ZM55.7588 59.2158H48.8477V58.1494H55.7588V59.2158ZM58.6025 69.1553H57.2969V56.9053H58.6025V69.1553ZM66.6074 57.9854C66.6074 58.7419 66.3841 59.4391 65.9375 60.0771C65.4909 60.7152 64.8848 61.2461 64.1191 61.6699C63.3581 62.0892 62.5195 62.3717 61.6035 62.5176L61.084 61.4717C61.877 61.3669 62.6084 61.1413 63.2783 60.7949C63.9482 60.4486 64.4792 60.0293 64.8711 59.5371C65.2676 59.0449 65.4658 58.5277 65.4658 57.9854V57.3223H66.6074V57.9854ZM66.8125 57.9854C66.8125 58.5231 67.0107 59.0404 67.4072 59.5371C67.8083 60.0293 68.346 60.4486 69.0205 60.7949C69.6995 61.1413 70.431 61.3669 71.2148 61.4717L70.7021 62.5176C69.7816 62.3717 68.9408 62.0869 68.1797 61.6631C67.4186 61.2393 66.8125 60.7083 66.3613 60.0703C65.9102 59.4323 65.6846 58.7373 65.6846 57.9854V57.3223H66.8125V57.9854ZM66.751 69.1553H65.4727V64.541H66.751V69.1553ZM71.7207 64.8076H60.5508V63.7275H71.7207V64.8076Z" fill="#3EB7AF"/>
<path d="M294.257 64.9316H289.861V63.6738H294.257V64.9316ZM299.589 69.3818C298.919 69.3727 298.304 69.2178 297.743 68.917C297.187 68.6162 296.731 68.1126 296.376 67.4062C296.025 66.6999 295.85 65.7725 295.85 64.624C295.85 63.4893 296.007 62.5163 296.321 61.7051C296.636 60.8893 297.082 60.2695 297.661 59.8457C298.24 59.4219 298.924 59.21 299.712 59.21C300.313 59.21 300.849 59.3262 301.318 59.5586C301.792 59.7865 302.177 60.1055 302.474 60.5156C302.774 60.9258 302.964 61.3952 303.041 61.9238H301.551C301.478 61.6458 301.359 61.402 301.195 61.1924C301.036 60.9782 300.831 60.8141 300.58 60.7002C300.329 60.5863 300.04 60.5293 299.712 60.5293C299.206 60.5293 298.773 60.6706 298.413 60.9531C298.053 61.2311 297.777 61.6367 297.586 62.1699C297.395 62.7031 297.297 63.3434 297.292 64.0908H297.401C297.584 63.8128 297.802 63.5736 298.058 63.373C298.317 63.1725 298.609 63.0199 298.933 62.915C299.256 62.8057 299.593 62.751 299.944 62.751C300.528 62.751 301.063 62.8923 301.551 63.1748C302.043 63.4528 302.428 63.8379 302.706 64.3301C302.989 64.8223 303.13 65.3805 303.13 66.0049C303.13 66.6429 302.982 67.2194 302.686 67.7344C302.389 68.2493 301.972 68.6527 301.435 68.9443C300.897 69.236 300.282 69.3818 299.589 69.3818ZM299.582 68.124C299.974 68.124 300.327 68.0306 300.642 67.8438C300.961 67.6569 301.211 67.404 301.394 67.085C301.58 66.7614 301.674 66.4128 301.674 66.0391C301.674 65.6517 301.585 65.3008 301.407 64.9863C301.229 64.6719 300.983 64.4258 300.669 64.248C300.354 64.0658 299.999 63.9746 299.603 63.9746C299.215 63.9746 298.86 64.0703 298.536 64.2617C298.213 64.4486 297.955 64.7015 297.764 65.0205C297.577 65.335 297.479 65.6768 297.47 66.0459C297.474 66.4059 297.568 66.7454 297.75 67.0645C297.937 67.3835 298.19 67.641 298.509 67.8369C298.828 68.0283 299.186 68.124 299.582 68.124ZM305.249 69.3408C305.076 69.3408 304.914 69.2952 304.764 69.2041C304.613 69.113 304.495 68.9945 304.408 68.8486C304.326 68.6982 304.285 68.5365 304.285 68.3633C304.285 68.1947 304.326 68.0352 304.408 67.8848C304.495 67.7344 304.613 67.6182 304.764 67.5361C304.914 67.4495 305.076 67.4062 305.249 67.4062C305.418 67.4062 305.577 67.4495 305.728 67.5361C305.878 67.6182 305.996 67.7344 306.083 67.8848C306.17 68.0352 306.213 68.1947 306.213 68.3633C306.213 68.5365 306.17 68.6982 306.083 68.8486C305.996 68.9945 305.878 69.113 305.728 69.2041C305.577 69.2952 305.418 69.3408 305.249 69.3408ZM312.468 60.707V60.6387H307.361V59.3467H314.026V60.6865L309.617 69.2451H308.052L312.468 60.707ZM318.818 69.3818C318.148 69.3818 317.547 69.2679 317.014 69.04C316.48 68.8122 316.061 68.4932 315.756 68.083C315.451 67.6683 315.286 67.1921 315.264 66.6543H316.781C316.804 66.9323 316.907 67.1807 317.089 67.3994C317.271 67.6182 317.513 67.7868 317.813 67.9053C318.114 68.0238 318.447 68.083 318.812 68.083C319.203 68.083 319.559 68.0146 319.878 67.8779C320.197 67.7367 320.443 67.5475 320.616 67.3105C320.789 67.069 320.876 66.791 320.876 66.4766C320.876 66.1439 320.789 65.8499 320.616 65.5947C320.443 65.3395 320.188 65.1413 319.851 65C319.518 64.8587 319.117 64.7881 318.647 64.7881H317.8V63.5645H318.647C319.021 63.5645 319.354 63.4984 319.646 63.3662C319.937 63.234 320.163 63.0495 320.322 62.8125C320.482 62.5755 320.559 62.3021 320.555 61.9922C320.559 61.6914 320.491 61.4248 320.35 61.1924C320.208 60.96 320.008 60.7822 319.748 60.6592C319.488 60.5316 319.188 60.4678 318.846 60.4678C318.508 60.4678 318.196 60.527 317.909 60.6455C317.622 60.764 317.387 60.9326 317.205 61.1514C317.027 61.3701 316.932 61.6276 316.918 61.9238H315.469C315.492 61.3952 315.653 60.9258 315.954 60.5156C316.259 60.1009 316.665 59.7796 317.171 59.5518C317.681 59.3239 318.242 59.21 318.853 59.21C319.486 59.21 320.042 59.3307 320.521 59.5723C321.004 59.8092 321.375 60.1328 321.635 60.543C321.895 60.9531 322.02 61.4066 322.011 61.9033C322.02 62.2679 321.951 62.6029 321.806 62.9082C321.664 63.209 321.459 63.4619 321.19 63.667C320.926 63.8675 320.616 64.0111 320.261 64.0977V64.1729C320.707 64.2321 321.09 64.3711 321.409 64.5898C321.733 64.804 321.979 65.0752 322.147 65.4033C322.316 65.7314 322.396 66.1051 322.387 66.5244C322.396 67.0622 322.245 67.5498 321.936 67.9873C321.626 68.4202 321.197 68.762 320.65 69.0127C320.104 69.2588 319.493 69.3818 318.818 69.3818ZM324.376 65.4717C324.385 64.2048 324.561 63.0312 324.902 61.9512C325.244 60.8665 325.741 59.8571 326.393 58.9229H327.732C327.418 59.3831 327.119 59.9756 326.837 60.7002C326.554 61.4248 326.326 62.2064 326.153 63.0449C325.98 63.8789 325.894 64.6878 325.894 65.4717C325.894 66.2555 325.98 67.069 326.153 67.9121C326.326 68.7507 326.554 69.5299 326.837 70.25C327.119 70.9746 327.418 71.5693 327.732 72.0342H326.393C325.745 71.0863 325.249 70.07 324.902 68.9854C324.561 67.9007 324.385 66.7295 324.376 65.4717ZM332.511 69.3818C331.75 69.3818 331.098 69.1836 330.556 68.7871C330.013 68.3906 329.599 67.8118 329.312 67.0508C329.024 66.2897 328.881 65.3714 328.881 64.2959C328.881 63.2295 329.024 62.3158 329.312 61.5547C329.599 60.7936 330.016 60.2126 330.562 59.8115C331.109 59.4105 331.759 59.21 332.511 59.21C333.263 59.21 333.912 59.4105 334.459 59.8115C335.006 60.2126 335.423 60.7936 335.71 61.5547C335.997 62.3158 336.141 63.2295 336.141 64.2959C336.141 65.3714 335.997 66.2897 335.71 67.0508C335.427 67.8118 335.013 68.3906 334.466 68.7871C333.924 69.1836 333.272 69.3818 332.511 69.3818ZM332.511 68.0898C332.953 68.0898 333.333 67.944 333.652 67.6523C333.976 67.3607 334.222 66.9323 334.391 66.3672C334.559 65.7975 334.641 65.1071 334.637 64.2959C334.637 63.4847 334.552 62.7943 334.384 62.2246C334.215 61.6549 333.971 61.222 333.652 60.9258C333.333 60.6296 332.953 60.4814 332.511 60.4814C332.069 60.4814 331.688 60.6296 331.369 60.9258C331.05 61.222 330.804 61.6549 330.631 62.2246C330.458 62.7943 330.371 63.4847 330.371 64.2959C330.371 65.1071 330.455 65.7975 330.624 66.3672C330.793 66.9323 331.039 67.3607 331.362 67.6523C331.686 67.944 332.069 68.0898 332.511 68.0898ZM338.308 69.3408C338.134 69.3408 337.973 69.2952 337.822 69.2041C337.672 69.113 337.553 68.9945 337.467 68.8486C337.385 68.6982 337.344 68.5365 337.344 68.3633C337.344 68.1947 337.385 68.0352 337.467 67.8848C337.553 67.7344 337.672 67.6182 337.822 67.5361C337.973 67.4495 338.134 67.4062 338.308 67.4062C338.476 67.4062 338.636 67.4495 338.786 67.5361C338.937 67.6182 339.055 67.7344 339.142 67.8848C339.228 68.0352 339.271 68.1947 339.271 68.3633C339.271 68.5365 339.228 68.6982 339.142 68.8486C339.055 68.9945 338.937 69.113 338.786 69.2041C338.636 69.2952 338.476 69.3408 338.308 69.3408ZM341.021 68.1514L344.46 64.6855C344.875 64.2572 345.194 63.9108 345.417 63.6465C345.64 63.3822 345.807 63.1224 345.916 62.8672C346.03 62.6074 346.087 62.3385 346.087 62.0605C346.087 61.7461 346.007 61.4681 345.848 61.2266C345.688 60.985 345.469 60.7982 345.191 60.666C344.913 60.5339 344.601 60.4678 344.255 60.4678C343.895 60.4678 343.578 60.5407 343.305 60.6865C343.036 60.8278 342.826 61.0329 342.676 61.3018C342.53 61.5661 342.457 61.8714 342.457 62.2178H341.028C341.028 61.6253 341.167 61.1012 341.445 60.6455C341.723 60.1898 342.108 59.8366 342.601 59.5859C343.097 59.3353 343.66 59.21 344.289 59.21C344.913 59.21 345.469 59.333 345.957 59.5791C346.445 59.8206 346.825 60.1556 347.099 60.584C347.377 61.0078 347.516 61.484 347.516 62.0127C347.516 62.391 347.445 62.7555 347.304 63.1064C347.162 63.4574 346.923 63.8447 346.586 64.2686C346.249 64.6924 345.766 65.2142 345.137 65.834L343.12 67.8779V67.9531H347.68V69.2451H341.028L341.021 68.1514ZM351.617 64.0566C351.175 64.0566 350.799 63.9564 350.489 63.7559C350.179 63.5508 349.942 63.2614 349.778 62.8877C349.619 62.514 349.539 62.0833 349.539 61.5957C349.539 61.1081 349.621 60.6774 349.785 60.3037C349.954 59.93 350.193 59.6429 350.503 59.4424C350.817 59.2373 351.189 59.1348 351.617 59.1348C352.068 59.1348 352.449 59.2373 352.759 59.4424C353.069 59.6429 353.303 59.9277 353.463 60.2969C353.622 60.666 353.702 61.099 353.702 61.5957C353.702 62.0833 353.62 62.5117 353.456 62.8809C353.297 63.25 353.06 63.5394 352.745 63.749C352.435 63.9541 352.059 64.0566 351.617 64.0566ZM351.617 63.0859C351.827 63.0859 352.002 63.0244 352.144 62.9014C352.289 62.7738 352.396 62.6006 352.465 62.3818C352.533 62.1585 352.567 61.8965 352.567 61.5957C352.567 61.2812 352.533 61.0124 352.465 60.7891C352.401 60.5658 352.299 60.3949 352.157 60.2764C352.016 60.1533 351.836 60.0964 351.617 60.1055C351.417 60.1055 351.243 60.167 351.098 60.29C350.956 60.4085 350.849 60.5794 350.776 60.8027C350.703 61.026 350.667 61.2904 350.667 61.5957C350.667 61.8965 350.703 62.1585 350.776 62.3818C350.849 62.6006 350.956 62.7738 351.098 62.9014C351.243 63.0244 351.417 63.0859 351.617 63.0859ZM357.872 69.4434C357.435 69.4434 357.059 69.3431 356.744 69.1426C356.43 68.9375 356.193 68.6504 356.033 68.2812C355.874 67.9121 355.794 67.4814 355.794 66.9893C355.794 66.4971 355.876 66.0641 356.04 65.6904C356.204 65.3167 356.443 65.0296 356.758 64.8291C357.072 64.624 357.444 64.5215 357.872 64.5215C358.314 64.5215 358.69 64.624 359 64.8291C359.314 65.0296 359.551 65.3167 359.711 65.6904C359.87 66.0641 359.95 66.4971 359.95 66.9893C359.95 67.4723 359.868 67.9007 359.704 68.2744C359.54 68.6481 359.303 68.9375 358.993 69.1426C358.683 69.3431 358.31 69.4434 357.872 69.4434ZM357.872 68.4727C358.086 68.4727 358.264 68.4134 358.405 68.2949C358.547 68.1719 358.649 68.001 358.713 67.7822C358.781 67.5589 358.815 67.2946 358.815 66.9893C358.815 66.6794 358.781 66.4105 358.713 66.1826C358.649 65.9548 358.549 65.7816 358.412 65.6631C358.275 65.54 358.095 65.4831 357.872 65.4922C357.672 65.4922 357.498 65.556 357.353 65.6836C357.211 65.8066 357.102 65.9798 357.024 66.2031C356.951 66.4264 356.915 66.6885 356.915 66.9893C356.915 67.29 356.951 67.5521 357.024 67.7754C357.102 67.9987 357.211 68.1719 357.353 68.2949C357.494 68.4134 357.667 68.4727 357.872 68.4727ZM357.462 59.3467H358.713L351.904 69.2451H350.653L357.462 59.3467ZM364.291 61.9512C364.633 63.0312 364.808 64.2048 364.817 65.4717C364.808 66.7295 364.631 67.9007 364.284 68.9854C363.942 70.07 363.448 71.0863 362.801 72.0342H361.461C361.775 71.5693 362.074 70.9746 362.356 70.25C362.639 69.5299 362.867 68.7507 363.04 67.9121C363.213 67.069 363.3 66.2555 363.3 65.4717C363.3 64.6878 363.213 63.8789 363.04 63.0449C362.867 62.2064 362.639 61.4248 362.356 60.7002C362.074 59.9756 361.775 59.3831 361.461 58.9229H362.801C363.452 59.8571 363.949 60.8665 364.291 61.9512Z" fill="#1C77FF"/>
<path d="M56.6953 30.9219H47.7266V29.5156H56.6953V30.9219ZM59.0938 40.6562H46.2344V39.2188H59.0938V40.6562ZM57.7188 31.0938C57.7188 31.849 57.7031 32.5104 57.6719 33.0781C57.6458 33.6458 57.5885 34.3021 57.5 35.0469C57.4115 35.7917 57.2734 36.6016 57.0859 37.4766L55.3906 37.2969C55.5781 36.4531 55.7161 35.6589 55.8047 34.9141C55.8932 34.1641 55.9479 33.4974 55.9688 32.9141C55.9896 32.3255 56 31.6745 56 30.9609V30.8047V29.5156H57.7188V30.8047V31.0938ZM47.5391 34.7344L47.2812 33.2344L56.3594 32.9062V34.2188L47.5391 34.7344ZM52.6953 39.7422H50.9844V35.7422H52.6953V39.7422ZM67.0312 30.1953C67.0312 31.2005 66.7786 32.1432 66.2734 33.0234C65.7734 33.9036 65.0807 34.651 64.1953 35.2656C63.3151 35.8802 62.3177 36.3047 61.2031 36.5391L60.4531 35.0938C61.4062 34.9115 62.2682 34.5729 63.0391 34.0781C63.8151 33.5833 64.4193 32.9948 64.8516 32.3125C65.2891 31.6302 65.5078 30.9245 65.5078 30.1953V29.1641H67.0312V30.1953ZM67.3438 30.1953C67.3438 30.9245 67.5625 31.6328 68 32.3203C68.4427 33.0026 69.0521 33.5938 69.8281 34.0938C70.6094 34.5885 71.4792 34.9219 72.4375 35.0938L71.6641 36.5391C70.5599 36.3047 69.5677 35.8828 68.6875 35.2734C67.8073 34.6641 67.1146 33.9219 66.6094 33.0469C66.1094 32.1667 65.8594 31.2161 65.8594 30.1953V29.1641H67.3438V30.1953ZM72.9688 40.5859H60.0625V39.1562H72.9688V40.5859ZM85.0234 36.5469H83.2891V28.2656H85.0234V36.5469ZM87 33.1094H84.5312V31.6641H87V33.1094ZM85.0234 42.4062H83.2891V38.6484H75.6094V37.2734H85.0234V42.4062ZM75.625 34.2734C77.2552 34.2682 78.513 34.237 79.3984 34.1797C80.2891 34.1172 81.1562 34.0026 82 33.8359L82.1953 35.2109C81.3099 35.3984 80.3984 35.5234 79.4609 35.5859C78.5286 35.6432 77.25 35.6693 75.625 35.6641H74.4688V34.2734H75.625ZM80.8047 30.6562H76.2031V35.0938H74.4688V29.25H80.8047V30.6562Z" fill="black"/>
</svg>
