<svg width="21" height="21" viewBox="0 0 21 21" fill="none" xmlns="http://www.w3.org/2000/svg">
<path id="Vector" d="M9.86957 18.0179L9.86818 18.0166C7.27492 15.4536 5.19859 13.3962 3.75901 11.4766C2.33234 9.57424 1.61523 7.9139 1.61523 6.16105C1.61523 3.26393 3.66569 1.1665 6.11523 1.1665C7.51951 1.1665 8.91034 1.88485 9.82958 3.0522L10.6152 4.04991L11.4009 3.0522C12.3201 1.88485 13.711 1.1665 15.1152 1.1665C17.5648 1.1665 19.6152 3.26393 19.6152 6.16105C19.6152 7.9139 18.8981 9.57424 17.4715 11.4766C16.0319 13.3962 13.9556 15.4536 11.3623 18.0166L11.3609 18.0179L10.6152 18.7578L9.86957 18.0179Z" stroke="#B0B0B0" stroke-width="2"/>
</svg>
