<svg width="28" height="28" viewBox="0 0 28 28" fill="none" xmlns="http://www.w3.org/2000/svg">
<path d="M12.6743 25.276L12.6729 25.2746C9.04968 21.6936 6.11836 18.7905 4.08127 16.0741C2.05711 13.375 1 10.967 1 8.39237C1 4.14811 4.01846 1 7.7 1C9.80028 1 11.8591 2.07148 13.2143 3.79251L14 4.79021L14.7857 3.79251C16.1409 2.07148 18.1997 1 20.3 1C23.9815 1 27 4.14811 27 8.39237C27 10.967 25.9429 13.375 23.9187 16.0741C21.8816 18.7905 18.9503 21.6936 15.3271 25.2746L15.3257 25.276L14 26.5913L12.6743 25.276Z" fill="#85D6D1" stroke="#85D6D1" stroke-width="2"/>
</svg>
