<svg width="410" height="220" viewBox="0 0 410 220" fill="none" xmlns="http://www.w3.org/2000/svg">
<rect x="1" y="1" width="408" height="218" rx="19" fill="white" stroke="#85D6D1" stroke-width="2"/>
<rect x="48" y="108" width="316" height="87" fill="white"/>
<path d="M50.6094 123C54.0967 134.038 64.1633 154.281 76.5306 146.956C91.9897 137.8 100.689 108.248 117.752 144.228C131.403 173.012 137.824 160.353 139.328 150.425C140.965 140.672 145.675 125.249 151.419 141.583C158.597 162.001 160.408 158.598 163.804 146.772C167.199 134.947 171.27 138.175 175.7 142.925C180.131 147.674 182.185 155.446 196 156.209C209.815 156.972 205.793 135.077 215.891 145.145C225.988 155.213 223.841 178.119 236.009 167.279C248.177 156.439 251.034 126.064 262.527 154.229C271.722 176.76 272.115 174.873 280.297 161.216C285.231 152.98 294.946 140.503 302.066 162.419C319.215 215.201 327.271 150.798 334.613 156.209C341.954 161.62 340.225 184.549 344.858 173.293C349.49 162.036 353.851 157.772 361.604 174.218" stroke="#1C77FF" stroke-width="3" stroke-linecap="round"/>
<path d="M307.678 97.9062L311.116 94.4404C311.531 94.012 311.85 93.6657 312.073 93.4014C312.297 93.137 312.463 92.8773 312.572 92.6221C312.686 92.3623 312.743 92.0934 312.743 91.8154C312.743 91.501 312.663 91.223 312.504 90.9814C312.344 90.7399 312.126 90.5531 311.848 90.4209C311.57 90.2887 311.257 90.2227 310.911 90.2227C310.551 90.2227 310.234 90.2956 309.961 90.4414C309.692 90.5827 309.482 90.7878 309.332 91.0566C309.186 91.321 309.113 91.6263 309.113 91.9727H307.685C307.685 91.3802 307.824 90.8561 308.102 90.4004C308.38 89.9447 308.765 89.5915 309.257 89.3408C309.754 89.0902 310.316 88.9648 310.945 88.9648C311.57 88.9648 312.126 89.0879 312.613 89.334C313.101 89.5755 313.481 89.9105 313.755 90.3389C314.033 90.7627 314.172 91.2389 314.172 91.7676C314.172 92.1458 314.101 92.5104 313.96 92.8613C313.819 93.2122 313.579 93.5996 313.242 94.0234C312.905 94.4473 312.422 94.9691 311.793 95.5889L309.776 97.6328V97.708H314.336V99H307.685L307.678 97.9062ZM316.688 101.83H315.532L316.257 98.0566H317.795L316.688 101.83ZM322.977 99.1367C322.361 99.1367 321.801 99.0205 321.295 98.7881C320.794 98.5511 320.395 98.2253 320.099 97.8105C319.807 97.3958 319.65 96.9287 319.627 96.4092H321.083C321.115 96.6917 321.217 96.9424 321.391 97.1611C321.568 97.3799 321.794 97.5553 322.067 97.6875C322.345 97.8151 322.648 97.8789 322.977 97.8789C323.368 97.8789 323.719 97.79 324.029 97.6123C324.344 97.4346 324.59 97.1908 324.768 96.8809C324.945 96.5664 325.034 96.2178 325.034 95.835C325.034 95.4294 324.943 95.0716 324.761 94.7617C324.583 94.4473 324.33 94.1989 324.002 94.0166C323.678 93.8343 323.314 93.7432 322.908 93.7432C322.498 93.734 322.147 93.8001 321.855 93.9414C321.564 94.0827 321.334 94.306 321.165 94.6113H319.75L320.393 89.1016H325.998V90.3936H321.644L321.302 93.1553H321.391C321.609 92.9593 321.883 92.7998 322.211 92.6768C322.544 92.5537 322.892 92.4922 323.257 92.4922C323.872 92.4922 324.426 92.6335 324.918 92.916C325.415 93.194 325.802 93.5859 326.08 94.0918C326.363 94.5931 326.502 95.1605 326.497 95.7939C326.502 96.432 326.351 97.0062 326.046 97.5166C325.745 98.0225 325.326 98.4189 324.788 98.7061C324.255 98.9932 323.651 99.1367 322.977 99.1367ZM332.854 90.4619V90.3936H327.748V89.1016H334.413V90.4414L330.004 99H328.438L332.854 90.4619ZM339.205 99.1367C338.535 99.1367 337.934 99.0228 337.4 98.7949C336.867 98.5671 336.448 98.248 336.143 97.8379C335.837 97.4232 335.673 96.9469 335.65 96.4092H337.168C337.191 96.6872 337.293 96.9355 337.476 97.1543C337.658 97.373 337.899 97.5417 338.2 97.6602C338.501 97.7786 338.834 97.8379 339.198 97.8379C339.59 97.8379 339.946 97.7695 340.265 97.6328C340.584 97.4915 340.83 97.3024 341.003 97.0654C341.176 96.8239 341.263 96.5459 341.263 96.2314C341.263 95.8988 341.176 95.6048 341.003 95.3496C340.83 95.0944 340.575 94.8962 340.237 94.7549C339.905 94.6136 339.504 94.543 339.034 94.543H338.187V93.3193H339.034C339.408 93.3193 339.741 93.2533 340.032 93.1211C340.324 92.9889 340.549 92.8044 340.709 92.5674C340.868 92.3304 340.946 92.057 340.941 91.7471C340.946 91.4463 340.878 91.1797 340.736 90.9473C340.595 90.7148 340.395 90.5371 340.135 90.4141C339.875 90.2865 339.574 90.2227 339.232 90.2227C338.895 90.2227 338.583 90.2819 338.296 90.4004C338.009 90.5189 337.774 90.6875 337.592 90.9062C337.414 91.125 337.318 91.3825 337.305 91.6787H335.855C335.878 91.1501 336.04 90.6807 336.341 90.2705C336.646 89.8558 337.052 89.5345 337.558 89.3066C338.068 89.0788 338.629 88.9648 339.239 88.9648C339.873 88.9648 340.429 89.0856 340.907 89.3271C341.39 89.5641 341.762 89.8877 342.021 90.2979C342.281 90.708 342.407 91.1615 342.397 91.6582C342.407 92.0228 342.338 92.3577 342.192 92.6631C342.051 92.9639 341.846 93.2168 341.577 93.4219C341.313 93.6224 341.003 93.766 340.647 93.8525V93.9277C341.094 93.987 341.477 94.126 341.796 94.3447C342.119 94.5589 342.366 94.8301 342.534 95.1582C342.703 95.4863 342.783 95.86 342.773 96.2793C342.783 96.8171 342.632 97.3047 342.322 97.7422C342.012 98.1751 341.584 98.5169 341.037 98.7676C340.49 99.0137 339.88 99.1367 339.205 99.1367ZM345.104 99.0957C344.931 99.0957 344.77 99.0501 344.619 98.959C344.469 98.8678 344.35 98.7493 344.264 98.6035C344.182 98.4531 344.141 98.2913 344.141 98.1182C344.141 97.9495 344.182 97.79 344.264 97.6396C344.35 97.4893 344.469 97.373 344.619 97.291C344.77 97.2044 344.931 97.1611 345.104 97.1611C345.273 97.1611 345.433 97.2044 345.583 97.291C345.733 97.373 345.852 97.4893 345.938 97.6396C346.025 97.79 346.068 97.9495 346.068 98.1182C346.068 98.2913 346.025 98.4531 345.938 98.6035C345.852 98.7493 345.733 98.8678 345.583 98.959C345.433 99.0501 345.273 99.0957 345.104 99.0957ZM351.093 88.9648C351.763 88.9648 352.376 89.1152 352.932 89.416C353.492 89.7168 353.948 90.2204 354.299 90.9268C354.65 91.6286 354.825 92.5537 354.825 93.7021C354.825 94.8415 354.668 95.819 354.354 96.6348C354.044 97.446 353.597 98.0658 353.014 98.4941C352.435 98.9225 351.749 99.1367 350.956 99.1367C350.364 99.1367 349.83 99.0205 349.356 98.7881C348.882 98.5511 348.495 98.2275 348.194 97.8174C347.894 97.4072 347.704 96.9355 347.627 96.4023H349.117C349.186 96.6849 349.302 96.9333 349.466 97.1475C349.63 97.3571 349.837 97.5212 350.088 97.6396C350.343 97.7581 350.632 97.8174 350.956 97.8174C351.462 97.8174 351.897 97.6761 352.262 97.3936C352.626 97.1064 352.904 96.694 353.096 96.1562C353.292 95.6185 353.39 94.9736 353.39 94.2217H353.267C353.089 94.4997 352.87 94.7389 352.61 94.9395C352.351 95.14 352.061 95.2949 351.742 95.4043C351.423 95.5091 351.088 95.5615 350.737 95.5615C350.154 95.5615 349.616 95.4225 349.124 95.1445C348.636 94.862 348.251 94.4746 347.969 93.9824C347.686 93.4902 347.543 92.9365 347.538 92.3213C347.538 91.6878 347.686 91.1159 347.982 90.6055C348.279 90.0951 348.696 89.6917 349.233 89.3955C349.776 89.0993 350.396 88.9557 351.093 88.9648ZM351.1 90.2227C350.708 90.2227 350.352 90.3161 350.033 90.5029C349.714 90.6898 349.464 90.9427 349.281 91.2617C349.099 91.5762 349.008 91.9202 349.008 92.2939C349.012 92.6676 349.104 93.0117 349.281 93.3262C349.459 93.6406 349.703 93.889 350.013 94.0713C350.327 94.2536 350.678 94.3447 351.065 94.3447C351.453 94.3447 351.808 94.249 352.132 94.0576C352.46 93.8617 352.717 93.6042 352.904 93.2852C353.096 92.9661 353.191 92.6289 353.191 92.2734C353.191 91.9134 353.1 91.5762 352.918 91.2617C352.736 90.9473 352.485 90.6966 352.166 90.5098C351.852 90.3184 351.496 90.2227 351.1 90.2227ZM359.863 99.1367C359.161 99.1367 358.533 99.0182 357.977 98.7812C357.425 98.5397 356.994 98.2093 356.685 97.79C356.379 97.3662 356.227 96.89 356.227 96.3613C356.227 95.9466 356.315 95.5592 356.493 95.1992C356.675 94.8392 356.924 94.543 357.238 94.3105C357.557 94.0736 357.908 93.9277 358.291 93.873V93.8115C357.963 93.734 357.671 93.5905 357.416 93.3809C357.161 93.1712 356.96 92.9115 356.814 92.6016C356.673 92.2917 356.603 91.959 356.603 91.6035C356.603 91.1022 356.744 90.651 357.026 90.25C357.313 89.8444 357.703 89.5299 358.195 89.3066C358.692 89.0788 359.248 88.9648 359.863 88.9648C360.479 88.9648 361.035 89.0788 361.531 89.3066C362.028 89.5299 362.418 89.8444 362.7 90.25C362.987 90.651 363.131 91.1022 363.131 91.6035C363.131 91.959 363.056 92.2917 362.905 92.6016C362.759 92.9115 362.559 93.1712 362.304 93.3809C362.053 93.5905 361.761 93.734 361.429 93.8115V93.873C361.816 93.9277 362.165 94.0736 362.475 94.3105C362.789 94.543 363.04 94.8392 363.227 95.1992C363.413 95.5592 363.507 95.9466 363.507 96.3613C363.507 96.89 363.35 97.3662 363.035 97.79C362.725 98.2093 362.295 98.5397 361.743 98.7812C361.192 99.0182 360.565 99.1367 359.863 99.1367ZM359.863 97.8926C360.287 97.8926 360.659 97.8242 360.978 97.6875C361.297 97.5508 361.543 97.3571 361.716 97.1064C361.889 96.8558 361.976 96.571 361.976 96.252C361.976 95.9102 361.884 95.6071 361.702 95.3428C361.52 95.0739 361.267 94.8643 360.943 94.7139C360.624 94.5589 360.264 94.4814 359.863 94.4814C359.462 94.4814 359.1 94.5589 358.776 94.7139C358.453 94.8643 358.2 95.0739 358.018 95.3428C357.84 95.6071 357.756 95.9102 357.765 96.252C357.756 96.571 357.838 96.8558 358.011 97.1064C358.184 97.3571 358.43 97.5508 358.749 97.6875C359.068 97.8242 359.439 97.8926 359.863 97.8926ZM359.863 93.3057C360.205 93.3057 360.513 93.2396 360.786 93.1074C361.064 92.9753 361.278 92.7907 361.429 92.5537C361.579 92.3122 361.654 92.041 361.654 91.7402C361.654 91.4349 361.579 91.166 361.429 90.9336C361.283 90.6966 361.073 90.5143 360.8 90.3867C360.526 90.2591 360.214 90.1953 359.863 90.1953C359.512 90.1953 359.198 90.2591 358.92 90.3867C358.646 90.5143 358.435 90.6966 358.284 90.9336C358.138 91.166 358.065 91.4349 358.065 91.7402C358.065 92.041 358.143 92.3122 358.298 92.5537C358.457 92.7907 358.672 92.9753 358.94 93.1074C359.209 93.2396 359.517 93.3057 359.863 93.3057Z" fill="#797979"/>
<path d="M54.4326 86.9922C54.4326 87.6986 54.2139 88.348 53.7764 88.9404C53.3389 89.5329 52.7533 90.0273 52.0195 90.4238C51.2858 90.8203 50.4701 91.0892 49.5723 91.2305L49.0732 90.2119C49.8389 90.1025 50.5452 89.8883 51.1924 89.5693C51.8395 89.2503 52.3522 88.8652 52.7305 88.4141C53.1087 87.9629 53.2979 87.4889 53.2979 86.9922V86.5205H54.4326V86.9922ZM54.7744 86.9922C54.7744 87.4889 54.9613 87.9629 55.335 88.4141C55.7132 88.8652 56.2259 89.2503 56.873 89.5693C57.5247 89.8883 58.2334 90.1025 58.999 90.2119L58.5273 91.2305C57.625 91.0892 56.8024 90.8226 56.0596 90.4307C55.3213 90.0387 54.7334 89.5443 54.2959 88.9473C53.863 88.3503 53.6465 87.6986 53.6465 86.9922V86.5205H54.7744V86.9922ZM54.6514 97.5127H53.373V92.8848H54.6514V97.5127ZM59.6211 93.2266H48.4512V92.167H59.6211V93.2266ZM58.5752 87.0264H49.4834V85.9873H58.5752V87.0264ZM70.0938 97.499H68.8018V85.2559H70.0938V97.499ZM71.9941 91.2305H69.7588V90.1504H71.9941V91.2305ZM66.8877 86.5547C66.8877 87.7806 66.6963 88.9268 66.3135 89.9932C65.9352 91.055 65.3291 92.0348 64.4951 92.9326C63.6657 93.8258 62.597 94.596 61.2891 95.2432L60.5645 94.2314C61.6901 93.6663 62.6266 93.0146 63.374 92.2764C64.1214 91.5335 64.682 90.7064 65.0557 89.7949C65.4294 88.8789 65.6162 87.874 65.6162 86.7803V86.5547H66.8877ZM66.2725 87.6348H61.166V86.5547H66.2725V87.6348Z" fill="#3EB7AF"/>
<path d="M52.71 60.5215C52.71 61.401 52.5573 62.2624 52.252 63.1055C51.9466 63.944 51.5273 64.6914 50.9941 65.3477C50.4609 65.9993 49.8571 66.4893 49.1826 66.8174L48.417 65.7988C49.0231 65.5072 49.5723 65.0811 50.0645 64.5205C50.5566 63.9554 50.9417 63.3242 51.2197 62.627C51.5023 61.9251 51.6436 61.2233 51.6436 60.5215V58.7031H52.71V60.5215ZM52.9561 60.5215C52.9561 61.196 53.0928 61.8659 53.3662 62.5312C53.6442 63.1966 54.0293 63.7891 54.5215 64.3086C55.0182 64.8281 55.5765 65.2223 56.1963 65.4912L55.4785 66.5098C54.7858 66.1999 54.1683 65.7396 53.626 65.1289C53.0882 64.5182 52.6689 63.8141 52.3682 63.0166C52.0719 62.2191 51.9238 61.3874 51.9238 60.5215V58.7031H52.9561V60.5215ZM55.7588 59.2158H48.8477V58.1494H55.7588V59.2158ZM58.6025 69.1553H57.2969V56.9053H58.6025V69.1553ZM66.6074 57.9854C66.6074 58.7419 66.3841 59.4391 65.9375 60.0771C65.4909 60.7152 64.8848 61.2461 64.1191 61.6699C63.3581 62.0892 62.5195 62.3717 61.6035 62.5176L61.084 61.4717C61.877 61.3669 62.6084 61.1413 63.2783 60.7949C63.9482 60.4486 64.4792 60.0293 64.8711 59.5371C65.2676 59.0449 65.4658 58.5277 65.4658 57.9854V57.3223H66.6074V57.9854ZM66.8125 57.9854C66.8125 58.5231 67.0107 59.0404 67.4072 59.5371C67.8083 60.0293 68.346 60.4486 69.0205 60.7949C69.6995 61.1413 70.431 61.3669 71.2148 61.4717L70.7021 62.5176C69.7816 62.3717 68.9408 62.0869 68.1797 61.6631C67.4186 61.2393 66.8125 60.7083 66.3613 60.0703C65.9102 59.4323 65.6846 58.7373 65.6846 57.9854V57.3223H66.8125V57.9854ZM66.751 69.1553H65.4727V64.541H66.751V69.1553ZM71.7207 64.8076H60.5508V63.7275H71.7207V64.8076Z" fill="#3EB7AF"/>
<path d="M294.257 64.9316H289.861V63.6738H294.257V64.9316ZM299.589 69.3818C298.919 69.3727 298.304 69.2178 297.743 68.917C297.187 68.6162 296.731 68.1126 296.376 67.4062C296.025 66.6999 295.85 65.7725 295.85 64.624C295.85 63.4893 296.007 62.5163 296.321 61.7051C296.636 60.8893 297.082 60.2695 297.661 59.8457C298.24 59.4219 298.924 59.21 299.712 59.21C300.313 59.21 300.849 59.3262 301.318 59.5586C301.792 59.7865 302.177 60.1055 302.474 60.5156C302.774 60.9258 302.964 61.3952 303.041 61.9238H301.551C301.478 61.6458 301.359 61.402 301.195 61.1924C301.036 60.9782 300.831 60.8141 300.58 60.7002C300.329 60.5863 300.04 60.5293 299.712 60.5293C299.206 60.5293 298.773 60.6706 298.413 60.9531C298.053 61.2311 297.777 61.6367 297.586 62.1699C297.395 62.7031 297.297 63.3434 297.292 64.0908H297.401C297.584 63.8128 297.802 63.5736 298.058 63.373C298.317 63.1725 298.609 63.0199 298.933 62.915C299.256 62.8057 299.593 62.751 299.944 62.751C300.528 62.751 301.063 62.8923 301.551 63.1748C302.043 63.4528 302.428 63.8379 302.706 64.3301C302.989 64.8223 303.13 65.3805 303.13 66.0049C303.13 66.6429 302.982 67.2194 302.686 67.7344C302.389 68.2493 301.972 68.6527 301.435 68.9443C300.897 69.236 300.282 69.3818 299.589 69.3818ZM299.582 68.124C299.974 68.124 300.327 68.0306 300.642 67.8438C300.961 67.6569 301.211 67.404 301.394 67.085C301.58 66.7614 301.674 66.4128 301.674 66.0391C301.674 65.6517 301.585 65.3008 301.407 64.9863C301.229 64.6719 300.983 64.4258 300.669 64.248C300.354 64.0658 299.999 63.9746 299.603 63.9746C299.215 63.9746 298.86 64.0703 298.536 64.2617C298.213 64.4486 297.955 64.7015 297.764 65.0205C297.577 65.335 297.479 65.6768 297.47 66.0459C297.474 66.4059 297.568 66.7454 297.75 67.0645C297.937 67.3835 298.19 67.641 298.509 67.8369C298.828 68.0283 299.186 68.124 299.582 68.124ZM305.249 69.3408C305.076 69.3408 304.914 69.2952 304.764 69.2041C304.613 69.113 304.495 68.9945 304.408 68.8486C304.326 68.6982 304.285 68.5365 304.285 68.3633C304.285 68.1947 304.326 68.0352 304.408 67.8848C304.495 67.7344 304.613 67.6182 304.764 67.5361C304.914 67.4495 305.076 67.4062 305.249 67.4062C305.418 67.4062 305.577 67.4495 305.728 67.5361C305.878 67.6182 305.996 67.7344 306.083 67.8848C306.17 68.0352 306.213 68.1947 306.213 68.3633C306.213 68.5365 306.17 68.6982 306.083 68.8486C305.996 68.9945 305.878 69.113 305.728 69.2041C305.577 69.2952 305.418 69.3408 305.249 69.3408ZM312.468 60.707V60.6387H307.361V59.3467H314.026V60.6865L309.617 69.2451H308.052L312.468 60.707ZM318.818 69.3818C318.148 69.3818 317.547 69.2679 317.014 69.04C316.48 68.8122 316.061 68.4932 315.756 68.083C315.451 67.6683 315.286 67.1921 315.264 66.6543H316.781C316.804 66.9323 316.907 67.1807 317.089 67.3994C317.271 67.6182 317.513 67.7868 317.813 67.9053C318.114 68.0238 318.447 68.083 318.812 68.083C319.203 68.083 319.559 68.0146 319.878 67.8779C320.197 67.7367 320.443 67.5475 320.616 67.3105C320.789 67.069 320.876 66.791 320.876 66.4766C320.876 66.1439 320.789 65.8499 320.616 65.5947C320.443 65.3395 320.188 65.1413 319.851 65C319.518 64.8587 319.117 64.7881 318.647 64.7881H317.8V63.5645H318.647C319.021 63.5645 319.354 63.4984 319.646 63.3662C319.937 63.234 320.163 63.0495 320.322 62.8125C320.482 62.5755 320.559 62.3021 320.555 61.9922C320.559 61.6914 320.491 61.4248 320.35 61.1924C320.208 60.96 320.008 60.7822 319.748 60.6592C319.488 60.5316 319.188 60.4678 318.846 60.4678C318.508 60.4678 318.196 60.527 317.909 60.6455C317.622 60.764 317.387 60.9326 317.205 61.1514C317.027 61.3701 316.932 61.6276 316.918 61.9238H315.469C315.492 61.3952 315.653 60.9258 315.954 60.5156C316.259 60.1009 316.665 59.7796 317.171 59.5518C317.681 59.3239 318.242 59.21 318.853 59.21C319.486 59.21 320.042 59.3307 320.521 59.5723C321.004 59.8092 321.375 60.1328 321.635 60.543C321.895 60.9531 322.02 61.4066 322.011 61.9033C322.02 62.2679 321.951 62.6029 321.806 62.9082C321.664 63.209 321.459 63.4619 321.19 63.667C320.926 63.8675 320.616 64.0111 320.261 64.0977V64.1729C320.707 64.2321 321.09 64.3711 321.409 64.5898C321.733 64.804 321.979 65.0752 322.147 65.4033C322.316 65.7314 322.396 66.1051 322.387 66.5244C322.396 67.0622 322.245 67.5498 321.936 67.9873C321.626 68.4202 321.197 68.762 320.65 69.0127C320.104 69.2588 319.493 69.3818 318.818 69.3818ZM324.376 65.4717C324.385 64.2048 324.561 63.0312 324.902 61.9512C325.244 60.8665 325.741 59.8571 326.393 58.9229H327.732C327.418 59.3831 327.119 59.9756 326.837 60.7002C326.554 61.4248 326.326 62.2064 326.153 63.0449C325.98 63.8789 325.894 64.6878 325.894 65.4717C325.894 66.2555 325.98 67.069 326.153 67.9121C326.326 68.7507 326.554 69.5299 326.837 70.25C327.119 70.9746 327.418 71.5693 327.732 72.0342H326.393C325.745 71.0863 325.249 70.07 324.902 68.9854C324.561 67.9007 324.385 66.7295 324.376 65.4717ZM332.511 69.3818C331.75 69.3818 331.098 69.1836 330.556 68.7871C330.013 68.3906 329.599 67.8118 329.312 67.0508C329.024 66.2897 328.881 65.3714 328.881 64.2959C328.881 63.2295 329.024 62.3158 329.312 61.5547C329.599 60.7936 330.016 60.2126 330.562 59.8115C331.109 59.4105 331.759 59.21 332.511 59.21C333.263 59.21 333.912 59.4105 334.459 59.8115C335.006 60.2126 335.423 60.7936 335.71 61.5547C335.997 62.3158 336.141 63.2295 336.141 64.2959C336.141 65.3714 335.997 66.2897 335.71 67.0508C335.427 67.8118 335.013 68.3906 334.466 68.7871C333.924 69.1836 333.272 69.3818 332.511 69.3818ZM332.511 68.0898C332.953 68.0898 333.333 67.944 333.652 67.6523C333.976 67.3607 334.222 66.9323 334.391 66.3672C334.559 65.7975 334.641 65.1071 334.637 64.2959C334.637 63.4847 334.552 62.7943 334.384 62.2246C334.215 61.6549 333.971 61.222 333.652 60.9258C333.333 60.6296 332.953 60.4814 332.511 60.4814C332.069 60.4814 331.688 60.6296 331.369 60.9258C331.05 61.222 330.804 61.6549 330.631 62.2246C330.458 62.7943 330.371 63.4847 330.371 64.2959C330.371 65.1071 330.455 65.7975 330.624 66.3672C330.793 66.9323 331.039 67.3607 331.362 67.6523C331.686 67.944 332.069 68.0898 332.511 68.0898ZM338.308 69.3408C338.134 69.3408 337.973 69.2952 337.822 69.2041C337.672 69.113 337.553 68.9945 337.467 68.8486C337.385 68.6982 337.344 68.5365 337.344 68.3633C337.344 68.1947 337.385 68.0352 337.467 67.8848C337.553 67.7344 337.672 67.6182 337.822 67.5361C337.973 67.4495 338.134 67.4062 338.308 67.4062C338.476 67.4062 338.636 67.4495 338.786 67.5361C338.937 67.6182 339.055 67.7344 339.142 67.8848C339.228 68.0352 339.271 68.1947 339.271 68.3633C339.271 68.5365 339.228 68.6982 339.142 68.8486C339.055 68.9945 338.937 69.113 338.786 69.2041C338.636 69.2952 338.476 69.3408 338.308 69.3408ZM341.021 68.1514L344.46 64.6855C344.875 64.2572 345.194 63.9108 345.417 63.6465C345.64 63.3822 345.807 63.1224 345.916 62.8672C346.03 62.6074 346.087 62.3385 346.087 62.0605C346.087 61.7461 346.007 61.4681 345.848 61.2266C345.688 60.985 345.469 60.7982 345.191 60.666C344.913 60.5339 344.601 60.4678 344.255 60.4678C343.895 60.4678 343.578 60.5407 343.305 60.6865C343.036 60.8278 342.826 61.0329 342.676 61.3018C342.53 61.5661 342.457 61.8714 342.457 62.2178H341.028C341.028 61.6253 341.167 61.1012 341.445 60.6455C341.723 60.1898 342.108 59.8366 342.601 59.5859C343.097 59.3353 343.66 59.21 344.289 59.21C344.913 59.21 345.469 59.333 345.957 59.5791C346.445 59.8206 346.825 60.1556 347.099 60.584C347.377 61.0078 347.516 61.484 347.516 62.0127C347.516 62.391 347.445 62.7555 347.304 63.1064C347.162 63.4574 346.923 63.8447 346.586 64.2686C346.249 64.6924 345.766 65.2142 345.137 65.834L343.12 67.8779V67.9531H347.68V69.2451H341.028L341.021 68.1514ZM351.617 64.0566C351.175 64.0566 350.799 63.9564 350.489 63.7559C350.179 63.5508 349.942 63.2614 349.778 62.8877C349.619 62.514 349.539 62.0833 349.539 61.5957C349.539 61.1081 349.621 60.6774 349.785 60.3037C349.954 59.93 350.193 59.6429 350.503 59.4424C350.817 59.2373 351.189 59.1348 351.617 59.1348C352.068 59.1348 352.449 59.2373 352.759 59.4424C353.069 59.6429 353.303 59.9277 353.463 60.2969C353.622 60.666 353.702 61.099 353.702 61.5957C353.702 62.0833 353.62 62.5117 353.456 62.8809C353.297 63.25 353.06 63.5394 352.745 63.749C352.435 63.9541 352.059 64.0566 351.617 64.0566ZM351.617 63.0859C351.827 63.0859 352.002 63.0244 352.144 62.9014C352.289 62.7738 352.396 62.6006 352.465 62.3818C352.533 62.1585 352.567 61.8965 352.567 61.5957C352.567 61.2812 352.533 61.0124 352.465 60.7891C352.401 60.5658 352.299 60.3949 352.157 60.2764C352.016 60.1533 351.836 60.0964 351.617 60.1055C351.417 60.1055 351.243 60.167 351.098 60.29C350.956 60.4085 350.849 60.5794 350.776 60.8027C350.703 61.026 350.667 61.2904 350.667 61.5957C350.667 61.8965 350.703 62.1585 350.776 62.3818C350.849 62.6006 350.956 62.7738 351.098 62.9014C351.243 63.0244 351.417 63.0859 351.617 63.0859ZM357.872 69.4434C357.435 69.4434 357.059 69.3431 356.744 69.1426C356.43 68.9375 356.193 68.6504 356.033 68.2812C355.874 67.9121 355.794 67.4814 355.794 66.9893C355.794 66.4971 355.876 66.0641 356.04 65.6904C356.204 65.3167 356.443 65.0296 356.758 64.8291C357.072 64.624 357.444 64.5215 357.872 64.5215C358.314 64.5215 358.69 64.624 359 64.8291C359.314 65.0296 359.551 65.3167 359.711 65.6904C359.87 66.0641 359.95 66.4971 359.95 66.9893C359.95 67.4723 359.868 67.9007 359.704 68.2744C359.54 68.6481 359.303 68.9375 358.993 69.1426C358.683 69.3431 358.31 69.4434 357.872 69.4434ZM357.872 68.4727C358.086 68.4727 358.264 68.4134 358.405 68.2949C358.547 68.1719 358.649 68.001 358.713 67.7822C358.781 67.5589 358.815 67.2946 358.815 66.9893C358.815 66.6794 358.781 66.4105 358.713 66.1826C358.649 65.9548 358.549 65.7816 358.412 65.6631C358.275 65.54 358.095 65.4831 357.872 65.4922C357.672 65.4922 357.498 65.556 357.353 65.6836C357.211 65.8066 357.102 65.9798 357.024 66.2031C356.951 66.4264 356.915 66.6885 356.915 66.9893C356.915 67.29 356.951 67.5521 357.024 67.7754C357.102 67.9987 357.211 68.1719 357.353 68.2949C357.494 68.4134 357.667 68.4727 357.872 68.4727ZM357.462 59.3467H358.713L351.904 69.2451H350.653L357.462 59.3467ZM364.291 61.9512C364.633 63.0312 364.808 64.2048 364.817 65.4717C364.808 66.7295 364.631 67.9007 364.284 68.9854C363.942 70.07 363.448 71.0863 362.801 72.0342H361.461C361.775 71.5693 362.074 70.9746 362.356 70.25C362.639 69.5299 362.867 68.7507 363.04 67.9121C363.213 67.069 363.3 66.2555 363.3 65.4717C363.3 64.6878 363.213 63.8789 363.04 63.0449C362.867 62.2064 362.639 61.4248 362.356 60.7002C362.074 59.9756 361.775 59.3831 361.461 58.9229H362.801C363.452 59.8571 363.949 60.8665 364.291 61.9512Z" fill="#1C77FF"/>
<path d="M56.6953 30.9219H47.7266V29.5156H56.6953V30.9219ZM59.0938 40.6562H46.2344V39.2188H59.0938V40.6562ZM57.7188 31.0938C57.7188 31.849 57.7031 32.5104 57.6719 33.0781C57.6458 33.6458 57.5885 34.3021 57.5 35.0469C57.4115 35.7917 57.2734 36.6016 57.0859 37.4766L55.3906 37.2969C55.5781 36.4531 55.7161 35.6589 55.8047 34.9141C55.8932 34.1641 55.9479 33.4974 55.9688 32.9141C55.9896 32.3255 56 31.6745 56 30.9609V30.8047V29.5156H57.7188V30.8047V31.0938ZM47.5391 34.7344L47.2812 33.2344L56.3594 32.9062V34.2188L47.5391 34.7344ZM52.6953 39.7422H50.9844V35.7422H52.6953V39.7422ZM67.0312 30.1953C67.0312 31.2005 66.7786 32.1432 66.2734 33.0234C65.7734 33.9036 65.0807 34.651 64.1953 35.2656C63.3151 35.8802 62.3177 36.3047 61.2031 36.5391L60.4531 35.0938C61.4062 34.9115 62.2682 34.5729 63.0391 34.0781C63.8151 33.5833 64.4193 32.9948 64.8516 32.3125C65.2891 31.6302 65.5078 30.9245 65.5078 30.1953V29.1641H67.0312V30.1953ZM67.3438 30.1953C67.3438 30.9245 67.5625 31.6328 68 32.3203C68.4427 33.0026 69.0521 33.5938 69.8281 34.0938C70.6094 34.5885 71.4792 34.9219 72.4375 35.0938L71.6641 36.5391C70.5599 36.3047 69.5677 35.8828 68.6875 35.2734C67.8073 34.6641 67.1146 33.9219 66.6094 33.0469C66.1094 32.1667 65.8594 31.2161 65.8594 30.1953V29.1641H67.3438V30.1953ZM72.9688 40.5859H60.0625V39.1562H72.9688V40.5859ZM85.6797 42.375H83.9219V28.2656H85.6797V42.375ZM82.2422 31.0625H74.2344V29.6484H82.2422V31.0625ZM73.8594 37.625C75.4948 37.625 77.0729 37.5964 78.5938 37.5391C80.1198 37.4766 81.5443 37.3672 82.8672 37.2109L82.9688 38.5C81.6198 38.7188 80.224 38.8646 78.7812 38.9375C77.3438 39.0052 75.7604 39.0443 74.0312 39.0547L73.8594 37.625ZM77.2812 38H75.5938V30.7266H77.2812V38ZM80.8828 38H79.1797V30.7266H80.8828V38Z" fill="black"/>
</svg>
