<svg width="187" height="62" viewBox="0 0 187 62" fill="none" xmlns="http://www.w3.org/2000/svg">
<path d="M84.0118 39.0184V43.3284H79.7188V39.0184H73.7865C72.522 39.0184 72.0173 38.1833 72.0173 37.3233C72.0173 36.4633 72.502 35.6082 73.7865 35.6082H89.9441C91.2285 35.6082 91.7133 36.4881 91.7133 37.3233C91.7133 38.1584 91.2085 39.0184 89.9441 39.0184H84.0118ZM89.2294 24.0106C90.279 24.0106 90.6838 24.7861 90.6838 25.497C90.6838 26.2078 90.284 26.9187 89.2294 26.9187H77.8046C77.4248 26.9187 77.2349 27.0877 77.2349 27.4208V27.9428H89.0795C90.154 27.9428 90.5538 28.6337 90.5538 29.3446C90.5538 30.0555 90.134 30.7465 89.0795 30.7465H77.2349V31.2486C77.2349 31.6264 77.4248 31.7506 77.8046 31.7506H89.5443C90.6188 31.7506 91.0186 32.4814 91.0186 33.1923C91.0186 33.9031 90.5988 34.614 89.5443 34.614H75.9955C73.7865 34.614 72.9668 33.7341 72.9668 31.686V26.9585C72.9668 24.9302 73.7865 24.0056 75.9955 24.0056H89.2294V24.0106Z" fill="#474747"/>
<path d="M96.3812 27.9477H93.6874C92.423 27.9477 91.9182 27.0281 91.9182 26.1681C91.9182 25.308 92.403 24.3685 93.6874 24.3685H103.198C104.483 24.3685 104.922 25.3329 104.922 26.1681C104.922 27.0032 104.458 27.9477 103.198 27.9477H100.464V30.2096C100.464 31.174 100.399 32.0738 100.294 32.9089C103.323 33.9528 105.177 36.3191 104.942 42.0558H101.009C101.264 39.272 100.694 37.5569 99.4298 36.6373C98.4403 39.272 96.781 41.1163 94.612 42.016C93.7074 42.3938 92.423 42.1005 92.0032 41.2853C91.5834 40.5098 91.7933 39.5255 92.6329 39.0035C95.2617 37.373 96.3762 34.7532 96.3762 30.1102V27.9527L96.3812 27.9477ZM106.567 25.6013C106.567 24.2641 107.556 23.5731 108.651 23.5731C109.745 23.5731 110.735 24.284 110.735 25.6013V30.8956H111.429C112.714 30.8956 113.094 31.8799 113.094 32.715C113.094 33.5502 112.694 34.5345 111.429 34.5345H110.735V43.219H106.567V25.5964V25.6013Z" fill="#474747"/>
<path d="M120.045 32.0092V28.5145C120.045 28.2212 119.856 27.9925 119.521 27.9925H114.723C113.458 27.9925 112.954 27.0281 112.954 26.1731C112.954 25.318 113.438 24.3735 114.723 24.3735H120.91C123.289 24.3735 124.214 25.4821 124.214 27.4308V32.034C124.214 39.441 120.175 42.1205 114.723 42.3939C113.693 42.4336 112.704 41.8272 112.704 40.5943C112.704 39.7144 113.209 39.0433 114.263 38.919C117.567 38.5015 120.05 37.1593 120.05 32.0141L120.045 32.0092ZM126.757 25.6063C126.757 24.2691 127.747 23.5781 128.841 23.5781C129.936 23.5781 130.926 24.289 130.926 25.6063V30.9006H131.62C132.905 30.9006 133.284 31.8849 133.284 32.72C133.284 33.5552 132.885 34.5395 131.62 34.5395H130.926V43.2241H126.757V25.6014V25.6063Z" fill="#474747"/>
<path d="M141.526 42.4287C138.767 42.4287 138.262 41.6134 138.262 38.9737V27.7141C138.262 25.0794 138.767 24.2592 141.526 24.2592H146.448C149.207 24.2592 149.712 25.0744 149.712 27.7141V31.3331H152.596V25.5964C152.596 24.2592 153.585 23.5682 154.68 23.5682C155.774 23.5682 156.784 24.279 156.784 25.5964V43.2191H152.596V34.9123H149.712V42.4237H141.526V42.4287ZM142.345 38.3921C142.345 38.8544 142.49 39.103 143.04 39.103H145.629V28.2808C145.629 27.8632 145.524 27.5898 145.059 27.5898H142.89C142.425 27.5898 142.345 27.8632 142.345 28.2808V38.3871V38.3921Z" fill="#474747"/>
<path d="M169.823 38.6406C171.042 38.6406 171.402 39.5802 171.402 40.3756C171.402 41.1709 171.022 42.1751 169.823 42.1751H161.741C159.238 42.1751 158.523 41.2952 158.523 38.9091V26.4365C158.523 25.0346 159.532 24.4083 160.667 24.4083C161.801 24.4083 162.751 25.0595 162.751 26.4365V38.054C162.751 38.5362 162.876 38.6406 163.361 38.6406H169.818H169.823ZM172.766 43.224V25.6461C172.766 24.284 173.756 23.5731 174.871 23.5731C175.985 23.5731 176.975 24.284 176.975 25.6461V43.224H172.766Z" fill="#474747"/>
<path opacity="0.47" d="M14.6134 55.468C10.5802 53.6685 8.5911 48.4836 10.1704 43.8902L18.8964 18.4728C20.4757 13.8745 25.0236 11.6077 29.0518 13.4072C33.085 15.2068 35.0741 20.3917 33.4948 24.985L24.7688 50.4024C23.1895 55.0007 18.6415 57.2676 14.6134 55.468Z" fill="#79CAE1"/>
<path opacity="0.33" d="M37.6079 55.468C41.6411 53.6685 43.6302 48.4836 42.0509 43.8902L33.3249 18.4728C31.7456 13.8745 27.1977 11.6077 23.1695 13.4072C19.1363 15.2068 17.1472 20.3917 18.7265 24.985L27.4525 50.4024C29.0318 55.0007 33.5798 57.2676 37.6079 55.468Z" fill="#7DC6AB"/>
<path opacity="0.24" d="M36.0986 55.468C32.0654 53.6685 30.0763 48.4836 31.6556 43.8902L40.3816 18.4728C41.9609 13.8745 46.5089 11.6077 50.537 13.4072C54.5702 15.2068 56.5593 20.3917 54.98 24.985L46.254 50.4024C44.6747 55.0007 40.1268 57.2676 36.0986 55.468Z" fill="#79CAE1"/>
<path opacity="0.38" d="M59.0882 55.468C63.1213 53.6685 65.1104 48.4836 63.5311 43.8902L54.8051 18.4728C53.2258 13.8745 48.6779 11.6077 44.6497 13.4072C40.6165 15.2068 38.6275 20.3917 40.2067 24.985L48.9328 50.4024C50.5121 55.0007 55.06 57.2676 59.0882 55.468Z" fill="#7DC6AB"/>
<path opacity="0.33" d="M59.8878 14.4909C62.2671 14.4909 64.1958 12.5724 64.1958 10.2058C64.1958 7.83917 62.2671 5.92065 59.8878 5.92065C57.5085 5.92065 55.5797 7.83917 55.5797 10.2058C55.5797 12.5724 57.5085 14.4909 59.8878 14.4909Z" fill="#7DC6AB"/>
</svg>
