<svg width="19" height="20" viewBox="0 0 19 20" fill="none" xmlns="http://www.w3.org/2000/svg">
<rect y="0.953003" width="19" height="18.1061" rx="2" fill="#EFEFEF"/>
<path d="M6 9.50598C5.72386 9.50598 5.5 9.72984 5.5 10.006C5.5 10.2821 5.72386 10.506 6 10.506V9.50598ZM14.3536 10.3595C14.5488 10.1643 14.5488 9.84769 14.3536 9.65243L11.1716 6.47045C10.9763 6.27519 10.6597 6.27519 10.4645 6.47045C10.2692 6.66571 10.2692 6.98229 10.4645 7.17755L13.2929 10.006L10.4645 12.8344C10.2692 13.0297 10.2692 13.3463 10.4645 13.5415C10.6597 13.7368 10.9763 13.7368 11.1716 13.5415L14.3536 10.3595ZM6 10.506H14V9.50598H6V10.506Z" fill="black"/>
</svg>
