<svg width="10" height="10" viewBox="0 0 10 10" fill="none" xmlns="http://www.w3.org/2000/svg">
<path d="M2.5 5.5C2.22386 5.5 2 5.27614 2 5C2 4.72386 2.22386 4.5 2.5 4.5H6L4.605 3.105C4.40894 2.90894 4.40894 2.59106 4.605 2.395C4.80106 2.19894 5.11894 2.19894 5.315 2.395L7.69231 4.77231C7.81806 4.89806 7.81806 5.10194 7.69231 5.22769L5.315 7.605C5.11894 7.80106 4.80106 7.80106 4.605 7.605C4.40894 7.40894 4.40894 7.09106 4.605 6.895L6 5.5H2.5ZM10 5C10 5.65661 9.87067 6.30679 9.6194 6.91342C9.36812 7.52005 8.99983 8.07124 8.53553 8.53553C8.07124 8.99983 7.52005 9.36812 6.91342 9.6194C6.30679 9.87067 5.65661 10 5 10C3.67392 10 2.40215 9.47322 1.46447 8.53553C0.526784 7.59785 -5.79649e-08 6.32608 0 5C2.87013e-08 4.34339 0.129328 3.69321 0.380602 3.08658C0.631876 2.47995 1.00017 1.92876 1.46447 1.46447C2.40215 0.526784 3.67392 -5.79649e-08 5 0C6.32608 5.79649e-08 7.59785 0.526784 8.53553 1.46447C9.47322 2.40215 10 3.67392 10 5ZM9 5C9 3.93913 8.57857 2.92172 7.82843 2.17157C7.07828 1.42143 6.06087 1 5 1C3.93913 1 2.92172 1.42143 2.17157 2.17157C1.42143 2.92172 1 3.93913 1 5C1 6.06087 1.42143 7.07828 2.17157 7.82843C2.92172 8.57857 3.93913 9 5 9C6.06087 9 7.07828 8.57857 7.82843 7.82843C8.57857 7.07828 9 6.06087 9 5Z" fill="#3EB7AF"/>
</svg>
