<svg width="72" height="72" viewBox="0 0 72 72" fill="none" xmlns="http://www.w3.org/2000/svg">
<rect width="72" height="72" rx="10" fill="#85D6D1"/>
<path d="M47.0007 19.4998C47.9731 19.4998 48.9057 19.8861 49.5934 20.5738C50.281 21.2614 50.6673 22.194 50.6673 23.1665C50.6673 24.6515 49.7507 25.9165 48.5223 26.5032L45.1673 38.1082V46.9998H26.834V38.1082L23.479 26.5032C22.2507 25.9165 21.334 24.6515 21.334 23.1665C21.334 22.194 21.7203 21.2614 22.4079 20.5738C23.0956 19.8861 24.0282 19.4998 25.0007 19.4998C25.9731 19.4998 26.9057 19.8861 27.5934 20.5738C28.281 21.2614 28.6673 22.194 28.6673 23.1665C28.6673 24.0832 28.3373 24.9082 27.7507 25.5498L32.884 31.1415L33.8557 24.3032C32.939 23.6432 32.334 22.5615 32.334 21.3332C32.334 20.3607 32.7203 19.4281 33.4079 18.7404C34.0956 18.0528 35.0282 17.6665 36.0007 17.6665C36.9731 17.6665 37.9057 18.0528 38.5934 18.7404C39.281 19.4281 39.6673 20.3607 39.6673 21.3332C39.6673 22.5615 39.0623 23.6432 38.1457 24.3032L39.1173 31.1415L44.1957 25.5315C43.664 24.8898 43.334 24.0832 43.334 23.1665C43.334 22.194 43.7203 21.2614 44.4079 20.5738C45.0956 19.8861 46.0282 19.4998 47.0007 19.4998ZM23.1673 50.6665H48.834V54.3332H23.1673V50.6665Z" fill="#FAFF1D"/>
</svg>
