<svg width="72" height="72" viewBox="0 0 72 72" fill="none" xmlns="http://www.w3.org/2000/svg">
<rect width="72" height="72" rx="10" fill="#FFEBC5"/>
<g clip-path="url(#clip0_724_2270)">
<path d="M30.875 54.3335V58.0002H27.125V54.3335H30.875ZM38.375 54.3335V58.0002H34.625V54.3335H38.375ZM45.875 54.3335V58.0002H42.125V54.3335H45.875ZM51.5 50.6668H21.5C20.5054 50.6668 19.5516 50.2805 18.8483 49.5929C18.1451 48.9053 17.75 47.9726 17.75 47.0002V25.0002C17.75 24.0277 18.1451 23.0951 18.8483 22.4074C19.5516 21.7198 20.5054 21.3335 21.5 21.3335H51.5C52.4946 21.3335 53.4484 21.7198 54.1516 22.4074C54.8549 23.0951 55.25 24.0277 55.25 25.0002V47.0002C55.25 47.9726 54.8549 48.9053 54.1516 49.5929C53.4484 50.2805 52.4946 50.6668 51.5 50.6668ZM34.625 37.8335H30.875V41.5002H34.625V37.8335ZM49.625 37.8335H38.375V41.5002H49.625V37.8335ZM27.125 30.5002H23.375V34.1668H27.125V30.5002ZM49.625 30.5002H30.875V34.1668H49.625V30.5002Z" fill="#FF9191"/>
</g>
<defs>
<clipPath id="clip0_724_2270">
<rect width="45" height="44" fill="white" transform="translate(14 14)"/>
</clipPath>
</defs>
</svg>
