<?xml version="1.0" encoding="utf-8"?>
<!-- Generator: Adobe Illustrator 27.8.1, SVG Export Plug-In . SVG Version: 6.00 Build 0)  -->
<svg version="1.1" xmlns="http://www.w3.org/2000/svg" xmlns:xlink="http://www.w3.org/1999/xlink" x="0px" y="0px"
	 viewBox="0 0 463.51 199.37" style="enable-background:new 0 0 463.51 199.37;" xml:space="preserve">
<style type="text/css">
	.st0{fill:url(#SVGID_1_);}
	.st1{fill:#CFE9FF;}
	.st2{display:none;}
	.st3{display:inline;fill:url(#SVGID_00000107579501554830342070000016415639085212730549_);}
	.st4{display:inline;opacity:0.34;fill:url(#SVGID_00000072973942511264145270000004598716183614089882_);}
	.st5{display:inline;opacity:0.55;fill:url(#SVGID_00000018231779917478638400000009270163188982018239_);}
	.st6{fill:#00CF9A;}
	.st7{fill:#FFFFFF;}
	.st8{fill:#76B2D3;}
	.st9{fill:#7CC4C2;}
	.st10{fill:url(#SVGID_00000000200084777586744140000010431060942020989887_);}
	.st11{fill:#C6F7E7;}
	.st12{fill:#499B97;}
	.st13{fill:#8CD3D0;}
	.st14{fill:#0B7B99;}
	.st15{opacity:0.3;}
	.st16{fill:#94B2FD;}
	.st17{fill:#49CBCE;}
	.st18{fill:#FFD600;}
	.st19{fill:#00213C;}
	.st20{opacity:0.3;fill:#94B2FD;}
	.st21{fill:#DEF6FF;}
	.st22{fill:#C8D6FD;}
	.st23{fill:#5CADEA;}
	.st24{fill:#F3645A;}
	.st25{fill:#2AF4D6;}
	.st26{fill:#7FC2DD;}
	.st27{fill:#F9FCFF;}
	.st28{fill:#C0EAFF;}
	.st29{fill:#101014;}
	.st30{fill:#22A08E;}
	.st31{fill:#00141E;}
	.st32{fill:#A4F7F7;}
	.st33{fill:#1E8487;}
	.st34{fill:url(#SVGID_00000164492305941061251610000013574691000292854167_);}
	.st35{fill:#2B2B2B;}
	.st36{fill:#3441E0;}
	.st37{fill:#249DA0;}
	.st38{opacity:0.27;}
	.st39{opacity:0.35;}
	.st40{opacity:0.53;}
	.st41{fill:#FF5757;}
	.st42{fill:#FFCA7D;}
	.st43{fill:#73D665;}
	.st44{fill:#6627FF;}
	.st45{fill:none;stroke:#FFFFFF;stroke-width:2.8592;stroke-miterlimit:10;stroke-dasharray:11.0214,11.0214;}
	.st46{opacity:0.47;}
	.st47{fill:none;}
	.st48{opacity:0.2;fill:#536862;}
	.st49{fill:#6300FF;}
</style>
<g id="레이어_1">
	<g>
		<g>
			<g>
				<path class="st35" d="M52.51,170.45H33.06v-2.38h19.45V170.45z M42.63,162.76c-0.68,1.05-1.67,1.92-2.95,2.63
					s-2.8,1.18-4.57,1.42L34,164.49c1.49-0.19,2.77-0.55,3.84-1.08s1.87-1.16,2.41-1.88s0.81-1.46,0.81-2.23v-0.64h2.6v0.64
					C43.65,160.57,43.31,161.72,42.63,162.76z M50.76,159.75H34.81v-2.33h15.95V159.75z M44.21,177.64h-2.96v-7.86h2.96V177.64z
					 M45.31,161.53c0.54,0.72,1.34,1.34,2.41,1.88s2.36,0.89,3.87,1.08l-1.08,2.33c-1.77-0.24-3.31-0.71-4.6-1.42
					s-2.28-1.58-2.97-2.63s-1.03-2.21-1.03-3.46v-0.64h2.6v0.64C44.51,160.07,44.78,160.82,45.31,161.53z"/>
				<path class="st35" d="M60.66,163.18c-0.46,1.2-1.15,2.24-2.07,3.13s-2.04,1.55-3.38,1.99l-1.49-2.34
					c1.15-0.38,2.11-0.91,2.88-1.59s1.34-1.47,1.71-2.34s0.55-1.78,0.55-2.71v-2.05h2.48v2.05
					C61.35,160.69,61.12,161.98,60.66,163.18z M71.64,177.62h-2.99v-5.29H56.99v-2.4h14.65V177.62z M62.5,161.94
					c0.35,0.82,0.9,1.55,1.66,2.2c0.75,0.64,1.69,1.13,2.82,1.47l-1.48,2.36c-1.33-0.42-2.44-1.06-3.34-1.9s-1.57-1.85-2.02-2.99
					s-0.67-2.4-0.67-3.75v-2.05h2.51v2.05C61.97,160.25,62.15,161.12,62.5,161.94z M71.64,169.02h-2.99v-12.75h2.99V169.02z"/>
				<path class="st35" d="M83.69,158.72c0.86,0.62,1.52,1.51,2,2.66s0.72,2.48,0.72,4.01c0,1.53-0.24,2.87-0.72,4.02
					s-1.15,2.03-2,2.65s-1.82,0.93-2.89,0.93c-1.09,0-2.06-0.31-2.91-0.93s-1.53-1.51-2.01-2.65s-0.73-2.49-0.73-4.02
					c0-1.52,0.24-2.86,0.73-4.01s1.15-2.04,2.01-2.66s1.83-0.94,2.91-0.94C81.87,157.78,82.84,158.1,83.69,158.72z M79.36,161.05
					c-0.42,0.38-0.74,0.94-0.96,1.68s-0.33,1.63-0.33,2.67s0.11,1.93,0.33,2.66s0.54,1.29,0.96,1.67s0.9,0.57,1.45,0.57
					c0.54,0,1.02-0.19,1.43-0.57s0.73-0.94,0.96-1.67s0.34-1.62,0.34-2.66s-0.11-1.93-0.34-2.67s-0.54-1.3-0.96-1.68
					s-0.89-0.56-1.44-0.56C80.26,160.48,79.77,160.67,79.36,161.05z M92.39,177.68h-3.04v-21.41h3.04V177.68z"/>
				<path class="st35" d="M109.55,158.72c0.84,0.62,1.49,1.51,1.96,2.66s0.71,2.48,0.71,4.01c0,1.53-0.24,2.87-0.71,4.02
					s-1.13,2.03-1.96,2.65s-1.79,0.93-2.85,0.93c-1.07,0-2.03-0.31-2.87-0.93s-1.5-1.5-1.97-2.65s-0.71-2.49-0.71-4.03
					c0-1.52,0.24-2.86,0.71-4.01s1.13-2.04,1.97-2.66s1.79-0.94,2.87-0.94C107.76,157.78,108.71,158.1,109.55,158.72z
					 M105.29,161.05c-0.41,0.38-0.72,0.94-0.94,1.68s-0.32,1.62-0.32,2.66s0.11,1.93,0.32,2.66s0.53,1.29,0.94,1.67
					s0.88,0.57,1.41,0.57c0.54,0,1.01-0.19,1.42-0.57s0.72-0.94,0.94-1.67s0.33-1.62,0.33-2.66c0-1.05-0.11-1.94-0.33-2.67
					s-0.53-1.29-0.93-1.67s-0.87-0.56-1.42-0.56C106.17,160.48,105.7,160.67,105.29,161.05z M117.13,166.4h-5.8v-2.4h5.8V166.4z
					 M118.82,177.68h-2.96v-21.41h2.96V177.68z"/>
				<path class="st35" d="M131.85,166.27h-6.55v4.76h-2.99v-7.08h6.61v-3.49h-6.66v-2.39h9.59V166.27z M128.67,170.33
					c1.38-0.08,2.8-0.23,4.28-0.44l0.23,2.44c-1.47,0.23-2.89,0.38-4.26,0.46c-1.37,0.08-3.01,0.12-4.93,0.12h-1.69v-2.45H124
					C125.74,170.45,127.3,170.41,128.67,170.33z M137.01,169.06h-4.09v-2.45h4.09V169.06z M137.08,163.24h-4.09v-2.43h4.09V163.24z
					 M139.53,177.68h-2.96v-21.41h2.96V177.68z"/>
				<path class="st35" d="M161.79,169.06h-19.5v-2.37h19.5V169.06z M156.08,157.24c1.16,0.37,2.06,0.88,2.7,1.55
					s0.96,1.45,0.96,2.34c0,0.88-0.32,1.65-0.96,2.31s-1.54,1.17-2.7,1.53s-2.51,0.54-4.05,0.54c-1.53,0-2.88-0.18-4.05-0.54
					s-2.08-0.87-2.72-1.53s-0.97-1.43-0.97-2.31c0-0.9,0.32-1.68,0.97-2.34s1.55-1.18,2.72-1.55s2.52-0.55,4.05-0.55
					C153.57,156.69,154.92,156.88,156.08,157.24z M147.62,175.48h-3.01v-4.62h3.01V175.48z M159.65,177.26h-15.04v-2.44h15.04
					V177.26z M149.63,159.3c-0.68,0.16-1.2,0.39-1.56,0.7s-0.54,0.69-0.54,1.14c0,0.42,0.18,0.78,0.54,1.08s0.88,0.52,1.56,0.68
					s1.47,0.23,2.4,0.23c0.93,0,1.73-0.08,2.4-0.23s1.19-0.38,1.55-0.68s0.54-0.66,0.54-1.08c0-0.45-0.18-0.83-0.54-1.14
					s-0.88-0.54-1.55-0.7s-1.47-0.23-2.4-0.23C151.11,159.06,150.31,159.14,149.63,159.3z M153.73,172.77h-3.04v-4.52h3.04V172.77z"
					/>
				<path class="st35" d="M188.1,175.13h-19.5v-2.45h19.5V175.13z M185.93,168.32h-15.27v-10.44h15.27V168.32z M173.62,165.98h9.38
					v-5.72h-9.38V165.98z M179.78,173.26h-2.94v-5.38h2.94V173.26z"/>
				<path class="st35" d="M208.83,169.22h-19.49v-2.39h19.49V169.22z M194.63,175.46h-2.94v-4.58h2.94V175.46z M206.8,177.23h-15.12
					v-2.4h15.12V177.23z M206.49,159.45h-11.81v4.12h-2.98v-6.5h14.79V159.45z M206.7,165.08h-15v-2.39h15V165.08z"/>
				<path class="st35" d="M222.25,166.21c-0.44,1.59-1.1,3-1.98,4.23s-1.98,2.16-3.28,2.8l-1.84-2.43c1.18-0.54,2.17-1.31,2.96-2.33
					s1.39-2.15,1.78-3.42s0.59-2.59,0.59-3.96v-3.19h2.43v3.19C222.9,162.92,222.69,164.62,222.25,166.21z M224.02,164.92
					c0.38,1.21,0.94,2.3,1.71,3.27s1.69,1.72,2.78,2.26l-1.8,2.38c-1.25-0.63-2.3-1.54-3.14-2.72s-1.47-2.54-1.88-4.07
					s-0.61-3.18-0.61-4.93v-3.19h2.38v3.19C223.46,162.44,223.64,163.71,224.02,164.92z M232.44,177.62h-3v-21.35h3V177.62z
					 M235.61,167.05h-3.82v-2.54h3.82V167.05z"/>
				<path class="st35" d="M246.92,163.84h-6.8v3.28h-2.99v-5.52H244v-1.86h-6.9v-2.39h9.82V163.84z M244.49,165.64
					c1.42-0.07,2.84-0.23,4.24-0.47l0.32,2.33c-1.44,0.27-2.9,0.46-4.38,0.56s-3.4,0.15-5.75,0.15h-1.79v-2.45h1.79
					C241.21,165.75,243.07,165.72,244.49,165.64z M253.28,177.39H239.3v-7.51h13.98V177.39z M242.25,174.99h8.1v-2.79h-8.1V174.99z
					 M253.28,168.98h-2.99v-12.66h2.99V168.98z M256.19,163.84h-3.8v-2.47h3.8V163.84z"/>
				<path class="st35" d="M276.6,166.97h-19.49v-2.34h19.49V166.97z M274.19,173.79H262.3v1.92h-2.94v-4.04h11.87v-1.2h-11.88v-2.25
					h14.84V173.79z M274.75,177.45h-15.39v-2.32h15.39V177.45z M274.12,159.1h-11.6v4h-2.99v-6.36h14.59V159.1z M274.27,163.44
					h-14.74v-2.36h14.74V163.44z"/>
				<path class="st35" d="M297.31,167.28h-19.45v-2.37h19.45V167.28z M291.76,157.02c1.16,0.28,2.04,0.69,2.64,1.23
					s0.91,1.2,0.91,1.97c0,0.78-0.3,1.45-0.91,2s-1.49,0.97-2.64,1.25s-2.55,0.42-4.2,0.42s-3.04-0.14-4.2-0.42s-2.05-0.7-2.66-1.25
					s-0.92-1.22-0.92-2c0-0.77,0.31-1.43,0.92-1.97s1.5-0.95,2.66-1.23s2.56-0.42,4.2-0.42S290.61,156.74,291.76,157.02z
					 M294.93,173.94h-11.88v1.92h-2.94v-4.01h11.87v-1.17h-11.88v-2.19h14.84V173.94z M295.49,177.47H280.1v-2.24h15.39V177.47z
					 M284.98,158.94c-0.69,0.11-1.2,0.27-1.54,0.49s-0.51,0.48-0.51,0.8c0,0.35,0.17,0.63,0.5,0.85s0.83,0.37,1.51,0.47
					s1.55,0.15,2.64,0.15c1.1,0,1.99-0.05,2.66-0.15s1.17-0.26,1.51-0.47s0.5-0.5,0.5-0.85c0-0.31-0.17-0.58-0.51-0.79
					s-0.85-0.38-1.54-0.49s-1.56-0.16-2.61-0.16C286.53,158.78,285.67,158.83,284.98,158.94z"/>
				<path class="st35" d="M311.39,167.38c2.29-0.1,4.45-0.3,6.47-0.61l0.19,2.19c-1.89,0.38-3.83,0.63-5.83,0.76
					s-4.22,0.21-6.69,0.24c-0.27,0.02-0.59,0.02-0.98,0.02l-0.38-2.45C306.69,167.53,309.09,167.48,311.39,167.38z M313.98,157.74
					c0.86,0.38,1.53,0.92,2.01,1.61s0.72,1.48,0.72,2.37c0,0.88-0.24,1.66-0.72,2.34s-1.15,1.22-2.01,1.61s-1.82,0.58-2.89,0.58
					c-1.08,0-2.04-0.19-2.89-0.58s-1.51-0.92-2-1.61s-0.73-1.47-0.73-2.34c0-0.89,0.24-1.68,0.73-2.37s1.15-1.22,2-1.61
					s1.81-0.57,2.89-0.56C312.16,157.17,313.12,157.35,313.98,157.74z M309.67,159.82c-0.41,0.17-0.72,0.41-0.96,0.73
					s-0.35,0.71-0.35,1.16c0,0.44,0.12,0.81,0.35,1.12s0.55,0.55,0.96,0.72s0.88,0.25,1.41,0.25c0.55,0,1.04-0.08,1.46-0.25
					s0.74-0.41,0.98-0.72s0.35-0.69,0.35-1.12c0-0.45-0.12-0.84-0.35-1.16s-0.56-0.56-0.97-0.73s-0.9-0.25-1.46-0.24
					C310.55,159.57,310.08,159.65,309.67,159.82z M312.72,177h-3v-8.61h3V177z M322.1,177.61h-2.98v-21.29h2.98V177.61z"/>
				<path class="st35" d="M337.53,160.9h-12.67v-2.36h12.67V160.9z M333.93,162.17c0.8,0.35,1.42,0.83,1.86,1.46
					s0.67,1.34,0.67,2.16c0,0.8-0.22,1.51-0.67,2.13s-1.07,1.09-1.86,1.44s-1.7,0.52-2.72,0.52c-1.03,0-1.95-0.17-2.75-0.52
					s-1.43-0.82-1.88-1.44s-0.67-1.32-0.67-2.13c0-0.81,0.22-1.53,0.67-2.16s1.07-1.11,1.88-1.46s1.72-0.52,2.75-0.52
					C332.23,161.65,333.13,161.82,333.93,162.17z M330.94,175.88h-2.99v-4.86h2.99V175.88z M342.55,177.26h-14.6v-2.41h14.6V177.26z
					 M329.95,164.16c-0.36,0.14-0.64,0.35-0.84,0.63s-0.29,0.61-0.29,1s0.1,0.71,0.29,0.98s0.47,0.47,0.84,0.62s0.78,0.21,1.26,0.21
					s0.9-0.07,1.26-0.21s0.65-0.35,0.85-0.62s0.3-0.6,0.3-0.98s-0.1-0.71-0.3-1s-0.49-0.49-0.85-0.63s-0.78-0.21-1.26-0.21
					S330.31,164.02,329.95,164.16z M332.7,159.71h-2.99v-3.42h2.99V159.71z M341.79,172.24h-2.99v-15.93h2.99V172.24z M344.67,165.3
					h-3.75v-2.45h3.75V165.3z"/>
				<path class="st35" d="M357.98,166.26c-0.43,1.6-1.09,3.02-1.97,4.25s-1.98,2.18-3.28,2.84l-1.88-2.45
					c1.17-0.53,2.16-1.3,2.96-2.32s1.4-2.16,1.79-3.45s0.59-2.62,0.59-4.02v-3.19h2.43v3.19
					C358.62,162.94,358.4,164.66,357.98,166.26z M359.79,165.07c0.38,1.24,0.95,2.34,1.72,3.3s1.73,1.7,2.88,2.2l-1.83,2.39
					c-1.28-0.63-2.35-1.54-3.21-2.71s-1.49-2.54-1.91-4.08s-0.63-3.23-0.63-5.05v-3.19h2.4v3.19
					C359.23,162.51,359.42,163.83,359.79,165.07z M367.69,165.41h-5.68v-2.4h5.68V165.41z M369.15,177.68h-2.96v-21.41h2.96V177.68z
					"/>
				<path class="st35" d="M375.95,163.19h4.61v-5.19h2.94v14.7h-10.54v-14.7h2.99V163.19z M380.56,170.25v-4.75h-4.61v4.75H380.56z
					 M389.76,177.68h-3.04v-21.41h3.04V177.68z"/>
				<path class="st35" d="M412.15,175.01h-19.5v-2.45h19.5V175.01z M402.21,163.44c-0.73,1.35-1.76,2.51-3.1,3.46
					s-2.91,1.62-4.71,1.97l-1.28-2.48c1.53-0.29,2.87-0.81,4.01-1.56s2.02-1.63,2.62-2.64s0.91-2.04,0.91-3.11v-1.52h2.62v1.52
					C403.3,160.64,402.94,162.09,402.21,163.44z M404.76,162.23c0.61,1.02,1.48,1.9,2.64,2.64s2.5,1.26,4.05,1.53l-1.31,2.48
					c-1.78-0.36-3.34-1.01-4.68-1.96s-2.37-2.09-3.09-3.45s-1.08-2.81-1.08-4.38v-1.52h2.57v1.52
					C403.85,160.17,404.16,161.21,404.76,162.23z"/>
			</g>
		</g>
		<g>
			<g>
				<g>
					<path class="st35" d="M69.63,69.27H33.36v-5.59h36.27V69.27z M65.89,56.55H36.91V36.61h28.98V56.55z M43.72,51.2h15.34v-9.13
						H43.72V51.2z M54.82,64.91h-6.79v-9.22h6.79V64.91z"/>
					<path class="st35" d="M72.08,60.53c4.67-0.03,8.99-0.13,12.97-0.3s7.75-0.49,11.33-0.95l0.49,4.92
						c-2.64,0.52-5.39,0.91-8.25,1.18c-2.87,0.27-5.56,0.44-8.08,0.52c-2.52,0.07-5.29,0.11-8.31,0.11l-0.75-5.48H72.08z
						 M89.82,37.68c1.7,0.87,3.05,2.06,4.03,3.59c0.98,1.53,1.47,3.24,1.47,5.15c0,1.91-0.49,3.62-1.47,5.15
						c-0.98,1.53-2.32,2.72-4.01,3.59c-1.69,0.87-3.6,1.3-5.71,1.3c-2.06,0-3.95-0.43-5.67-1.3c-1.72-0.87-3.08-2.06-4.07-3.59
						c-1-1.53-1.49-3.24-1.49-5.15c0-1.9,0.5-3.62,1.49-5.15c1-1.53,2.35-2.72,4.07-3.59c1.72-0.87,3.61-1.3,5.67-1.3
						C86.22,36.38,88.12,36.81,89.82,37.68z M81.9,42.77c-0.66,0.31-1.18,0.77-1.56,1.4c-0.38,0.62-0.57,1.37-0.57,2.25
						c0,0.9,0.19,1.66,0.57,2.27c0.38,0.61,0.9,1.07,1.56,1.38c0.66,0.31,1.4,0.46,2.23,0.46c0.86,0,1.63-0.15,2.31-0.46
						c0.68-0.31,1.21-0.77,1.6-1.38c0.39-0.61,0.58-1.36,0.58-2.27c0-0.87-0.19-1.62-0.58-2.25s-0.92-1.09-1.6-1.4
						c-0.68-0.31-1.45-0.46-2.31-0.46C83.3,42.31,82.55,42.46,81.9,42.77z M105.23,73.74h-6.85V33.86h6.85V73.74z"/>
					<path class="st35" d="M155.22,62.7h-36.27v-5.59h36.27V62.7z M151.12,40.7h-21.1v10.08h-6.75V35.35h27.84V40.7z M151.55,54.98
						h-28.27v-5.39h28.27V54.98z M150.34,47.79h-22.15v-5.22h22.15V47.79z M140.42,73.61h-6.83V59.22h6.83V73.61z"/>
					<path class="st35" d="M169.79,53.19c-0.76,2.97-1.97,5.61-3.63,7.91c-1.66,2.3-3.76,4.02-6.29,5.17l-3.97-5.41
						c2.29-1.06,4.14-2.5,5.55-4.31c1.41-1.81,2.43-3.8,3.07-5.97c0.64-2.17,0.96-4.42,0.96-6.76v-3.35h5.46v3.35
						C170.93,47.09,170.55,50.22,169.79,53.19z M179.84,43.17h-22.26v-5.59h22.26V43.17z M173.35,50.06
						c0.62,2.05,1.62,3.94,3.02,5.66c1.4,1.73,3.2,3.1,5.4,4.14l-3.78,5.37c-2.52-1.1-4.6-2.76-6.23-4.98
						c-1.63-2.22-2.84-4.74-3.61-7.56c-0.77-2.82-1.16-5.78-1.16-8.87v-3.35h5.44v3.35C172.43,45.93,172.74,48.02,173.35,50.06z
						 M188.69,73.61h-6.92V33.86h6.92V73.61z M194.09,54.21h-6.9V48.5h6.9V54.21z"/>
					<path class="st35" d="M231.32,69.53h-36.27v-5.59h36.27V69.53z M227.39,50.13h-21.53v5.99h-6.88v-11.3h21.59v-3.09h-21.63
						v-5.48h28.45V50.13z M228.33,58.87h-29.35v-5.56h29.35V58.87z M216.52,66.24h-6.79v-9.17h6.79V66.24z"/>
					<path class="st35" d="M261.42,46.64c-1.39,2.87-3.46,5.31-6.21,7.32c-2.75,2.01-6.17,3.55-10.25,4.64l-2.84-5.44
						c3.17-0.8,5.79-1.85,7.86-3.15c2.08-1.3,3.61-2.77,4.61-4.42c1-1.65,1.49-3.4,1.49-5.26v-3.54h7.41
						C263.5,40.48,262.81,43.77,261.42,46.64z M260,42.39h-16.07v-5.61H260V42.39z M254.97,70.13h-7V59.09h7V70.13z M275.45,73.07
						h-27.48v-5.5h27.48V73.07z M274.42,61.97h-7v-28.1h7V61.97z M279.38,50.04h-6.88v-5.63h6.88V50.04z"/>
					<path class="st35" d="M300.03,42.37h-11.19v11.45h-6.88V36.94h18.07V42.37z M296.12,50.67c2.41-0.16,4.7-0.47,6.88-0.92
						l0.71,5.46c-2.26,0.46-4.69,0.77-7.28,0.93c-2.59,0.17-6.25,0.25-10.96,0.25h-3.5V50.9h3.5
						C290.16,50.9,293.71,50.82,296.12,50.67z M293,70.47h-6.92V59.43H293V70.47z M313.6,73.07h-27.52v-5.5h27.52V73.07z
						 M312.44,62.63h-6.92V33.95h6.92V62.63z M317.45,49.76h-7v-5.65h7V49.76z"/>
					<path class="st35" d="M341.64,44.99H318.5v-5.46h23.14V44.99z M335.42,47.75c1.58,0.82,2.83,1.98,3.74,3.46
						c0.91,1.48,1.36,3.15,1.36,5s-0.46,3.51-1.36,5c-0.91,1.48-2.16,2.64-3.74,3.46c-1.58,0.82-3.36,1.24-5.34,1.24
						c-1.96,0-3.74-0.41-5.33-1.24c-1.59-0.82-2.83-1.98-3.73-3.46c-0.9-1.48-1.34-3.15-1.34-5s0.45-3.51,1.34-5
						c0.89-1.48,2.14-2.64,3.73-3.46c1.59-0.82,3.37-1.24,5.33-1.24C332.06,46.52,333.84,46.93,335.42,47.75z M328.13,52.56
						c-0.59,0.33-1.05,0.8-1.38,1.42c-0.33,0.62-0.49,1.36-0.49,2.23c0,0.87,0.16,1.63,0.49,2.26c0.33,0.63,0.79,1.1,1.38,1.42
						c0.59,0.32,1.25,0.47,1.98,0.47c0.76,0,1.42-0.16,1.99-0.47c0.57-0.31,1.01-0.79,1.32-1.42c0.31-0.63,0.47-1.38,0.47-2.26
						c0-0.87-0.16-1.62-0.47-2.23c-0.32-0.62-0.76-1.09-1.32-1.42c-0.57-0.33-1.23-0.49-1.99-0.49
						C329.37,52.06,328.71,52.23,328.13,52.56z M333.54,41.47h-6.88v-6.9h6.88V41.47z M350.39,73.61h-6.81V33.86h6.81V73.61z
						 M355.78,54.58h-6.9v-5.63h6.9V54.58z"/>
					<path class="st35" d="M372.93,49.53c-0.85,3.22-2.34,6.17-4.46,8.85c-2.12,2.68-5.04,5.07-8.74,7.18l-3.85-4.79
						c2.98-1.75,5.31-3.61,6.99-5.6c1.68-1.98,2.88-4.2,3.59-6.65s1.06-5.33,1.06-8.66V38.4h6.68
						C374.21,42.59,373.78,46.3,372.93,49.53z M369.59,43.88h-11.21V38.4h11.21V43.88z M377.5,54h-7.69v-5.41h7.69V54z
						 M382.87,72.04h-6.42V34.7h6.42V72.04z M391.38,73.61h-6.47V33.86h6.47V73.61z"/>
					<path class="st35" d="M69.58,114.81H33.36v-5.44h36.22V114.81z M51.71,100.07c-1.13,1.96-2.89,3.62-5.27,4.97
						s-5.41,2.25-9.08,2.67l-2.51-5.33c3.08-0.34,5.55-0.99,7.42-1.94c1.87-0.95,3.2-2.03,4-3.23s1.19-2.43,1.19-3.7v-0.9h5.95v0.9
						C53.41,95.92,52.84,98.11,51.71,100.07z M66.43,95.04H36.5v-5.28h29.93V95.04z M54.74,127.65h-6.83v-14.29h6.83V127.65z
						 M56.65,97.21c0.77,1.2,2.11,2.28,4,3.23c1.89,0.95,4.38,1.6,7.48,1.94l-2.47,5.33c-3.65-0.43-6.69-1.32-9.1-2.66
						c-2.41-1.35-4.2-3-5.35-4.97c-1.15-1.97-1.73-4.16-1.73-6.56v-0.9h6.02v0.9C55.49,94.78,55.88,96.01,56.65,97.21z"/>
					<path class="st35" d="M84.62,100.77c-0.8,2.26-2.07,4.23-3.79,5.91c-1.73,1.68-3.91,2.91-6.56,3.68l-3.39-5.37
						c2.25-0.67,4.06-1.62,5.45-2.84c1.38-1.22,2.36-2.57,2.93-4.05c0.57-1.48,0.86-3.03,0.86-4.65v-3.82h5.71v3.82
						C85.83,96.07,85.43,98.51,84.62,100.77z M104.86,127.61h-6.92v-9.15H77.23V113h27.63V127.61z M88.1,97.98
						c0.53,1.4,1.46,2.67,2.79,3.79c1.33,1.12,3.09,1.99,5.26,2.59l-3.37,5.44c-2.64-0.77-4.78-1.96-6.45-3.56
						c-1.66-1.6-2.88-3.48-3.64-5.65c-0.77-2.17-1.15-4.55-1.15-7.14v-3.82h5.76v3.82C87.31,95.07,87.57,96.58,88.1,97.98z
						 M104.86,111.48h-6.92V87.86h6.92V111.48z"/>
					<path class="st35" d="M145.64,108.62h-36.22v-5.41h36.22V108.62z M135.46,89.16c2.19,0.51,3.86,1.26,5,2.27
						c1.14,1,1.71,2.22,1.71,3.65c0,1.43-0.57,2.66-1.71,3.67s-2.8,1.78-5,2.3s-4.84,0.77-7.95,0.77c-3.14,0-5.8-0.26-8-0.77
						c-2.2-0.52-3.88-1.28-5.03-2.3c-1.15-1.02-1.73-2.24-1.73-3.67c0-1.43,0.58-2.65,1.73-3.65c1.15-1,2.83-1.76,5.03-2.27
						c2.2-0.51,4.87-0.76,8-0.76C130.61,88.4,133.26,88.66,135.46,89.16z M141.36,121.08h-21.18v2.79h-6.77v-7.5h21.12v-1.27h-21.08
						v-4.96h27.91V121.08z M142.29,127.46h-28.87v-5.09h28.87V127.46z M123.17,93.54c-1.1,0.12-1.91,0.3-2.41,0.56
						c-0.5,0.26-0.75,0.59-0.75,0.99c0,0.49,0.24,0.85,0.73,1.08c0.49,0.24,1.26,0.41,2.32,0.5c1.06,0.1,2.54,0.15,4.45,0.15
						c1.95,0,3.44-0.05,4.49-0.15c1.04-0.1,1.82-0.27,2.31-0.5s0.74-0.6,0.74-1.08c0-0.4-0.25-0.73-0.76-0.99
						c-0.51-0.26-1.31-0.44-2.41-0.56c-1.1-0.11-2.55-0.17-4.37-0.17C125.72,93.36,124.27,93.42,123.17,93.54z"/>
					<path class="st35" d="M170.82,106.29c-0.75,3.16-1.97,5.94-3.66,8.34c-1.7,2.4-3.96,4.21-6.78,5.45l-4.1-5.71
						c2.43-1,4.39-2.44,5.88-4.31s2.54-4.01,3.17-6.42c0.63-2.41,0.95-5.02,0.95-7.83V90.7h5.67v5.09
						C171.94,99.63,171.56,103.13,170.82,106.29z M174.22,103.18c0.61,2.29,1.62,4.34,3.05,6.13c1.42,1.8,3.3,3.17,5.62,4.11
						l-4,5.54c-2.69-1.17-4.87-2.91-6.53-5.21c-1.66-2.3-2.86-4.96-3.59-7.98c-0.73-3.02-1.1-6.35-1.1-9.99V90.7h5.63v5.09
						C173.31,98.43,173.61,100.89,174.22,103.18z M190.54,127.74h-7V87.86h7V127.74z"/>
					<path class="st35" d="M207.91,101.49c-0.78,2.31-2.01,4.31-3.7,6.02c-1.68,1.71-3.83,2.97-6.43,3.8l-3.63-5.31
						c2.21-0.69,4-1.67,5.38-2.94c1.38-1.27,2.37-2.68,2.98-4.22c0.6-1.54,0.9-3.13,0.9-4.76v-2.13h5.67v2.13
						C209.08,96.71,208.69,99.18,207.91,101.49z M217.72,95.38h-21.76v-5.46h21.76V95.38z M226.81,127.61h-6.92v-8.85h-20.28v-5.44
						h27.2V127.61z M211.3,98.64c0.56,1.44,1.5,2.75,2.83,3.94c1.32,1.19,3.06,2.13,5.21,2.81l-3.46,5.29
						c-2.55-0.8-4.64-2.03-6.28-3.7c-1.64-1.66-2.84-3.58-3.61-5.77c-0.77-2.18-1.15-4.54-1.15-7.08v-2.19h5.63v2.19
						C210.46,95.7,210.74,97.2,211.3,98.64z M226.81,111.86h-6.92v-24h6.92V111.86z M231.77,102.67h-6.92v-5.67h6.92V102.67z"/>
					<path class="st35" d="M256,98.99h-23.14v-5.46H256V98.99z M249.78,101.75c1.58,0.82,2.83,1.98,3.74,3.46
						c0.91,1.48,1.36,3.15,1.36,5s-0.46,3.51-1.36,5c-0.91,1.48-2.16,2.64-3.74,3.46c-1.58,0.82-3.36,1.24-5.34,1.24
						c-1.96,0-3.74-0.41-5.33-1.24c-1.59-0.82-2.83-1.98-3.73-3.46c-0.9-1.48-1.34-3.15-1.34-5s0.45-3.51,1.34-5
						c0.89-1.48,2.14-2.63,3.73-3.46c1.59-0.82,3.37-1.24,5.33-1.24C246.42,100.52,248.2,100.93,249.78,101.75z M242.49,106.56
						c-0.59,0.33-1.05,0.8-1.38,1.42c-0.33,0.62-0.49,1.36-0.49,2.23c0,0.87,0.16,1.63,0.49,2.26c0.33,0.63,0.79,1.1,1.38,1.42
						c0.59,0.32,1.25,0.47,1.98,0.47c0.76,0,1.42-0.16,1.99-0.47c0.57-0.31,1.01-0.79,1.32-1.42c0.31-0.63,0.47-1.38,0.47-2.26
						c0-0.87-0.16-1.62-0.47-2.23c-0.32-0.62-0.76-1.09-1.32-1.42c-0.57-0.33-1.23-0.49-1.99-0.49
						C243.74,106.06,243.08,106.23,242.49,106.56z M247.9,95.47h-6.88v-6.9h6.88V95.47z M264.75,127.61h-6.81V87.86h6.81V127.61z
						 M270.14,108.57h-6.9v-5.63h6.9V108.57z"/>
					<path class="st35" d="M282.13,106.82c-0.54,2.92-1.46,5.52-2.74,7.82c-1.28,2.3-2.98,4.1-5.1,5.4l-4.15-5.09
						c1.93-1.25,3.46-2.8,4.58-4.65c1.12-1.85,1.9-3.85,2.34-5.98c0.44-2.13,0.67-4.44,0.67-6.92v-6.29h5.22v6.29
						C282.95,100.77,282.67,103.91,282.13,106.82z M284.89,103.81c0.34,1.99,0.98,3.86,1.94,5.61c0.96,1.75,2.31,3.22,4.06,4.4
						l-3.7,5.29c-2.09-1.27-3.72-3.03-4.89-5.27c-1.17-2.24-1.97-4.73-2.41-7.48c-0.44-2.74-0.66-5.83-0.66-9.27v-5.97h5.13v5.97
						C284.39,99.57,284.55,101.82,284.89,103.81z M292.94,106.32h-6.1v-5.56h6.1V106.32z M297.36,125.91h-6.42v-37.6h6.42V125.91z
						 M305.74,127.61h-6.57V87.86h6.57V127.61z"/>
					<path class="st35" d="M345.4,123.27h-36.27v-5.59h36.27V123.27z M335,90.83c2.31,0.92,4.12,2.21,5.45,3.87
						c1.32,1.66,1.99,3.56,1.99,5.69c0,2.16-0.66,4.07-1.97,5.73s-3.12,2.93-5.42,3.82c-2.31,0.9-4.91,1.36-7.82,1.39
						c-2.91-0.03-5.51-0.49-7.81-1.39c-2.3-0.89-4.1-2.17-5.41-3.82s-1.97-3.56-1.97-5.73c0-2.13,0.66-4.03,1.97-5.69
						c1.31-1.66,3.12-2.95,5.44-3.87c2.31-0.92,4.91-1.38,7.79-1.38S332.7,89.91,335,90.83z M323.47,118.61h-6.83v-10.7h6.83V118.61
						z M322.75,95.47c-1.24,0.42-2.2,1.04-2.87,1.87c-0.67,0.83-1.01,1.85-1.01,3.05c0,1.19,0.34,2.21,1.01,3.05
						c0.67,0.85,1.64,1.49,2.89,1.93c1.25,0.44,2.74,0.67,4.46,0.67c1.68,0,3.14-0.22,4.39-0.67c1.25-0.44,2.22-1.09,2.91-1.93
						c0.69-0.84,1.03-1.86,1.03-3.05c0-1.2-0.34-2.22-1.01-3.04c-0.67-0.82-1.64-1.45-2.89-1.87c-1.25-0.42-2.73-0.63-4.44-0.63
						C325.48,94.85,323.98,95.05,322.75,95.47z M337.95,118.61h-6.96v-10.7h6.96V118.61z"/>
				</g>
			</g>
			<circle class="st36" cx="261.14" cy="19.07" r="4.13"/>
			<circle class="st36" cx="298.63" cy="19.07" r="4.13"/>
		</g>
	</g>
</g>
<g id="레이어_2">
</g>
</svg>
