<?xml version="1.0" encoding="utf-8"?>
<!-- Generator: Adobe Illustrator 27.8.1, SVG Export Plug-In . SVG Version: 6.00 Build 0)  -->
<svg version="1.1" xmlns="http://www.w3.org/2000/svg" xmlns:xlink="http://www.w3.org/1999/xlink" x="0px" y="0px"
	 viewBox="0 0 674.85 352.91" style="enable-background:new 0 0 674.85 352.91;" xml:space="preserve">
<style type="text/css">
	.st0{fill:url(#SVGID_1_);}
	.st1{fill:#CFE9FF;}
	.st2{display:none;}
	.st3{display:inline;fill:url(#SVGID_00000054241888013292961400000003358900901347758242_);}
	.st4{display:inline;opacity:0.34;fill:url(#SVGID_00000132801335091034578230000007263953666736547462_);}
	.st5{display:inline;opacity:0.55;fill:url(#SVGID_00000163055241383285724240000009387692596044008891_);}
	.st6{fill:#00CF9A;}
	.st7{fill:#FFFFFF;}
	.st8{fill:#76B2D3;}
	.st9{fill:#7CC4C2;}
	.st10{fill:url(#SVGID_00000047758623540648125460000005733119653561156241_);}
	.st11{fill:#C6F7E7;}
	.st12{fill:#499B97;}
	.st13{fill:#8CD3D0;}
	.st14{fill:#0B7B99;}
	.st15{opacity:0.3;}
	.st16{fill:#94B2FD;}
	.st17{fill:#49CBCE;}
	.st18{fill:#FFD600;}
	.st19{fill:#00213C;}
	.st20{opacity:0.3;fill:#94B2FD;}
	.st21{fill:#DEF6FF;}
	.st22{fill:#C8D6FD;}
	.st23{fill:#5CADEA;}
	.st24{fill:#F3645A;}
	.st25{fill:#2AF4D6;}
	.st26{fill:#7FC2DD;}
	.st27{fill:#F9FCFF;}
	.st28{fill:#C0EAFF;}
	.st29{fill:#101014;}
	.st30{fill:#22A08E;}
	.st31{fill:#00141E;}
	.st32{fill:#A4F7F7;}
	.st33{fill:#1E8487;}
	.st34{fill:url(#SVGID_00000088115711695302151560000004324205669825349804_);}
	.st35{font-family:'Arial-Black';}
	.st36{font-size:20.8585px;}
	.st37{fill:#2B2B2B;}
	.st38{fill:#3441E0;}
	.st39{fill:#249DA0;}
	.st40{opacity:0.27;}
	.st41{opacity:0.35;}
	.st42{opacity:0.53;}
	.st43{fill:#FF5757;}
	.st44{fill:#FFCA7D;}
	.st45{fill:#73D665;}
	.st46{fill:#6627FF;}
	.st47{fill:none;stroke:#FFFFFF;stroke-width:2.8592;stroke-miterlimit:10;stroke-dasharray:11.0214,11.0214;}
	.st48{opacity:0.47;}
	.st49{fill:none;}
	.st50{opacity:0.2;fill:#536862;}
	.st51{fill:#6300FF;}
</style>
<g id="레이어_1">
	<g class="st2">
		<radialGradient id="SVGID_1_" cx="-378.3615" cy="111.9531" r="397.7086" gradientUnits="userSpaceOnUse">
			<stop  offset="1.343419e-03" style="stop-color:#3856FF"/>
			<stop  offset="1" style="stop-color:#FFFFFF;stop-opacity:0"/>
		</radialGradient>
		<circle style="display:inline;opacity:0.55;fill:url(#SVGID_1_);" cx="-378.36" cy="111.95" r="397.71"/>
	</g>
	<g>
		<g>
			<path class="st6" d="M72.74,262.35H32.38c-2.42,0-4.8,1.96-5.31,4.38l-5.13,24.14c-0.51,2.42,1.03,4.38,3.45,4.38h40.36
				c2.42,0,4.8-1.96,5.31-4.38l5.13-24.14C76.7,264.32,75.16,262.35,72.74,262.35z"/>
			<g>
				<path class="st7" d="M28.61,285.64l15.12-12.47l2.49-2.05l0.16-0.13l0.08-0.06l0.05,0.06l0.2,0.26l0.4,0.51l0.81,1.03l2.95,3.75
					l1.97,2.5l0.7,0.89l0.35,0.44c0.02,0.07,0.07,0.01,0.12-0.03l0.13-0.11l0.27-0.22l10.52-8.67l-1.61-2.04l6.76,0l-1.44,6.76
					l-1.61-2.04l-13.13,10.82l-0.62,0.51l-0.31,0.26c-0.1,0.09-0.22,0.22-0.27,0.06l-0.81-1.03l-1.62-2.05l-2.66-3.38l-1.68-2.13
					l-0.35-0.44l-0.17-0.22c-0.06-0.07-0.11-0.19-0.21-0.06l-1.08,0.89l-13.41,11.06L28.61,285.64z"/>
			</g>
		</g>
		<g>
			<path class="st8" d="M673.91,321.8c-4.04,16.54-149.72,30.84-302.65,30.84S26.47,356.03,26.47,339
				c0-17.03,207.69-23.05,275.89-24.19C433.21,312.62,676.15,312.62,673.91,321.8z"/>
			<path class="st9" d="M570.89,65.94H236.53c-5.42,0-10.74,4.39-11.89,9.81l-51.98,244.56h353.98l51.98-244.56
				C579.77,70.33,576.31,65.94,570.89,65.94z"/>
			
				<linearGradient id="SVGID_00000026857033926570662800000006842827629106713252_" gradientUnits="userSpaceOnUse" x1="583.1673" y1="38.4904" x2="167.0342" y2="350.115">
				<stop  offset="0" style="stop-color:#FFFFFF"/>
				<stop  offset="1" style="stop-color:#CCF5EB"/>
			</linearGradient>
			<polygon style="fill:url(#SVGID_00000026857033926570662800000006842827629106713252_);" points="192.47,303.96 239.59,82.28 
				560.88,82.28 513.76,303.96 			"/>
			<path class="st11" d="M285.81,82.28h78.14L206.02,240.21l21.09-99.23L285.81,82.28z M445.74,82.28H420L198.32,303.96h25.74
				L445.74,82.28z M552.55,121.46l8.33-39.18h-47.37L291.83,303.96h78.23L552.55,121.46z M542.95,166.64l4.64-21.81L388.45,303.96
				h17.17L542.95,166.64z"/>
			<path class="st12" d="M33,342.86h485.46c4.51,0,8.17-3.66,8.17-8.17v-14.38H24.83v14.38C24.83,339.2,28.49,342.86,33,342.86z"/>
			<path class="st13" d="M377.97,334.69v-14.38H24.83v14.38c0,4.51,3.66,8.17,8.17,8.17H369.8
				C374.31,342.86,377.97,339.2,377.97,334.69z"/>
			<path class="st14" d="M217.51,323.52h-32.23c-1.77,0-3.21-1.44-3.21-3.21l0,0h38.64l0,0
				C220.72,322.08,219.28,323.52,217.51,323.52z"/>
			<rect x="394.64" y="329.09" class="st14" width="18.49" height="4.98"/>
			<rect x="421.12" y="329.09" class="st14" width="18.49" height="4.98"/>
		</g>
		<g class="st15">
			<path class="st16" d="M245.92,188.34h131.35c2.66,0,4.37,2.16,3.8,4.82L361,287.64c-0.57,2.66-3.19,4.82-5.85,4.82H223.79
				c-2.66,0-4.37-2.16-3.8-4.82l20.08-94.48C240.64,190.5,243.26,188.34,245.92,188.34z"/>
			<path class="st16" d="M257.4,134.37h131.35c2.66,0,4.37,2.16,3.8,4.82l-6.61,31.1c-0.57,2.66-3.19,4.82-5.85,4.82H248.74
				c-2.66,0-4.36-2.16-3.8-4.82l6.61-31.1C252.11,136.53,254.73,134.37,257.4,134.37z"/>
			<path class="st16" d="M453.39,251.18h-63.82c-2.66,0-4.35-2.15-3.79-4.81l5.45-25.65c0.56-2.66,3.18-4.81,5.83-4.81h63.82
				c2.66,0,4.35,2.15,3.79,4.81l-5.45,25.65C458.66,249.03,456.04,251.18,453.39,251.18z"/>
			<path class="st16" d="M486.88,93.78h-63.19c-2.83,0-5.61,2.29-6.21,5.12l-20.23,95.19c-0.6,2.83,1.2,5.12,4.04,5.12h63.19
				c2.83,0,5.61-2.29,6.21-5.12l20.23-95.19C491.52,96.07,489.71,93.78,486.88,93.78z"/>
		</g>
		<g>
			<path class="st17" d="M375.46,168.39H246.3c-2.71,0-4.44-2.2-3.86-4.9l7.76-36.53c0.58-2.71,3.24-4.9,5.95-4.9h129.16
				c2.71,0,4.44,2.2,3.86,4.9l-7.76,36.53C380.83,166.2,378.17,168.39,375.46,168.39z"/>
			<g>
				<path class="st7" d="M283.92,144.24c-1.72,8.11-9.7,14.69-17.81,14.69s-13.29-6.57-11.56-14.69c1.72-8.11,9.7-14.69,17.81-14.69
					C280.46,129.56,285.64,136.13,283.92,144.24z"/>
				<path class="st18" d="M355.32,136.65h-55.04c-1.34,0-2.2-1.09-1.92-2.43l0,0c0.29-1.34,1.61-2.43,2.95-2.43h55.04
					c1.34,0,2.2,1.09,1.92,2.43l0,0C357.99,135.56,356.67,136.65,355.32,136.65z"/>
				<path class="st18" d="M316.66,146.53h-18.48c-1.34,0-2.2-1.09-1.92-2.43l0,0c0.29-1.34,1.61-2.43,2.95-2.43h18.48
					c1.34,0,2.2,1.09,1.92,2.43l0,0C319.33,145.44,318.01,146.53,316.66,146.53z"/>
				<path class="st19" d="M307.13,158.2h-11.42c-1.34,0-2.2-1.09-1.92-2.43l0,0c0.29-1.34,1.61-2.43,2.95-2.43h11.42
					c1.34,0,2.2,1.09,1.92,2.43l0,0C309.79,157.11,308.47,158.2,307.13,158.2z"/>
				<path class="st18" d="M336.05,146.53h-7.74c-1.34,0-2.2-1.09-1.92-2.43l0,0c0.29-1.34,1.61-2.43,2.95-2.43h7.74
					c1.34,0,2.2,1.09,1.92,2.43l0,0C338.72,145.44,337.4,146.53,336.05,146.53z"/>
				<path class="st18" d="M373.62,146.53h-26.53c-1.34,0-2.2-1.09-1.92-2.43l0,0c0.29-1.34,1.61-2.43,2.95-2.43h26.53
					c1.34,0,2.2,1.09,1.92,2.43l0,0C376.28,145.44,374.96,146.53,373.62,146.53z"/>
				<path class="st18" d="M375.72,136.65h-9.55c-1.34,0-2.2-1.09-1.92-2.43l0,0c0.29-1.34,1.61-2.43,2.95-2.43h9.55
					c1.34,0,2.2,1.09,1.92,2.43l0,0C378.38,135.56,377.06,136.65,375.72,136.65z"/>
			</g>
		</g>
		<g>
			<path class="st20" d="M198.46,237.37c2.05,0,4.06-1.66,4.5-3.71l20.35-95.72c0.44-2.05-0.87-3.71-2.92-3.71h-8.18l-21.92,103.14
				H198.46z"/>
			<g>
				<path class="st21" d="M194.79,234.78H13.51c-2.05,0-3.36-1.66-2.92-3.71l20.35-95.72c0.44-2.05,2.45-3.71,4.5-3.71h181.28
					c2.05,0,3.36,1.66,2.92,3.71l-20.35,95.72C198.85,233.11,196.83,234.78,194.79,234.78z"/>
			</g>
			<g>
				
					<rect x="20.29" y="221.22" transform="matrix(0.207 -0.9783 0.9783 0.207 -198.5002 198.3504)" class="st22" width="5.63" height="0.81"/>
			</g>
			<g>
				
					<rect x="22.89" y="208.65" transform="matrix(0.207 -0.9783 0.9783 0.207 -184.0881 190.999)" class="st22" width="5.77" height="0.81"/>
			</g>
			<g>
				
					<rect x="26.89" y="195.61" transform="matrix(0.2069 -0.9784 0.9784 0.2069 -161.74 192.5042)" class="st22" width="21.95" height="0.81"/>
			</g>
			<g>
				
					<rect x="40.64" y="214.04" transform="matrix(0.207 -0.9783 0.9783 0.207 -175.4932 212.3768)" class="st22" width="5.25" height="0.81"/>
			</g>
			<g>
				
					<rect x="82.92" y="189.63" transform="matrix(0.207 -0.9783 0.9783 0.207 -117.9501 234.5484)" class="st22" width="5.58" height="0.81"/>
			</g>
			<g>
				
					<rect x="116.22" y="156.66" transform="matrix(0.207 -0.9783 0.9783 0.207 -57.9823 242.6025)" class="st22" width="8.9" height="0.81"/>
			</g>
			<g>
				<polygon class="st23" points="25.06,218.74 22.38,218.74 23.84,211.88 26.52,211.88 				"/>
			</g>
			<g>
				<polygon class="st23" points="34.74,217.01 32.06,217.01 34.25,206.75 36.92,206.75 				"/>
			</g>
			<g>
				<polygon class="st23" points="185.6,208.46 182.92,208.46 185.1,198.19 187.78,198.19 				"/>
			</g>
			<g>
				<polygon class="st23" points="45.15,211.88 42.47,211.88 48.12,185.28 50.8,185.28 				"/>
			</g>
			<g>
				<polygon class="st23" points="193.08,217.12 190.4,217.12 198.44,179.27 201.12,179.27 				"/>
			</g>
			<g>
				<polygon class="st24" points="122.97,196.34 120.29,196.34 125.95,169.74 128.63,169.74 				"/>
			</g>
			<g>
				<polygon class="st23" points="59.6,187.7 56.93,187.7 57.95,182.86 60.63,182.86 				"/>
			</g>
			<g>
				<polygon class="st24" points="146.87,215.39 144.19,215.39 145.22,210.55 147.9,210.55 				"/>
			</g>
			<g>
				<polygon class="st23" points="103.06,158.56 100.38,158.56 101.41,153.72 104.09,153.72 				"/>
			</g>
			<g>
				<polygon class="st24" points="110.64,166.7 107.96,166.7 110.21,156.14 112.89,156.14 				"/>
			</g>
			<g>
				<polygon class="st23" points="77.17,192.68 74.5,192.68 78.96,171.7 81.63,171.7 				"/>
			</g>
			<g>
				<polygon class="st23" points="154.98,221.04 152.3,221.04 156.76,200.06 159.44,200.06 				"/>
			</g>
			<g>
				<polygon class="st23" points="87.64,187.26 84.96,187.26 91.58,156.14 94.26,156.14 				"/>
			</g>
			<g>
				<polygon class="st24" points="131.77,198.76 129.09,198.76 130.12,193.92 132.8,193.92 				"/>
			</g>
			<g>
				<polygon class="st23" points="168.24,202.48 165.56,202.48 166.59,197.64 169.27,197.64 				"/>
			</g>
			<g>
				<polygon class="st24" points="138.07,212.97 135.39,212.97 138.92,196.34 141.6,196.34 				"/>
			</g>
			<g>
				<polygon class="st24" points="117.54,178.05 114.87,178.05 118.4,161.42 121.08,161.42 				"/>
			</g>
			<g>
				<path class="st22" d="M70.06,184.29h-3.51l0.53-2.5h3.51L70.06,184.29z M67.55,183.48h1.85l0.19-0.88h-1.85L67.55,183.48z"/>
			</g>
			<g>
				<polygon class="st24" points="177.38,203.33 174.7,203.33 175.06,201.63 177.74,201.63 				"/>
			</g>
			<g>
				
					<rect x="47.38" y="182.33" transform="matrix(0.207 -0.9783 0.9783 0.207 -139.1209 193.8235)" class="st22" width="5.25" height="0.81"/>
			</g>
			<g>
				
					<rect x="43.33" y="199.38" transform="matrix(0.207 -0.9783 0.9783 0.207 -151.2961 212.915)" class="st22" width="24.72" height="0.81"/>
			</g>
			<g>
				
					<rect x="58.28" y="181.04" transform="matrix(0.207 -0.9783 0.9783 0.207 -130.2632 202.1862)" class="st22" width="2.62" height="0.81"/>
			</g>
			<g>
				
					<rect x="64.5" y="176.54" transform="matrix(0.207 -0.9783 0.9783 0.207 -117.7108 208.6641)" class="st22" width="10.73" height="0.81"/>
			</g>
			<g>
				<line class="st6" x1="68.39" y1="183.88" x2="66.52" y2="192.68"/>
			</g>
			<g>
				
					<rect x="74" y="163.51" transform="matrix(0.207 -0.9783 0.9783 0.207 -95.3862 210.1576)" class="st22" width="15.91" height="0.81"/>
			</g>
			<g>
				
					<rect x="66.21" y="200.14" transform="matrix(0.207 -0.9783 0.9783 0.207 -137.3889 231.583)" class="st22" width="15.91" height="0.81"/>
			</g>
			<g>
				
					<rect x="26.79" y="222.02" transform="matrix(0.207 -0.9783 0.9783 0.207 -192.0332 207.9325)" class="st22" width="10.93" height="0.81"/>
			</g>
			<g>
				
					<rect x="90.72" y="152.93" transform="matrix(0.207 -0.9783 0.9783 0.207 -75.866 213.0815)" class="st22" width="5.58" height="0.81"/>
			</g>
			<g>
				
					<rect x="98.41" y="160.83" transform="matrix(0.2071 -0.9783 0.9783 0.2071 -77.5404 226.8114)" class="st22" width="5.48" height="0.81"/>
			</g>
			<g>
				
					<rect x="100.61" y="150.49" transform="matrix(0.2071 -0.9783 0.9783 0.2071 -65.6758 220.7597)" class="st22" width="5.48" height="0.81"/>
			</g>
			<g>
				
					<rect x="106.53" y="149.54" transform="matrix(0.207 -0.9783 0.9783 0.207 -57.1968 229.3206)" class="st22" width="12.67" height="0.81"/>
			</g>
			<g>
				
					<rect x="101.67" y="172.41" transform="matrix(0.2069 -0.9784 0.9784 0.2069 -83.4232 242.7203)" class="st22" width="12.67" height="0.81"/>
			</g>
			<g>
				<polygon class="st22" points="114.73,186.96 113.93,186.8 115.78,178.09 116.58,178.26 				"/>
			</g>
			<g>
				
					<rect x="123.92" y="165.17" transform="matrix(0.2069 -0.9784 0.9784 0.2069 -60.343 256.7162)" class="st22" width="8.5" height="0.81"/>
			</g>
			<g>
				
					<rect x="120.16" y="197.16" transform="matrix(0.2071 -0.9783 0.9783 0.2071 -97.0482 275.4043)" class="st22" width="2.43" height="0.81"/>
			</g>
			<g>
				
					<rect x="126.41" y="187.28" transform="matrix(0.207 -0.9783 0.9783 0.207 -78.322 278.7397)" class="st22" width="12.75" height="0.81"/>
			</g>
			<g>
				
					<rect x="126.79" y="201.3" transform="matrix(0.207 -0.9783 0.9783 0.207 -94.4021 286.942)" class="st22" width="6.03" height="0.81"/>
			</g>
			<g>
				
					<rect x="139.26" y="194.75" transform="matrix(0.2071 -0.9783 0.9783 0.2071 -79.5018 292.2156)" class="st22" width="2.52" height="0.81"/>
			</g>
			<g>
				
					<rect x="135.19" y="213.88" transform="matrix(0.207 -0.9783 0.9783 0.207 -101.4488 303.4171)" class="st22" width="2.52" height="0.81"/>
			</g>
			<g>
				
					<rect x="144.26" y="207.3" transform="matrix(0.207 -0.9783 0.9783 0.207 -86.514 308.6804)" class="st22" width="5.81" height="0.81"/>
			</g>
			<g>
				
					<rect x="142.09" y="217.88" transform="matrix(0.2071 -0.9783 0.9783 0.2071 -98.6428 314.8598)" class="st22" width="5.64" height="0.81"/>
			</g>
			<g>
				
					<rect x="152.17" y="222.06" transform="matrix(0.207 -0.9783 0.9783 0.207 -96.0547 326.4283)" class="st22" width="2.33" height="0.81"/>
			</g>
			<g>
				
					<rect x="157.12" y="198.44" transform="matrix(0.2069 -0.9784 0.9784 0.2069 -68.9545 312.6389)" class="st22" width="2.47" height="0.81"/>
			</g>
			<g>
				
					<rect x="166.28" y="195.2" transform="matrix(0.2071 -0.9783 0.9783 0.2071 -57.8588 319.8181)" class="st22" width="4.17" height="0.81"/>
			</g>
			<g>
				
					<rect x="164.4" y="204.02" transform="matrix(0.207 -0.9783 0.9783 0.207 -67.9774 324.9874)" class="st22" width="4.17" height="0.81"/>
			</g>
			<g>
				
					<rect x="174.78" y="199.23" transform="matrix(0.207 -0.9783 0.9783 0.207 -55.0968 331.2979)" class="st22" width="4.08" height="0.81"/>
			</g>
			<g>
				
					<rect x="173.56" y="204.98" transform="matrix(0.2069 -0.9784 0.9784 0.2069 -61.677 334.6912)" class="st22" width="4.08" height="0.81"/>
			</g>
			<g>
				
					<rect x="178.78" y="188.33" transform="matrix(0.207 -0.9783 0.9783 0.207 -35.203 334.0312)" class="st22" width="19.35" height="0.81"/>
			</g>
			<g>
				
					<rect x="178.91" y="212.38" transform="matrix(0.207 -0.9783 0.9783 0.207 -62.7927 348.1046)" class="st22" width="8.86" height="0.81"/>
			</g>
			<g>
				
					<rect x="189.44" y="218.57" transform="matrix(0.207 -0.9783 0.9783 0.207 -62.5029 360.8377)" class="st22" width="3.8" height="0.81"/>
			</g>
			<g>
				
					<rect x="198.3" y="176.92" transform="matrix(0.207 -0.9783 0.9783 0.207 -14.7375 336.4728)" class="st22" width="3.8" height="0.81"/>
			</g>
		</g>
		<g>
			<path class="st20" d="M561.74,112.85c-27.05,0.1-53.84,22.56-59.3,48.9c-5.6,27.01,11.5,48.9,38.51,48.9
				c3.07,0,6.14-0.3,9.17-0.84l20.44-96.15C567.76,113.13,564.82,112.84,561.74,112.85z"/>
			<path class="st25" d="M500.22,154.98c-5.6,27.01,11.5,48.9,38.51,48.9c27.01,0,53.56-21.89,59.3-48.9
				c5.74-27.01-11.48-49-38.51-48.9C532.47,106.17,505.68,128.64,500.22,154.98z"/>
			<path class="st18" d="M599.07,146.68l-49.95,8.3l41.93-34.58C596.56,127.39,599.49,136.5,599.07,146.68z"/>
			<path class="st26" d="M549.12,154.98l-27.23-34.58c10.73-8.85,24.12-14.32,37.62-14.32c13.5,0,24.57,5.47,31.54,14.32
				L549.12,154.98z"/>
		</g>
		<g>
			<path class="st27" d="M449.97,246.91H386.8c-2.71,0-4.44-2.2-3.86-4.91l6.27-29.52c0.58-2.71,3.24-4.91,5.95-4.91h63.17
				c2.71,0,4.44,2.2,3.86,4.91L455.92,242C455.34,244.71,452.68,246.91,449.97,246.91z"/>
			<text transform="matrix(0.9782 0 -0.2079 0.9782 397.8858 233.3887)" class="st33 st35 st36">BUY</text>
		</g>
		<g>
			<path class="st20" d="M72.74,262.35H58.18l-0.65,3.06c-0.58,2.71,1.15,4.91,3.86,4.91h14.03l0.76-3.59
				C76.7,264.32,75.16,262.35,72.74,262.35z"/>
			<path class="st28" d="M120.92,266.68H57.75c-2.71,0-4.44-2.2-3.86-4.91l6.27-29.52c0.58-2.71,3.24-4.91,5.95-4.91h63.17
				c2.71,0,4.44,2.2,3.86,4.91l-6.27,29.52C126.29,264.48,123.63,266.68,120.92,266.68z"/>
			<g>
				<text transform="matrix(0.9782 0 -0.2079 0.9782 65.3525 253.159)" class="st33 st35 st36">SELL</text>
			</g>
		</g>
		<g>
			<path class="st20" d="M236.53,65.94c-5.42,0-10.74,4.39-11.89,9.81l-7.58,35.68h131.89c2.71,0,5.37-2.2,5.95-4.91l8.63-40.58
				H236.53z"/>
			<path class="st7" d="M346.59,107.4H202.75c-2.71,0-4.44-2.2-3.86-4.91l12.65-59.53H365.2l-12.65,59.53
				C351.97,105.2,349.3,107.4,346.59,107.4z"/>
			<path class="st29" d="M363.22,35.14H216.84c-2.01,0-3.99,1.63-4.41,3.64l-0.89,4.18H365.2l0.89-4.18
				C366.51,36.77,365.23,35.14,363.22,35.14z"/>
			<polygon class="st28" points="287.85,99.1 208.86,99.1 218.83,52.22 297.82,52.22 			"/>
			<path class="st24" d="M219.66,38.91c-0.15,0.68-0.82,1.24-1.5,1.24c-0.68,0-1.12-0.56-0.98-1.24s0.82-1.24,1.5-1.24
				C219.36,37.67,219.8,38.22,219.66,38.91z"/>
			<path class="st6" d="M225.06,38.91c-0.15,0.68-0.82,1.24-1.5,1.24c-0.68,0-1.12-0.56-0.98-1.24c0.15-0.68,0.82-1.24,1.5-1.24
				C224.77,37.67,225.2,38.22,225.06,38.91z"/>
			<path class="st18" d="M230.46,38.91c-0.15,0.68-0.82,1.24-1.5,1.24c-0.68,0-1.12-0.56-0.98-1.24c0.15-0.68,0.82-1.24,1.5-1.24
				S230.6,38.22,230.46,38.91z"/>
			<g>
				<path class="st28" d="M316.05,57.1c-0.56,2.64-3.16,4.78-5.79,4.78c-2.64,0-4.32-2.14-3.76-4.78c0.56-2.64,3.16-4.78,5.79-4.78
					S316.61,54.46,316.05,57.1z"/>
				<path class="st28" d="M353.04,55.78h-31.52c-0.57,0-0.93-0.46-0.81-1.02l0.03-0.16c0.12-0.57,0.68-1.02,1.24-1.02h31.51
					c0.57,0,0.93,0.46,0.81,1.02l-0.03,0.16C354.16,55.33,353.6,55.78,353.04,55.78z"/>
				<path class="st28" d="M337.02,61.29h-16.67c-0.57,0-0.93-0.46-0.81-1.02l0.03-0.16c0.12-0.57,0.68-1.02,1.24-1.02h16.67
					c0.57,0,0.93,0.46,0.81,1.02l-0.03,0.16C338.14,60.83,337.59,61.29,337.02,61.29z"/>
				<path class="st28" d="M344.53,61.29h-3.15c-0.61,0-1-0.49-0.87-1.1l0,0c0.13-0.61,0.73-1.1,1.34-1.1H345c0.61,0,1,0.49,0.87,1.1
					l0,0C345.74,60.8,345.14,61.29,344.53,61.29z"/>
			</g>
			<g>
				<path class="st28" d="M312.5,73.82c-0.56,2.64-3.16,4.78-5.79,4.78c-2.64,0-4.32-2.14-3.76-4.78c0.56-2.64,3.16-4.78,5.79-4.78
					S313.06,71.18,312.5,73.82z"/>
				<path class="st28" d="M349.48,72.51h-31.52c-0.57,0-0.93-0.46-0.81-1.02l0.03-0.16c0.12-0.57,0.68-1.02,1.24-1.02h31.51
					c0.57,0,0.93,0.46,0.81,1.02l-0.03,0.16C350.6,72.05,350.05,72.51,349.48,72.51z"/>
				<path class="st28" d="M333.47,78.02H316.8c-0.57,0-0.93-0.46-0.81-1.02l0.03-0.16c0.12-0.57,0.68-1.02,1.24-1.02h16.67
					c0.57,0,0.93,0.46,0.81,1.02l-0.03,0.16C334.59,77.56,334.03,78.02,333.47,78.02z"/>
				<path class="st28" d="M340.97,78.02h-3.15c-0.61,0-1-0.49-0.87-1.1l0,0c0.13-0.61,0.73-1.1,1.34-1.1h3.15
					c0.61,0,1,0.49,0.87,1.1l0,0C342.18,77.52,341.58,78.02,340.97,78.02z"/>
			</g>
			<g>
				<path class="st28" d="M308.94,90.55c-0.56,2.64-3.16,4.78-5.79,4.78c-2.64,0-4.32-2.14-3.76-4.78c0.56-2.64,3.16-4.78,5.79-4.78
					C307.82,85.77,309.5,87.91,308.94,90.55z"/>
				<path class="st28" d="M345.93,89.24h-31.51c-0.57,0-0.93-0.46-0.81-1.02l0.03-0.16c0.12-0.57,0.68-1.02,1.24-1.02h31.52
					c0.57,0,0.93,0.46,0.81,1.02l-0.03,0.16C347.05,88.78,346.49,89.24,345.93,89.24z"/>
				<path class="st28" d="M329.91,94.75h-16.67c-0.57,0-0.93-0.46-0.81-1.02l0.03-0.16c0.12-0.57,0.68-1.02,1.24-1.02h16.67
					c0.57,0,0.93,0.46,0.81,1.02l-0.03,0.16C331.03,94.29,330.48,94.75,329.91,94.75z"/>
				<path class="st28" d="M337.42,94.75h-3.15c-0.61,0-1-0.49-0.87-1.1l0,0c0.13-0.61,0.73-1.1,1.34-1.1h3.15
					c0.61,0,1,0.49,0.87,1.1l0,0C338.63,94.25,338.03,94.75,337.42,94.75z"/>
			</g>
		</g>
		<path class="st27" d="M372.34,209.54c0-0.12-0.02-0.23-0.03-0.35c-0.01-0.13-0.01-0.26-0.04-0.38c-0.03-0.14-0.08-0.27-0.13-0.41
			c-0.03-0.09-0.05-0.18-0.09-0.27c-0.2-0.43-0.49-0.81-0.86-1.09c-0.08-0.06-0.17-0.1-0.25-0.15c-0.11-0.07-0.22-0.15-0.35-0.21
			c-0.12-0.05-0.24-0.08-0.37-0.12c-0.11-0.03-0.21-0.08-0.32-0.1c-0.24-0.05-0.5-0.08-0.75-0.08h-17.72
			c-2.18,0-4.31,1.76-4.77,3.94c-0.46,2.18,0.93,3.94,3.1,3.94h8.21l-29.91,24.67l-5.45-6.92c-1.21-1.54-3.71-1.54-5.57,0
			l-15.94,13.15l-5.45-6.92c-1.21-1.54-3.7-1.54-5.57,0l-16.9,13.94l-5.45-6.92c-1.21-1.54-3.71-1.54-5.57,0l-31.6,26.06
			c-1.87,1.54-2.4,4.03-1.18,5.57c0.6,0.77,1.53,1.15,2.54,1.15c1.01,0,2.1-0.38,3.03-1.15l28.22-23.27l5.45,6.92
			c1.21,1.54,3.78,1.47,5.65-0.07l16.82-13.87l5.45,6.92c1.21,1.54,3.79,1.47,5.65-0.07l15.86-13.08l5.45,6.92
			c1.21,1.54,3.79,1.47,5.65-0.07l33.2-27.38l-1.75,8.21c-0.46,2.18,0.93,3.94,3.1,3.94c2.18,0,4.31-1.76,4.77-3.94l3.77-17.72
			C372.31,210.05,372.34,209.8,372.34,209.54z"/>
		<g>
			<path class="st27" d="M442.8,152.09l-1.99,9.35c16.48,0,32.68-13.36,36.18-29.84h-9.35C465.23,142.91,454.11,152.09,442.8,152.09
				z"/>
			<path class="st30" d="M451.51,111.12c11.31,0,18.53,9.17,16.13,20.48v0h9.35v0c3.5-16.48-7.02-29.84-23.49-29.84
				c-8.24,0-16.41,3.34-22.96,8.74l5.21,6.61C440.24,113.41,445.85,111.12,451.51,111.12z"/>
			<path class="st31" d="M440.81,161.44L440.81,161.44l1.99-9.35h0c-11.31,0-18.53-9.17-16.13-20.48c1.2-5.66,4.58-10.78,9.08-14.48
				l-5.21-6.61c-6.55,5.4-11.47,12.86-13.22,21.1C413.81,148.08,424.33,161.44,440.81,161.44z"/>
		</g>
		<path class="st32" d="M445.28,6.62h-56.24c-2.54,0-5.04,2.06-5.58,4.6l-6.1,28.7c-0.54,2.54,1.08,4.6,3.62,4.6h56.24
			c2.54,0,5.04-2.06,5.58-4.6l6.1-28.7C449.45,8.68,447.82,6.62,445.28,6.62z M401.13,10.3c0.75,0,1.23,0.61,1.07,1.36
			c-0.16,0.75-0.9,1.37-1.66,1.37c-0.75,0-1.24-0.61-1.07-1.37C399.63,10.91,400.38,10.3,401.13,10.3z M395.83,10.3
			c0.75,0,1.24,0.61,1.07,1.36c-0.16,0.75-0.9,1.37-1.66,1.37c-0.75,0-1.24-0.61-1.08-1.37C394.33,10.91,395.07,10.3,395.83,10.3z
			 M390.53,10.3c0.75,0,1.24,0.61,1.07,1.36c-0.16,0.75-0.9,1.37-1.66,1.37c-0.75,0-1.24-0.61-1.07-1.37
			C389.03,10.91,389.77,10.3,390.53,10.3z M394.31,36.56h-9.03c-0.94,0-1.54-0.76-1.34-1.7c0.2-0.94,1.12-1.7,2.06-1.7h9.03
			c0.94,0,1.54,0.76,1.34,1.7C396.17,35.8,395.25,36.56,394.31,36.56z M409.97,36.56h-7.96c-0.94,0-1.54-0.76-1.34-1.7
			c0.2-0.94,1.12-1.7,2.06-1.7h7.96c0.94,0,1.54,0.76,1.34,1.7C411.83,35.8,410.91,36.56,409.97,36.56z M418.62,29.4H386.8
			c-0.94,0-1.54-0.76-1.34-1.7c0.2-0.94,1.12-1.7,2.06-1.7h31.82c0.94,0,1.54,0.76,1.34,1.7C420.48,28.64,419.56,29.4,418.62,29.4z
			 M386.98,20.54c0.2-0.94,1.12-1.7,2.06-1.7h17.14c0.94,0,1.54,0.76,1.34,1.7c-0.2,0.94-1.12,1.7-2.06,1.7h-17.14
			C387.38,22.24,386.79,21.48,386.98,20.54z M437.84,29.4h-11.79c-0.94,0-1.54-0.76-1.34-1.7c0.2-0.94,1.12-1.7,2.06-1.7h11.79
			c0.94,0,1.54,0.76,1.34,1.7C439.7,28.64,438.78,29.4,437.84,29.4z"/>
		<g>
			<path class="st20" d="M457.78,65.94c4.28,4.88,11.1,7.9,19.44,7.9c8.34,0,16.61-3.02,23.21-7.9H457.78z"/>
			
				<ellipse transform="matrix(0.7435 -0.6687 0.6687 0.7435 98.3224 333.5795)" class="st25" cx="484.04" cy="38.61" rx="36.64" ry="29.64"/>
			<g>
				<path class="st7" d="M478.38,56.29l0.43-2.03c-1.97-0.29-3.63-0.98-4.94-2.08c-1.31-1.1-2.16-2.37-2.51-3.81
					c-0.13-0.44-0.13-0.88-0.04-1.3c0.05-0.24,0.16-0.51,0.29-0.78c0.28-0.51,0.76-0.93,1.42-1.27c0.44-0.22,0.82-0.32,1.14-0.32
					c0.71,0,1.36,0.49,1.94,1.47c0.91,2.18,2.92,3.37,5.83,3.37c1.47,0,3.02-0.39,4.26-1.17c1.32-0.78,2.27-1.93,2.56-3.32
					c0.29-1.34-0.13-2.37-1.23-3.08c-0.75-0.49-1.64-0.78-3.06-1.15l-0.6-0.17c-3.12-0.61-5.38-1.61-6.8-2.96
					c-1.69-1.59-2.26-3.62-1.74-6.09c0.48-2.27,1.82-4.3,3.7-5.89c1.79-1.54,4.11-2.57,6.47-2.96l0.39-1.83
					c0.12-0.56,0.45-1.08,0.95-1.49c0.47-0.39,1-0.59,1.62-0.59c0.56,0,0.99,0.19,1.29,0.59c0.3,0.42,0.39,0.93,0.27,1.49
					l-0.39,1.83c3.05,0.49,5.31,2.03,6.25,4.4c0.11,0.29,0.14,0.61,0.07,0.93c-0.03,0.12-0.08,0.27-0.15,0.46
					c-0.22,0.44-0.52,0.83-0.9,1.15c-0.44,0.37-1.1,0.59-1.71,0.59c-0.59,0-1.04-0.15-1.35-0.44c-0.82-0.88-1.54-1.49-2.18-1.81
					c-0.82-0.39-1.85-0.59-3.1-0.59c-1.47,0-2.92,0.39-4.05,1.1c-1.2,0.71-2.01,1.76-2.28,3.01c-0.3,1.39,0.27,2.3,1.49,2.98
					c1.03,0.56,2.32,0.93,4.66,1.44c2.47,0.68,4.41,1.54,5.71,2.81c1.56,1.52,2.09,3.52,1.56,5.99c-0.5,2.37-1.87,4.55-3.79,6.21
					c-1.92,1.69-4.36,2.81-6.92,3.23l-0.44,2.08c-0.25,1.17-1.32,2.08-2.47,2.08C478.87,58.37,478.13,57.47,478.38,56.29z"/>
			</g>
		</g>
		<g>
			<path class="st20" d="M540.74,253.95h-30.39c-1.63,0-3.22,1.32-3.57,2.94l-6.1,28.72c-0.35,1.62,0.69,2.94,2.32,2.94h30.39
				L540.74,253.95z"/>
			<path class="st17" d="M499.75,283.55h51.28c1.62,0,3.22-1.32,3.57-2.94l6.1-28.72c0.35-1.63-0.69-2.94-2.32-2.94h-51.28
				c-1.63,0-3.22,1.32-3.57,2.94l-6.11,28.72C497.09,282.23,498.13,283.55,499.75,283.55z"/>
			<g>
				<path class="st33" d="M527.6,273.17l-16.47-11.64c-0.9-0.64-0.94-2-0.08-3.04c0.86-1.04,2.29-1.36,3.19-0.73l14.46,10.22
					l18.8-10.22c1.17-0.64,2.46-0.31,2.88,0.73c0.42,1.04-0.2,2.4-1.37,3.04L527.6,273.17z"/>
			</g>
		</g>
		<g>
			<path class="st17" d="M583.64,314.39c-0.09,0.44-0.52,0.79-0.96,0.79H541.8c-0.44,0-0.71-0.35-0.62-0.79
				c0.09-0.44,0.52-0.79,0.96-0.79h40.89C583.46,313.6,583.74,313.96,583.64,314.39z M584.31,307.54h-40.89
				c-0.44,0-0.86,0.35-0.96,0.79c-0.09,0.44,0.19,0.79,0.62,0.79h40.89c0.44,0,0.86-0.35,0.96-0.79
				C585.03,307.89,584.75,307.54,584.31,307.54z M585.6,301.47h-40.89c-0.44,0-0.86,0.35-0.96,0.79c-0.09,0.44,0.19,0.79,0.62,0.79
				h40.89c0.44,0,0.86-0.35,0.96-0.79C586.31,301.83,586.04,301.47,585.6,301.47z"/>
			<path class="st18" d="M584.03,299.06c-0.09,0-0.16-0.02-0.25-0.03l-13.13,13.98c0.07,0.3,0.08,0.64,0,0.99
				c-0.29,1.35-1.61,2.44-2.96,2.44c-1.35,0-2.21-1.09-1.92-2.44c0.01-0.02,0.02-0.05,0.02-0.07l-7.62-2.47
				c-0.58,0.69-1.44,1.15-2.31,1.15c-0.4,0-0.74-0.1-1.04-0.27l-10.56,6.7c-0.01,0.13-0.02,0.26-0.04,0.4
				c-0.29,1.35-1.61,2.44-2.96,2.44c-1.35,0-2.21-1.09-1.92-2.44s1.61-2.44,2.96-2.44c0.63,0,1.15,0.25,1.5,0.64l10.16-6.45
				c-0.08-0.31-0.09-0.66-0.01-1.03c0.29-1.35,1.61-2.44,2.96-2.44c1.26,0,2.08,0.96,1.95,2.19l7.81,2.53
				c0.56-0.54,1.3-0.89,2.06-0.89c0.41,0,0.76,0.11,1.06,0.28l12.68-13.5c-0.35-0.44-0.5-1.06-0.36-1.74
				c0.29-1.35,1.61-2.44,2.96-2.44c1.35,0,2.21,1.09,1.92,2.44C586.7,297.97,585.38,299.06,584.03,299.06z"/>
			<g>
				<path class="st17" d="M559.34,293.53c-0.09,0.44-0.52,0.79-0.96,0.79h-12.15c-0.44,0-0.71-0.35-0.62-0.79
					c0.09-0.44,0.52-0.79,0.96-0.79h12.15C559.15,292.75,559.43,293.1,559.34,293.53z"/>
			</g>
			<g>
				<path class="st17" d="M581.57,320.86c-0.09,0.44-0.52,0.79-0.96,0.79h-12.15c-0.44,0-0.71-0.35-0.62-0.79
					c0.09-0.44,0.52-0.79,0.96-0.79h12.15C581.39,320.07,581.67,320.42,581.57,320.86z"/>
			</g>
		</g>
		<g>
			<path class="st20" d="M202.2,288.32c0.96,0,1.91-0.78,2.11-1.74l2.42-11.38c0.2-0.96-0.41-1.74-1.37-1.74h-22.74l-3.16,14.87
				H202.2z"/>
			<path class="st31" d="M200.59,285.44h-42.43c-0.96,0-1.58-0.78-1.37-1.74l2.42-11.38c0.2-0.96,1.15-1.74,2.11-1.74h42.43
				c0.96,0,1.58,0.78,1.37,1.74l-2.42,11.38C202.5,284.66,201.55,285.44,200.59,285.44z"/>
			<g>
				<path class="st7" d="M196.53,280.1h-22.71c-1.16,0-1.9-0.94-1.65-2.09l0,0c0.25-1.16,1.38-2.09,2.54-2.09h22.71
					c1.16,0,1.9,0.94,1.65,2.09l0,0C198.82,279.16,197.69,280.1,196.53,280.1z"/>
				<polygon class="st24" points="163.13,276.61 165.33,279.41 168.73,276.61 				"/>
			</g>
		</g>
	</g>
</g>
<g id="레이어_2">
</g>
</svg>
