<?xml version="1.0" encoding="utf-8"?>
<!-- Generator: Adobe Illustrator 27.8.1, SVG Export Plug-In . SVG Version: 6.00 Build 0)  -->
<svg version="1.1" xmlns="http://www.w3.org/2000/svg" xmlns:xlink="http://www.w3.org/1999/xlink" x="0px" y="0px"
	 viewBox="0 0 1440 600" style="enable-background:new 0 0 1440 600;" xml:space="preserve">
<style type="text/css">
	.st0{fill:url(#SVGID_1_);}
	.st1{fill:#CFE9FF;}
	.st2{fill:url(#SVGID_00000119821331896016175680000017749549267045262216_);}
	.st3{opacity:0.34;fill:url(#SVGID_00000129164097268982327380000007752969857658038424_);}
	.st4{opacity:0.55;fill:url(#SVGID_00000096034564201864374840000008046209209518978230_);}
	.st5{display:none;}
	.st6{display:inline;}
	.st7{fill:#00CF9A;}
	.st8{fill:#FFFFFF;}
	.st9{fill:#76B2D3;}
	.st10{fill:#7CC4C2;}
	.st11{fill:url(#SVGID_00000080195694258780962530000010850347552835921591_);}
	.st12{fill:#C6F7E7;}
	.st13{fill:#499B97;}
	.st14{fill:#8CD3D0;}
	.st15{fill:#0B7B99;}
	.st16{display:inline;opacity:0.3;}
	.st17{fill:#94B2FD;}
	.st18{fill:#49CBCE;}
	.st19{fill:#FFD600;}
	.st20{fill:#00213C;}
	.st21{opacity:0.3;fill:#94B2FD;}
	.st22{fill:#DEF6FF;}
	.st23{fill:#C8D6FD;}
	.st24{fill:#5CADEA;}
	.st25{fill:#F3645A;}
	.st26{fill:#2AF4D6;}
	.st27{fill:#7FC2DD;}
	.st28{fill:#F9FCFF;}
	.st29{fill:#1E8487;}
	.st30{font-family:'Arial-Black';}
	.st31{font-size:20.8585px;}
	.st32{fill:#C0EAFF;}
	.st33{fill:#101014;}
	.st34{display:inline;fill:#F9FCFF;}
	.st35{fill:#22A08E;}
	.st36{fill:#00141E;}
	.st37{display:inline;fill:#A4F7F7;}
	.st38{fill:#2B2B2B;}
	.st39{fill:#3441E0;}
	.st40{fill:#249DA0;}
	.st41{opacity:0.27;}
	.st42{opacity:0.35;}
	.st43{opacity:0.53;}
	.st44{fill:#FF5757;}
	.st45{fill:#FFCA7D;}
	.st46{fill:#73D665;}
	.st47{fill:#6627FF;}
	.st48{fill:none;stroke:#FFFFFF;stroke-width:2.8592;stroke-miterlimit:10;stroke-dasharray:11.0214,11.0214;}
	.st49{opacity:0.47;}
	.st50{fill:none;}
	.st51{opacity:0.2;fill:#536862;}
	.st52{fill:#6300FF;}
</style>
<g id="레이어_1">
	<g>
		<linearGradient id="SVGID_1_" gradientUnits="userSpaceOnUse" x1="721.347" y1="7.6972" x2="718.642" y2="594.6765">
			<stop  offset="0" style="stop-color:#FFFFFF"/>
			<stop  offset="1" style="stop-color:#94CBFF"/>
		</linearGradient>
		<rect y="0" class="st0" width="1440" height="600"/>
		
			<radialGradient id="SVGID_00000108296931295315823680000009063074843193439403_" cx="213.4079" cy="381.2593" r="397.7086" gradientUnits="userSpaceOnUse">
			<stop  offset="1.343419e-03" style="stop-color:#3856FF"/>
			<stop  offset="1" style="stop-color:#FFFFFF;stop-opacity:0"/>
		</radialGradient>
		
			<circle style="opacity:0.34;fill:url(#SVGID_00000108296931295315823680000009063074843193439403_);" cx="213.41" cy="381.26" r="397.71"/>
		
			<radialGradient id="SVGID_00000121264777871987390610000004995300355186558851_" cx="1167.8479" cy="253.9068" r="397.7086" gradientUnits="userSpaceOnUse">
			<stop  offset="1.343419e-03" style="stop-color:#3856FF"/>
			<stop  offset="1" style="stop-color:#FFFFFF;stop-opacity:0"/>
		</radialGradient>
		
			<circle style="opacity:0.55;fill:url(#SVGID_00000121264777871987390610000004995300355186558851_);" cx="1167.85" cy="253.91" r="397.71"/>
	</g>
	<g class="st5">
		<g class="st6">
			<path class="st7" d="M737.94,404.31h-40.36c-2.42,0-4.8,1.96-5.31,4.38l-5.13,24.14c-0.51,2.42,1.03,4.38,3.45,4.38h40.36
				c2.42,0,4.8-1.96,5.31-4.38l5.13-24.14C741.9,406.27,740.36,404.31,737.94,404.31z"/>
			<g>
				<path class="st8" d="M693.81,427.59l15.12-12.47l2.49-2.05l0.16-0.13l0.08-0.06l0.05,0.06l0.2,0.26l0.4,0.51l0.81,1.03
					l2.95,3.75l1.97,2.5l0.7,0.89l0.35,0.44c0.02,0.07,0.07,0.01,0.12-0.03l0.13-0.11l0.27-0.22l10.52-8.67l-1.61-2.04l6.76,0
					l-1.44,6.76l-1.61-2.04l-13.13,10.82l-0.62,0.51l-0.31,0.26c-0.1,0.09-0.22,0.22-0.27,0.06l-0.81-1.03l-1.62-2.05l-2.66-3.38
					l-1.68-2.13l-0.35-0.44l-0.17-0.22c-0.06-0.07-0.11-0.19-0.21-0.06l-1.08,0.89l-13.41,11.06L693.81,427.59z"/>
			</g>
		</g>
		<g class="st6">
			<path class="st9" d="M1339.11,463.76c-4.04,16.54-149.72,30.84-302.65,30.84s-344.79,3.39-344.79-13.64
				c0-17.03,207.69-23.05,275.89-24.19C1098.4,454.58,1341.35,454.58,1339.11,463.76z"/>
			<path class="st10" d="M1236.09,207.89H901.73c-5.42,0-10.74,4.39-11.89,9.81l-51.98,244.56h353.98l51.98-244.56
				C1244.97,212.28,1241.51,207.89,1236.09,207.89z"/>
			
				<linearGradient id="SVGID_00000150098999411482204970000004953069858492854438_" gradientUnits="userSpaceOnUse" x1="1248.3657" y1="180.4441" x2="832.2326" y2="492.0687">
				<stop  offset="0" style="stop-color:#FFFFFF"/>
				<stop  offset="1" style="stop-color:#CCF5EB"/>
			</linearGradient>
			<polygon style="fill:url(#SVGID_00000150098999411482204970000004953069858492854438_);" points="857.67,445.92 904.79,224.24 
				1226.08,224.24 1178.96,445.92 			"/>
			<path class="st12" d="M951.01,224.24h78.14L871.22,382.17l21.09-99.23L951.01,224.24z M1110.94,224.24h-25.74L863.52,445.92
				h25.74L1110.94,224.24z M1217.75,263.42l8.33-39.18h-47.37L957.03,445.92h78.23L1217.75,263.42z M1208.15,308.59l4.64-21.81
				l-159.14,159.14h17.17L1208.15,308.59z"/>
			<path class="st13" d="M698.2,484.82h485.46c4.51,0,8.17-3.66,8.17-8.17v-14.38h-501.8v14.38
				C690.03,481.16,693.69,484.82,698.2,484.82z"/>
			<path class="st14" d="M1043.17,476.64v-14.38H690.03v14.38c0,4.51,3.66,8.17,8.17,8.17h336.79
				C1039.51,484.82,1043.17,481.16,1043.17,476.64z"/>
			<path class="st15" d="M882.71,465.47h-32.23c-1.77,0-3.21-1.44-3.21-3.21l0,0h38.64l0,0
				C885.92,464.03,884.48,465.47,882.71,465.47z"/>
			<rect x="1059.84" y="471.05" class="st15" width="18.49" height="4.98"/>
			<rect x="1086.32" y="471.05" class="st15" width="18.49" height="4.98"/>
		</g>
		<g class="st16">
			<path class="st17" d="M911.12,330.29h131.35c2.66,0,4.36,2.16,3.8,4.82l-20.08,94.48c-0.57,2.66-3.19,4.82-5.85,4.82H888.99
				c-2.66,0-4.37-2.16-3.8-4.82l20.08-94.48C905.84,332.45,908.46,330.29,911.12,330.29z"/>
			<path class="st17" d="M922.59,276.32h131.35c2.66,0,4.36,2.16,3.8,4.82l-6.61,31.1c-0.57,2.66-3.19,4.82-5.85,4.82H913.93
				c-2.66,0-4.36-2.16-3.8-4.82l6.61-31.1C917.31,278.48,919.93,276.32,922.59,276.32z"/>
			<path class="st17" d="M1118.59,393.14h-63.82c-2.66,0-4.35-2.15-3.79-4.81l5.45-25.65c0.56-2.66,3.18-4.81,5.83-4.81h63.82
				c2.66,0,4.35,2.15,3.79,4.81l-5.45,25.65C1123.85,390.98,1121.24,393.14,1118.59,393.14z"/>
			<path class="st17" d="M1152.08,235.73h-63.19c-2.83,0-5.61,2.29-6.21,5.12l-20.23,95.19c-0.6,2.83,1.2,5.12,4.04,5.12h63.19
				c2.83,0,5.61-2.29,6.21-5.12l20.23-95.19C1156.72,238.03,1154.91,235.73,1152.08,235.73z"/>
		</g>
		<g class="st6">
			<path class="st18" d="M1040.66,310.34H911.5c-2.71,0-4.44-2.2-3.86-4.9l7.76-36.53c0.58-2.71,3.24-4.9,5.95-4.9h129.16
				c2.71,0,4.44,2.2,3.86,4.9l-7.76,36.53C1046.03,308.15,1043.37,310.34,1040.66,310.34z"/>
			<g>
				<path class="st8" d="M949.11,286.2c-1.72,8.11-9.7,14.69-17.81,14.69s-13.29-6.57-11.56-14.69c1.72-8.11,9.7-14.69,17.81-14.69
					C945.66,271.51,950.84,278.08,949.11,286.2z"/>
				<path class="st19" d="M1020.52,278.6h-55.04c-1.34,0-2.2-1.09-1.92-2.43l0,0c0.29-1.34,1.61-2.43,2.95-2.43h55.04
					c1.34,0,2.2,1.09,1.92,2.43l0,0C1023.19,277.51,1021.87,278.6,1020.52,278.6z"/>
				<path class="st19" d="M981.86,288.48h-18.48c-1.34,0-2.2-1.09-1.92-2.43l0,0c0.29-1.34,1.61-2.43,2.95-2.43h18.48
					c1.34,0,2.2,1.09,1.92,2.43l0,0C984.53,287.39,983.2,288.48,981.86,288.48z"/>
				<path class="st20" d="M972.33,300.15H960.9c-1.34,0-2.2-1.09-1.92-2.43l0,0c0.29-1.34,1.61-2.43,2.95-2.43h11.42
					c1.34,0,2.2,1.09,1.92,2.43l0,0C974.99,299.06,973.67,300.15,972.33,300.15z"/>
				<path class="st19" d="M1001.25,288.48h-7.74c-1.34,0-2.2-1.09-1.92-2.43l0,0c0.29-1.34,1.61-2.43,2.95-2.43h7.74
					c1.34,0,2.2,1.09,1.92,2.43l0,0C1003.92,287.39,1002.6,288.48,1001.25,288.48z"/>
				<path class="st19" d="M1038.81,288.48h-26.53c-1.34,0-2.2-1.09-1.92-2.43l0,0c0.29-1.34,1.61-2.43,2.95-2.43h26.53
					c1.34,0,2.2,1.09,1.92,2.43l0,0C1041.48,287.39,1040.16,288.48,1038.81,288.48z"/>
				<path class="st19" d="M1040.91,278.6h-9.55c-1.34,0-2.2-1.09-1.92-2.43l0,0c0.29-1.34,1.61-2.43,2.95-2.43h9.55
					c1.34,0,2.2,1.09,1.92,2.43l0,0C1043.58,277.51,1042.26,278.6,1040.91,278.6z"/>
			</g>
		</g>
		<g class="st6">
			<path class="st21" d="M863.66,379.32c2.05,0,4.06-1.66,4.5-3.71l20.35-95.72c0.44-2.05-0.87-3.71-2.92-3.71h-8.18l-21.92,103.14
				H863.66z"/>
			<g>
				<path class="st22" d="M859.98,376.73H678.71c-2.05,0-3.36-1.66-2.92-3.71l20.35-95.72c0.44-2.05,2.45-3.71,4.5-3.71h181.28
					c2.05,0,3.36,1.66,2.92,3.71l-20.35,95.72C864.05,375.07,862.03,376.73,859.98,376.73z"/>
			</g>
			<g>
				
					<rect x="685.49" y="363.17" transform="matrix(0.207 -0.9783 0.9783 0.207 190.1059 961.7029)" class="st23" width="5.63" height="0.81"/>
			</g>
			<g>
				
					<rect x="688.09" y="350.61" transform="matrix(0.207 -0.9783 0.9783 0.207 204.518 954.3514)" class="st23" width="5.77" height="0.81"/>
			</g>
			<g>
				
					<rect x="692.09" y="337.56" transform="matrix(0.2069 -0.9784 0.9784 0.2069 226.9413 955.8901)" class="st23" width="21.95" height="0.81"/>
			</g>
			<g>
				
					<rect x="705.84" y="355.99" transform="matrix(0.207 -0.9783 0.9783 0.207 213.1129 975.7292)" class="st23" width="5.25" height="0.81"/>
			</g>
			<g>
				
					<rect x="748.12" y="331.58" transform="matrix(0.207 -0.9783 0.9783 0.207 270.656 997.9009)" class="st23" width="5.58" height="0.81"/>
			</g>
			<g>
				
					<rect x="781.42" y="298.62" transform="matrix(0.207 -0.9783 0.9783 0.207 330.6237 1005.955)" class="st23" width="8.9" height="0.81"/>
			</g>
			<g>
				<polygon class="st24" points="690.26,360.69 687.58,360.69 689.04,353.83 691.72,353.83 				"/>
			</g>
			<g>
				<polygon class="st24" points="699.94,358.97 697.26,358.97 699.44,348.7 702.12,348.7 				"/>
			</g>
			<g>
				<polygon class="st24" points="850.8,350.41 848.12,350.41 850.3,340.15 852.98,340.15 				"/>
			</g>
			<g>
				<polygon class="st24" points="710.35,353.83 707.67,353.83 713.32,327.23 716,327.23 				"/>
			</g>
			<g>
				<polygon class="st24" points="858.27,359.07 855.59,359.07 863.64,321.22 866.32,321.22 				"/>
			</g>
			<g>
				<polygon class="st25" points="788.17,338.29 785.49,338.29 791.15,311.69 793.83,311.69 				"/>
			</g>
			<g>
				<polygon class="st24" points="724.8,329.65 722.12,329.65 723.15,324.81 725.83,324.81 				"/>
			</g>
			<g>
				<polygon class="st25" points="812.07,357.34 809.39,357.34 810.42,352.5 813.1,352.5 				"/>
			</g>
			<g>
				<polygon class="st24" points="768.26,300.51 765.58,300.51 766.6,295.68 769.28,295.68 				"/>
			</g>
			<g>
				<polygon class="st25" points="775.84,308.65 773.16,308.65 775.41,298.09 778.09,298.09 				"/>
			</g>
			<g>
				<polygon class="st24" points="742.37,334.64 739.69,334.64 744.15,313.65 746.83,313.65 				"/>
			</g>
			<g>
				<polygon class="st24" points="820.18,363 817.5,363 821.96,342.01 824.64,342.01 				"/>
			</g>
			<g>
				<polygon class="st24" points="752.84,329.21 750.16,329.21 756.78,298.09 759.46,298.09 				"/>
			</g>
			<g>
				<polygon class="st25" points="796.97,340.71 794.29,340.71 795.32,335.87 798,335.87 				"/>
			</g>
			<g>
				<polygon class="st24" points="833.44,344.43 830.76,344.43 831.79,339.59 834.47,339.59 				"/>
			</g>
			<g>
				<polygon class="st25" points="803.27,354.92 800.59,354.92 804.12,338.29 806.8,338.29 				"/>
			</g>
			<g>
				<polygon class="st25" points="782.74,320.01 780.06,320.01 783.6,303.37 786.28,303.37 				"/>
			</g>
			<g>
				<path class="st23" d="M735.26,326.24h-3.51l0.53-2.5h3.51L735.26,326.24z M732.75,325.43h1.85l0.19-0.88h-1.85L732.75,325.43z"
					/>
			</g>
			<g>
				<polygon class="st25" points="842.58,345.28 839.9,345.28 840.26,343.59 842.94,343.59 				"/>
			</g>
			<g>
				
					<rect x="712.58" y="324.28" transform="matrix(0.207 -0.9783 0.9783 0.207 249.4851 957.176)" class="st23" width="5.25" height="0.81"/>
			</g>
			<g>
				
					<rect x="708.53" y="341.34" transform="matrix(0.207 -0.9783 0.9783 0.207 237.3099 976.2675)" class="st23" width="24.72" height="0.81"/>
			</g>
			<g>
				
					<rect x="723.48" y="323" transform="matrix(0.207 -0.9783 0.9783 0.207 258.3429 965.5388)" class="st23" width="2.62" height="0.81"/>
			</g>
			<g>
				
					<rect x="729.7" y="318.49" transform="matrix(0.207 -0.9783 0.9783 0.207 270.8953 972.0166)" class="st23" width="10.73" height="0.81"/>
			</g>
			<g>
				<line class="st7" x1="733.59" y1="325.84" x2="731.72" y2="334.64"/>
			</g>
			<g>
				
					<rect x="739.19" y="305.47" transform="matrix(0.207 -0.9783 0.9783 0.207 293.2198 973.5101)" class="st23" width="15.91" height="0.81"/>
			</g>
			<g>
				
					<rect x="731.41" y="342.09" transform="matrix(0.207 -0.9783 0.9783 0.207 251.2172 994.9355)" class="st23" width="15.91" height="0.81"/>
			</g>
			<g>
				
					<rect x="691.98" y="363.98" transform="matrix(0.207 -0.9783 0.9783 0.207 196.5728 971.285)" class="st23" width="10.93" height="0.81"/>
			</g>
			<g>
				
					<rect x="755.92" y="294.89" transform="matrix(0.207 -0.9783 0.9783 0.207 312.74 976.434)" class="st23" width="5.58" height="0.81"/>
			</g>
			<g>
				
					<rect x="763.61" y="302.79" transform="matrix(0.2071 -0.9783 0.9783 0.2071 311.0497 990.1568)" class="st23" width="5.48" height="0.81"/>
			</g>
			<g>
				
					<rect x="765.81" y="292.44" transform="matrix(0.2071 -0.9783 0.9783 0.2071 322.9143 984.1052)" class="st23" width="5.48" height="0.81"/>
			</g>
			<g>
				
					<rect x="771.73" y="291.49" transform="matrix(0.207 -0.9783 0.9783 0.207 331.4092 992.6731)" class="st23" width="12.67" height="0.81"/>
			</g>
			<g>
				
					<rect x="766.87" y="314.36" transform="matrix(0.2069 -0.9784 0.9784 0.2069 305.2422 1006.0992)" class="st23" width="12.67" height="0.81"/>
			</g>
			<g>
				<polygon class="st23" points="779.92,328.92 779.13,328.75 780.98,320.05 781.77,320.22 				"/>
			</g>
			<g>
				
					<rect x="789.12" y="307.13" transform="matrix(0.2069 -0.9784 0.9784 0.2069 328.3383 1020.1022)" class="st23" width="8.5" height="0.81"/>
			</g>
			<g>
				
					<rect x="785.36" y="339.12" transform="matrix(0.2071 -0.9783 0.9783 0.2071 291.5419 1038.7498)" class="st23" width="2.43" height="0.81"/>
			</g>
			<g>
				
					<rect x="791.61" y="329.23" transform="matrix(0.207 -0.9783 0.9783 0.207 310.284 1042.0922)" class="st23" width="12.75" height="0.81"/>
			</g>
			<g>
				
					<rect x="791.99" y="343.25" transform="matrix(0.207 -0.9783 0.9783 0.207 294.2039 1050.2946)" class="st23" width="6.03" height="0.81"/>
			</g>
			<g>
				
					<rect x="804.45" y="336.7" transform="matrix(0.2071 -0.9783 0.9783 0.2071 309.0883 1055.561)" class="st23" width="2.52" height="0.81"/>
			</g>
			<g>
				
					<rect x="800.39" y="355.84" transform="matrix(0.207 -0.9783 0.9783 0.207 287.1563 1066.7692)" class="st23" width="2.52" height="0.81"/>
			</g>
			<g>
				
					<rect x="809.45" y="349.26" transform="matrix(0.207 -0.9783 0.9783 0.207 302.092 1072.0328)" class="st23" width="5.81" height="0.81"/>
			</g>
			<g>
				
					<rect x="807.29" y="359.83" transform="matrix(0.2071 -0.9783 0.9783 0.2071 289.9473 1078.2052)" class="st23" width="5.64" height="0.81"/>
			</g>
			<g>
				
					<rect x="817.37" y="364.02" transform="matrix(0.207 -0.9783 0.9783 0.207 292.5514 1089.7808)" class="st23" width="2.33" height="0.81"/>
			</g>
			<g>
				
					<rect x="822.32" y="340.4" transform="matrix(0.2069 -0.9784 0.9784 0.2069 319.7268 1076.0249)" class="st23" width="2.47" height="0.81"/>
			</g>
			<g>
				
					<rect x="831.48" y="337.15" transform="matrix(0.2071 -0.9783 0.9783 0.2071 330.7313 1083.1636)" class="st23" width="4.17" height="0.81"/>
			</g>
			<g>
				
					<rect x="829.6" y="345.98" transform="matrix(0.207 -0.9783 0.9783 0.207 320.6287 1088.3398)" class="st23" width="4.17" height="0.81"/>
			</g>
			<g>
				
					<rect x="839.98" y="341.18" transform="matrix(0.207 -0.9783 0.9783 0.207 333.5092 1094.6504)" class="st23" width="4.08" height="0.81"/>
			</g>
			<g>
				
					<rect x="838.76" y="346.94" transform="matrix(0.2069 -0.9784 0.9784 0.2069 327.0043 1098.0771)" class="st23" width="4.08" height="0.81"/>
			</g>
			<g>
				
					<rect x="843.98" y="330.28" transform="matrix(0.207 -0.9783 0.9783 0.207 353.403 1097.3837)" class="st23" width="19.35" height="0.81"/>
			</g>
			<g>
				
					<rect x="844.11" y="354.34" transform="matrix(0.207 -0.9783 0.9783 0.207 325.8133 1111.4572)" class="st23" width="8.86" height="0.81"/>
			</g>
			<g>
				
					<rect x="854.64" y="360.52" transform="matrix(0.207 -0.9783 0.9783 0.207 326.1031 1124.1903)" class="st23" width="3.8" height="0.81"/>
			</g>
			<g>
				
					<rect x="863.49" y="318.88" transform="matrix(0.207 -0.9783 0.9783 0.207 373.8685 1099.8253)" class="st23" width="3.8" height="0.81"/>
			</g>
		</g>
		<g class="st6">
			<path class="st21" d="M1226.94,254.8c-27.05,0.1-53.84,22.56-59.3,48.9c-5.6,27.01,11.5,48.9,38.51,48.9
				c3.07,0,6.14-0.3,9.17-0.84l20.44-96.15C1232.95,255.08,1230.02,254.79,1226.94,254.8z"/>
			<path class="st26" d="M1165.42,296.93c-5.6,27.01,11.5,48.9,38.51,48.9c27.01,0,53.56-21.89,59.3-48.9
				c5.74-27.01-11.48-49-38.51-48.9C1197.66,248.13,1170.88,270.59,1165.42,296.93z"/>
			<path class="st19" d="M1264.27,288.63l-49.95,8.3l41.93-34.58C1261.76,269.35,1264.69,278.45,1264.27,288.63z"/>
			<path class="st27" d="M1214.32,296.93l-27.23-34.58c10.73-8.85,24.12-14.32,37.62-14.32c13.5,0,24.57,5.47,31.54,14.32
				L1214.32,296.93z"/>
		</g>
		<g class="st6">
			<path class="st28" d="M1115.16,388.86h-63.17c-2.71,0-4.44-2.2-3.86-4.91l6.27-29.52c0.58-2.71,3.24-4.91,5.95-4.91h63.17
				c2.71,0,4.44,2.2,3.86,4.91l-6.27,29.52C1120.54,386.66,1117.87,388.86,1115.16,388.86z"/>
			<text transform="matrix(0.9782 0 -0.2079 0.9782 1063.0841 375.3424)" class="st29 st30 st31">BUY</text>
		</g>
		<g class="st6">
			<path class="st21" d="M737.94,404.31h-14.56l-0.65,3.06c-0.58,2.71,1.15,4.91,3.86,4.91h14.03l0.76-3.59
				C741.9,406.27,740.36,404.31,737.94,404.31z"/>
			<path class="st32" d="M786.12,408.63h-63.17c-2.71,0-4.44-2.2-3.86-4.91l6.27-29.52c0.58-2.71,3.24-4.91,5.95-4.91h63.17
				c2.71,0,4.44,2.2,3.86,4.91l-6.27,29.52C791.49,406.43,788.83,408.63,786.12,408.63z"/>
			<g>
				<text transform="matrix(0.9782 0 -0.2079 0.9782 730.5508 395.1127)" class="st29 st30 st31">SELL</text>
			</g>
		</g>
		<g class="st6">
			<path class="st21" d="M901.73,207.89c-5.42,0-10.74,4.39-11.89,9.81l-7.58,35.68h131.89c2.71,0,5.37-2.2,5.95-4.91l8.63-40.58
				H901.73z"/>
			<path class="st8" d="M1011.79,249.35H867.94c-2.71,0-4.44-2.2-3.86-4.91l12.65-59.53h153.66l-12.65,59.53
				C1017.16,247.16,1014.5,249.35,1011.79,249.35z"/>
			<path class="st33" d="M1028.42,177.1H882.04c-2.01,0-3.99,1.63-4.41,3.64l-0.89,4.18h153.66l0.89-4.18
				C1031.71,178.73,1030.43,177.1,1028.42,177.1z"/>
			<polygon class="st32" points="953.05,241.06 874.06,241.06 884.02,194.18 963.01,194.18 			"/>
			<path class="st25" d="M884.85,180.86c-0.15,0.68-0.82,1.24-1.5,1.24c-0.68,0-1.12-0.56-0.98-1.24c0.15-0.68,0.82-1.24,1.5-1.24
				C884.56,179.62,885,180.18,884.85,180.86z"/>
			<path class="st7" d="M890.26,180.86c-0.15,0.68-0.82,1.24-1.5,1.24c-0.68,0-1.12-0.56-0.98-1.24c0.15-0.68,0.82-1.24,1.5-1.24
				C889.96,179.62,890.4,180.18,890.26,180.86z"/>
			<path class="st19" d="M895.66,180.86c-0.15,0.68-0.82,1.24-1.5,1.24c-0.68,0-1.12-0.56-0.98-1.24c0.15-0.68,0.82-1.24,1.5-1.24
				C895.36,179.62,895.8,180.18,895.66,180.86z"/>
			<g>
				<path class="st32" d="M981.25,199.05c-0.56,2.64-3.16,4.78-5.79,4.78c-2.64,0-4.32-2.14-3.76-4.78
					c0.56-2.64,3.16-4.78,5.79-4.78C980.13,194.27,981.81,196.41,981.25,199.05z"/>
				<path class="st32" d="M1018.24,197.74h-31.52c-0.57,0-0.93-0.46-0.81-1.02l0.03-0.16c0.12-0.57,0.68-1.02,1.24-1.02h31.51
					c0.57,0,0.93,0.46,0.81,1.02l-0.03,0.16C1019.36,197.28,1018.8,197.74,1018.24,197.74z"/>
				<path class="st32" d="M1002.22,203.24h-16.67c-0.57,0-0.93-0.46-0.81-1.02l0.03-0.16c0.12-0.57,0.68-1.02,1.24-1.02h16.67
					c0.57,0,0.93,0.46,0.81,1.02l-0.03,0.16C1003.34,202.79,1002.79,203.24,1002.22,203.24z"/>
				<path class="st32" d="M1009.73,203.24h-3.15c-0.61,0-1-0.49-0.87-1.1l0,0c0.13-0.61,0.73-1.1,1.34-1.1h3.15
					c0.61,0,1,0.49,0.87,1.1l0,0C1010.94,202.75,1010.34,203.24,1009.73,203.24z"/>
			</g>
			<g>
				<path class="st32" d="M977.7,215.78c-0.56,2.64-3.16,4.78-5.79,4.78c-2.64,0-4.32-2.14-3.76-4.78c0.56-2.64,3.16-4.78,5.79-4.78
					C976.57,211,978.26,213.14,977.7,215.78z"/>
				<path class="st32" d="M1014.68,214.46h-31.52c-0.57,0-0.93-0.46-0.81-1.02l0.03-0.16c0.12-0.57,0.68-1.02,1.24-1.02h31.51
					c0.57,0,0.93,0.46,0.81,1.02l-0.03,0.16C1015.8,214.01,1015.25,214.46,1014.68,214.46z"/>
				<path class="st32" d="M998.67,219.97H982c-0.57,0-0.93-0.46-0.81-1.02l0.03-0.16c0.12-0.57,0.68-1.02,1.24-1.02h16.67
					c0.57,0,0.93,0.46,0.81,1.02l-0.03,0.16C999.79,219.51,999.23,219.97,998.67,219.97z"/>
				<path class="st32" d="M1006.17,219.97h-3.15c-0.61,0-1-0.49-0.87-1.1l0,0c0.13-0.61,0.73-1.1,1.34-1.1h3.15
					c0.61,0,1,0.49,0.87,1.1l0,0C1007.38,219.48,1006.78,219.97,1006.17,219.97z"/>
			</g>
			<g>
				<path class="st32" d="M974.14,232.5c-0.56,2.64-3.16,4.78-5.79,4.78s-4.32-2.14-3.76-4.78c0.56-2.64,3.16-4.78,5.79-4.78
					C973.02,227.73,974.7,229.87,974.14,232.5z"/>
				<path class="st32" d="M1011.13,231.19h-31.51c-0.57,0-0.93-0.46-0.81-1.02l0.03-0.16c0.12-0.57,0.68-1.02,1.24-1.02h31.52
					c0.57,0,0.93,0.46,0.81,1.02l-0.03,0.16C1012.25,230.73,1011.69,231.19,1011.13,231.19z"/>
				<path class="st32" d="M995.11,236.7h-16.67c-0.57,0-0.93-0.46-0.81-1.02l0.03-0.16c0.12-0.57,0.68-1.02,1.24-1.02h16.67
					c0.57,0,0.93,0.46,0.81,1.02l-0.03,0.16C996.23,236.24,995.68,236.7,995.11,236.7z"/>
				<path class="st32" d="M1002.62,236.7h-3.15c-0.61,0-1-0.49-0.87-1.1l0,0c0.13-0.61,0.73-1.1,1.34-1.1h3.15
					c0.61,0,1,0.49,0.87,1.1l0,0C1003.83,236.21,1003.23,236.7,1002.62,236.7z"/>
			</g>
		</g>
		<path class="st34" d="M1037.54,351.49c0-0.12-0.02-0.23-0.03-0.35c-0.01-0.13-0.01-0.26-0.04-0.38c-0.03-0.14-0.08-0.27-0.13-0.41
			c-0.03-0.09-0.05-0.18-0.09-0.27c-0.2-0.43-0.49-0.81-0.86-1.09c-0.08-0.06-0.17-0.1-0.25-0.15c-0.11-0.07-0.22-0.15-0.35-0.21
			c-0.12-0.05-0.24-0.08-0.37-0.12c-0.11-0.03-0.21-0.08-0.32-0.1c-0.24-0.05-0.5-0.08-0.75-0.08h-17.72
			c-2.18,0-4.31,1.76-4.77,3.94c-0.46,2.18,0.93,3.94,3.1,3.94h8.21l-29.91,24.67l-5.45-6.92c-1.21-1.54-3.71-1.54-5.57,0
			l-15.94,13.15l-5.45-6.92c-1.21-1.54-3.71-1.54-5.57,0l-16.9,13.94l-5.45-6.92c-1.21-1.54-3.71-1.54-5.57,0l-31.6,26.06
			c-1.87,1.54-2.4,4.03-1.18,5.57c0.6,0.77,1.53,1.15,2.54,1.15c1.01,0,2.1-0.38,3.03-1.15l28.22-23.27l5.45,6.92
			c1.21,1.54,3.78,1.47,5.65-0.07l16.82-13.87l5.45,6.92c1.21,1.54,3.79,1.47,5.65-0.07l15.86-13.08l5.45,6.92
			c1.21,1.54,3.79,1.47,5.65-0.07l33.2-27.38l-1.75,8.21c-0.46,2.18,0.93,3.94,3.1,3.94c2.18,0,4.31-1.76,4.77-3.94l3.77-17.72
			C1037.51,352.01,1037.54,351.75,1037.54,351.49z"/>
		<g class="st6">
			<path class="st28" d="M1108,294.04l-1.99,9.35c16.48,0,32.68-13.36,36.18-29.84h-9.35C1130.43,284.87,1119.31,294.04,1108,294.04
				z"/>
			<path class="st35" d="M1116.7,253.07c11.31,0,18.53,9.17,16.13,20.48v0h9.35v0c3.5-16.48-7.02-29.84-23.49-29.84
				c-8.24,0-16.41,3.34-22.96,8.74l5.21,6.61C1105.44,255.36,1111.05,253.07,1116.7,253.07z"/>
			<path class="st36" d="M1106.01,303.39L1106.01,303.39l1.99-9.35h0c-11.31,0-18.53-9.17-16.13-20.48
				c1.2-5.66,4.58-10.78,9.08-14.48l-5.21-6.61c-6.55,5.4-11.47,12.86-13.22,21.1C1079.01,290.03,1089.53,303.39,1106.01,303.39z"/>
		</g>
		<path class="st37" d="M1110.48,148.58h-56.24c-2.54,0-5.04,2.06-5.58,4.6l-6.1,28.7c-0.54,2.54,1.08,4.6,3.62,4.6h56.24
			c2.54,0,5.04-2.06,5.58-4.6l6.1-28.7C1114.64,150.64,1113.02,148.58,1110.48,148.58z M1066.33,152.25c0.75,0,1.23,0.61,1.07,1.36
			c-0.16,0.75-0.9,1.37-1.66,1.37c-0.75,0-1.24-0.61-1.07-1.37C1064.83,152.86,1065.57,152.25,1066.33,152.25z M1061.03,152.25
			c0.75,0,1.23,0.61,1.07,1.36c-0.16,0.75-0.9,1.37-1.66,1.37c-0.75,0-1.24-0.61-1.08-1.37
			C1059.53,152.86,1060.27,152.25,1061.03,152.25z M1055.73,152.25c0.75,0,1.24,0.61,1.08,1.36c-0.16,0.75-0.9,1.37-1.66,1.37
			c-0.75,0-1.24-0.61-1.07-1.37C1054.23,152.86,1054.97,152.25,1055.73,152.25z M1059.51,178.51h-9.03c-0.94,0-1.54-0.76-1.34-1.7
			c0.2-0.94,1.12-1.7,2.06-1.7h9.03c0.94,0,1.54,0.76,1.34,1.7C1061.37,177.75,1060.45,178.51,1059.51,178.51z M1075.17,178.51
			h-7.96c-0.94,0-1.54-0.76-1.34-1.7c0.2-0.94,1.12-1.7,2.06-1.7h7.96c0.94,0,1.54,0.76,1.34,1.7
			C1077.03,177.75,1076.11,178.51,1075.17,178.51z M1083.82,171.35H1052c-0.94,0-1.54-0.76-1.34-1.7s1.12-1.7,2.06-1.7h31.82
			c0.94,0,1.54,0.76,1.34,1.7S1084.76,171.35,1083.82,171.35z M1052.18,162.49c0.2-0.94,1.12-1.7,2.06-1.7h17.14
			c0.94,0,1.54,0.76,1.34,1.7c-0.2,0.94-1.12,1.7-2.06,1.7h-17.14C1052.58,164.19,1051.98,163.43,1052.18,162.49z M1103.04,171.35
			h-11.79c-0.94,0-1.54-0.76-1.34-1.7c0.2-0.94,1.12-1.7,2.06-1.7h11.79c0.94,0,1.54,0.76,1.34,1.7S1103.97,171.35,1103.04,171.35z"
			/>
		<g class="st6">
			<path class="st21" d="M1122.98,207.89c4.28,4.88,11.1,7.9,19.44,7.9c8.34,0,16.61-3.02,23.21-7.9H1122.98z"/>
			
				<ellipse transform="matrix(0.7435 -0.6687 0.6687 0.7435 173.9982 814.8015)" class="st26" cx="1149.24" cy="180.56" rx="36.64" ry="29.64"/>
			<g>
				<path class="st8" d="M1143.58,198.25l0.43-2.03c-1.97-0.29-3.63-0.98-4.94-2.08c-1.31-1.1-2.16-2.37-2.51-3.81
					c-0.13-0.44-0.13-0.88-0.04-1.3c0.05-0.24,0.16-0.51,0.29-0.78c0.28-0.51,0.76-0.93,1.42-1.27c0.44-0.22,0.82-0.32,1.14-0.32
					c0.71,0,1.36,0.49,1.94,1.47c0.91,2.18,2.92,3.37,5.83,3.37c1.47,0,3.02-0.39,4.26-1.17c1.32-0.78,2.27-1.93,2.56-3.32
					c0.29-1.34-0.13-2.37-1.23-3.08c-0.75-0.49-1.64-0.78-3.06-1.15l-0.6-0.17c-3.12-0.61-5.38-1.61-6.8-2.96
					c-1.69-1.59-2.26-3.62-1.74-6.09c0.48-2.27,1.82-4.3,3.7-5.89c1.79-1.54,4.11-2.57,6.47-2.96l0.39-1.83
					c0.12-0.56,0.45-1.08,0.95-1.49c0.47-0.39,1-0.59,1.62-0.59c0.56,0,0.99,0.19,1.29,0.59c0.3,0.42,0.39,0.93,0.27,1.49
					l-0.39,1.83c3.05,0.49,5.31,2.03,6.25,4.4c0.11,0.29,0.14,0.61,0.07,0.93c-0.03,0.12-0.08,0.27-0.15,0.46
					c-0.22,0.44-0.52,0.83-0.9,1.15c-0.44,0.37-1.1,0.59-1.71,0.59c-0.59,0-1.04-0.15-1.35-0.44c-0.82-0.88-1.54-1.49-2.18-1.81
					c-0.82-0.39-1.85-0.59-3.1-0.59c-1.47,0-2.92,0.39-4.05,1.1c-1.2,0.71-2.01,1.76-2.28,3.01c-0.3,1.39,0.27,2.3,1.49,2.98
					c1.03,0.56,2.32,0.93,4.66,1.44c2.47,0.68,4.41,1.54,5.71,2.81c1.56,1.52,2.09,3.52,1.56,5.99c-0.5,2.37-1.87,4.55-3.79,6.21
					c-1.92,1.69-4.36,2.81-6.92,3.23l-0.44,2.08c-0.25,1.17-1.32,2.08-2.47,2.08C1144.06,200.32,1143.33,199.42,1143.58,198.25z"/>
			</g>
		</g>
		<g class="st6">
			<path class="st21" d="M1205.94,395.9h-30.39c-1.62,0-3.22,1.32-3.57,2.94l-6.1,28.72c-0.35,1.62,0.69,2.94,2.32,2.94h30.39
				L1205.94,395.9z"/>
			<path class="st18" d="M1164.95,425.5h51.28c1.63,0,3.22-1.32,3.57-2.94l6.1-28.72c0.35-1.63-0.69-2.94-2.32-2.94h-51.28
				c-1.63,0-3.22,1.32-3.57,2.94l-6.11,28.72C1162.29,424.19,1163.32,425.5,1164.95,425.5z"/>
			<g>
				<path class="st29" d="M1192.79,415.12l-16.47-11.64c-0.9-0.64-0.94-2-0.08-3.04c0.86-1.04,2.29-1.36,3.19-0.73l14.46,10.22
					l18.8-10.22c1.17-0.64,2.46-0.31,2.88,0.73c0.42,1.04-0.2,2.4-1.37,3.04L1192.79,415.12z"/>
			</g>
		</g>
		<g class="st6">
			<path class="st18" d="M1248.84,456.35c-0.09,0.44-0.52,0.79-0.96,0.79h-40.89c-0.44,0-0.71-0.35-0.62-0.79
				c0.09-0.44,0.52-0.79,0.96-0.79h40.89C1248.66,455.56,1248.94,455.91,1248.84,456.35z M1249.51,449.49h-40.89
				c-0.44,0-0.86,0.35-0.96,0.79c-0.09,0.44,0.19,0.79,0.62,0.79h40.89c0.44,0,0.86-0.35,0.96-0.79
				C1250.22,449.85,1249.95,449.49,1249.51,449.49z M1250.8,443.43h-40.89c-0.44,0-0.86,0.35-0.96,0.79
				c-0.09,0.44,0.19,0.79,0.62,0.79h40.89c0.44,0,0.86-0.35,0.96-0.79C1251.51,443.78,1251.24,443.43,1250.8,443.43z"/>
			<path class="st19" d="M1249.23,441.01c-0.09,0-0.16-0.02-0.25-0.03l-13.13,13.98c0.07,0.3,0.08,0.64,0,0.99
				c-0.29,1.35-1.61,2.44-2.96,2.44c-1.35,0-2.21-1.09-1.92-2.44c0.01-0.02,0.02-0.05,0.02-0.07l-7.62-2.47
				c-0.58,0.69-1.44,1.15-2.31,1.15c-0.4,0-0.74-0.1-1.04-0.27l-10.56,6.7c-0.01,0.13-0.02,0.26-0.04,0.4
				c-0.29,1.35-1.61,2.44-2.96,2.44c-1.35,0-2.21-1.09-1.92-2.44c0.29-1.35,1.61-2.44,2.96-2.44c0.63,0,1.15,0.25,1.5,0.64
				l10.16-6.45c-0.08-0.31-0.09-0.66-0.01-1.03c0.29-1.35,1.61-2.44,2.96-2.44c1.26,0,2.08,0.96,1.95,2.19l7.81,2.53
				c0.56-0.54,1.3-0.89,2.06-0.89c0.41,0,0.76,0.11,1.06,0.28l12.68-13.5c-0.35-0.44-0.5-1.06-0.36-1.74
				c0.29-1.35,1.61-2.44,2.96-2.44s2.21,1.09,1.92,2.44C1251.9,439.92,1250.58,441.01,1249.23,441.01z"/>
			<g>
				<path class="st18" d="M1224.53,435.49c-0.09,0.44-0.52,0.79-0.96,0.79h-12.15c-0.44,0-0.71-0.35-0.62-0.79
					c0.09-0.44,0.52-0.79,0.96-0.79h12.15C1224.35,434.7,1224.63,435.05,1224.53,435.49z"/>
			</g>
			<g>
				<path class="st18" d="M1246.77,462.81c-0.09,0.44-0.52,0.79-0.96,0.79h-12.15c-0.44,0-0.71-0.35-0.62-0.79
					c0.09-0.44,0.52-0.79,0.96-0.79h12.15C1246.59,462.02,1246.86,462.37,1246.77,462.81z"/>
			</g>
		</g>
		<g class="st6">
			<path class="st21" d="M867.39,430.27c0.96,0,1.91-0.78,2.11-1.74l2.42-11.38c0.2-0.96-0.41-1.74-1.37-1.74h-22.74l-3.16,14.87
				H867.39z"/>
			<path class="st36" d="M865.78,427.4h-42.43c-0.96,0-1.58-0.78-1.37-1.74l2.42-11.38c0.2-0.96,1.15-1.74,2.11-1.74h42.43
				c0.96,0,1.58,0.78,1.37,1.74l-2.42,11.38C867.69,426.62,866.75,427.4,865.78,427.4z"/>
			<g>
				<path class="st8" d="M861.73,422.06h-22.71c-1.16,0-1.9-0.94-1.65-2.09l0,0c0.25-1.16,1.38-2.09,2.54-2.09h22.71
					c1.16,0,1.9,0.94,1.65,2.09l0,0C864.02,421.12,862.89,422.06,861.73,422.06z"/>
				<polygon class="st25" points="828.33,418.56 830.53,421.36 833.93,418.56 				"/>
			</g>
		</g>
	</g>
	<g class="st5">
		<g class="st6">
			<g>
				<path class="st38" d="M212.19,378.34h-19.45v-2.38h19.45V378.34z M202.31,370.66c-0.68,1.05-1.67,1.92-2.95,2.63
					s-2.8,1.18-4.57,1.42l-1.11-2.33c1.49-0.19,2.77-0.55,3.84-1.08s1.87-1.16,2.41-1.88s0.81-1.46,0.81-2.23v-0.64h2.6v0.64
					C203.33,368.46,202.99,369.61,202.31,370.66z M210.43,367.64h-15.95v-2.33h15.95V367.64z M203.88,385.53h-2.96v-7.86h2.96
					V385.53z M204.99,369.42c0.54,0.72,1.34,1.34,2.41,1.88s2.36,0.89,3.87,1.08l-1.08,2.33c-1.77-0.24-3.31-0.71-4.6-1.42
					s-2.28-1.58-2.97-2.63s-1.03-2.21-1.03-3.46v-0.64h2.6v0.64C204.19,367.96,204.45,368.71,204.99,369.42z"/>
				<path class="st38" d="M220.34,371.07c-0.46,1.2-1.15,2.24-2.07,3.13s-2.04,1.55-3.38,1.99l-1.49-2.34
					c1.15-0.38,2.11-0.91,2.88-1.59s1.34-1.47,1.71-2.34s0.55-1.78,0.55-2.71v-2.05h2.48v2.05
					C221.03,368.58,220.8,369.87,220.34,371.07z M231.32,385.51h-2.99v-5.29h-11.66v-2.4h14.65V385.51z M222.18,369.83
					c0.35,0.82,0.9,1.55,1.66,2.2s1.69,1.13,2.82,1.47l-1.48,2.36c-1.33-0.42-2.44-1.06-3.34-1.9s-1.57-1.85-2.02-2.99
					s-0.67-2.4-0.67-3.75v-2.05h2.51v2.05C221.65,368.14,221.82,369.01,222.18,369.83z M231.32,376.91h-2.99v-12.75h2.99V376.91z"/>
				<path class="st38" d="M243.37,366.61c0.86,0.62,1.52,1.51,2,2.66s0.72,2.48,0.72,4.01c0,1.53-0.24,2.87-0.72,4.02
					s-1.15,2.03-2,2.65s-1.82,0.93-2.89,0.93c-1.09,0-2.06-0.31-2.91-0.93s-1.53-1.51-2.01-2.65s-0.73-2.49-0.73-4.02
					c0-1.52,0.24-2.86,0.73-4.01s1.15-2.04,2.01-2.66s1.83-0.94,2.91-0.94C241.55,365.67,242.51,365.99,243.37,366.61z
					 M239.03,368.94c-0.42,0.38-0.74,0.94-0.96,1.68s-0.33,1.63-0.33,2.67s0.11,1.93,0.33,2.66s0.54,1.29,0.96,1.67
					s0.9,0.57,1.45,0.57c0.54,0,1.02-0.19,1.43-0.57s0.73-0.94,0.96-1.67s0.34-1.62,0.34-2.66s-0.11-1.93-0.34-2.67
					s-0.54-1.3-0.96-1.68s-0.89-0.56-1.44-0.56C239.93,368.37,239.45,368.56,239.03,368.94z M252.07,385.57h-3.04v-21.41h3.04
					V385.57z"/>
				<path class="st38" d="M269.23,366.61c0.84,0.62,1.49,1.51,1.96,2.66s0.71,2.48,0.71,4.01c0,1.53-0.24,2.87-0.71,4.02
					s-1.13,2.03-1.96,2.65s-1.79,0.93-2.85,0.93c-1.07,0-2.03-0.31-2.87-0.93s-1.5-1.5-1.97-2.65s-0.71-2.49-0.71-4.03
					c0-1.52,0.24-2.86,0.71-4.01s1.13-2.04,1.97-2.66s1.79-0.94,2.87-0.94C267.44,365.67,268.39,365.99,269.23,366.61z
					 M264.97,368.94c-0.41,0.38-0.72,0.94-0.94,1.68s-0.32,1.62-0.32,2.66s0.11,1.93,0.32,2.66s0.53,1.29,0.94,1.67
					s0.88,0.57,1.41,0.57c0.54,0,1.01-0.19,1.42-0.57s0.72-0.94,0.94-1.67s0.33-1.62,0.33-2.66c0-1.05-0.11-1.94-0.33-2.67
					s-0.53-1.29-0.93-1.67s-0.87-0.56-1.42-0.56C265.85,368.37,265.38,368.56,264.97,368.94z M276.81,374.29h-5.8v-2.4h5.8V374.29z
					 M278.5,385.57h-2.96v-21.41h2.96V385.57z"/>
				<path class="st38" d="M291.53,374.16h-6.55v4.76h-2.99v-7.08h6.61v-3.49h-6.66v-2.39h9.59V374.16z M288.35,378.22
					c1.38-0.08,2.8-0.23,4.28-0.44l0.23,2.44c-1.47,0.23-2.89,0.38-4.26,0.46s-3.01,0.12-4.93,0.12h-1.69v-2.45h1.69
					C285.42,378.34,286.98,378.3,288.35,378.22z M296.68,376.95h-4.09v-2.45h4.09V376.95z M296.75,371.14h-4.09v-2.43h4.09V371.14z
					 M299.2,385.57h-2.96v-21.41h2.96V385.57z"/>
				<path class="st38" d="M321.47,376.95h-19.5v-2.37h19.5V376.95z M315.76,365.14c1.16,0.37,2.06,0.88,2.7,1.55
					s0.96,1.45,0.96,2.34c0,0.88-0.32,1.65-0.96,2.31s-1.54,1.17-2.7,1.53s-2.51,0.54-4.05,0.54c-1.53,0-2.88-0.18-4.05-0.54
					s-2.08-0.87-2.72-1.53s-0.97-1.43-0.97-2.31c0-0.9,0.32-1.68,0.97-2.34s1.55-1.18,2.72-1.55s2.52-0.55,4.05-0.55
					C313.25,364.58,314.6,364.77,315.76,365.14z M307.3,383.37h-3.01v-4.62h3.01V383.37z M319.32,385.15h-15.04v-2.44h15.04V385.15z
					 M309.31,367.19c-0.68,0.16-1.2,0.39-1.56,0.7s-0.54,0.69-0.54,1.14c0,0.42,0.18,0.78,0.54,1.08s0.88,0.52,1.56,0.68
					s1.47,0.23,2.4,0.23c0.93,0,1.73-0.08,2.4-0.23s1.19-0.38,1.55-0.68s0.54-0.66,0.54-1.08c0-0.45-0.18-0.83-0.54-1.14
					s-0.88-0.54-1.55-0.7s-1.47-0.23-2.4-0.23C310.78,366.95,309.99,367.03,309.31,367.19z M313.41,380.66h-3.04v-4.52h3.04V380.66z
					"/>
				<path class="st38" d="M347.78,383.02h-19.5v-2.45h19.5V383.02z M345.61,376.21h-15.27v-10.44h15.27V376.21z M333.29,373.87h9.38
					v-5.72h-9.38V373.87z M339.46,381.16h-2.94v-5.38h2.94V381.16z"/>
				<path class="st38" d="M368.51,377.11h-19.49v-2.39h19.49V377.11z M354.3,383.35h-2.94v-4.58h2.94V383.35z M366.48,385.12h-15.12
					v-2.4h15.12V385.12z M366.16,367.34h-11.81v4.12h-2.98v-6.5h14.79V367.34z M366.37,372.98h-15v-2.39h15V372.98z"/>
				<path class="st38" d="M381.93,374.1c-0.44,1.59-1.1,3-1.98,4.23s-1.98,2.16-3.28,2.8l-1.84-2.43c1.18-0.54,2.17-1.31,2.96-2.33
					s1.39-2.15,1.78-3.42s0.59-2.59,0.59-3.96v-3.19h2.43V369C382.58,370.81,382.36,372.51,381.93,374.1z M383.69,372.81
					c0.38,1.21,0.94,2.3,1.71,3.27s1.69,1.72,2.78,2.26l-1.8,2.38c-1.25-0.63-2.3-1.54-3.14-2.72s-1.47-2.54-1.88-4.07
					s-0.61-3.18-0.61-4.93v-3.19h2.38V369C383.13,370.33,383.32,371.6,383.69,372.81z M392.12,385.51h-3v-21.35h3V385.51z
					 M395.28,374.94h-3.82v-2.54h3.82V374.94z"/>
				<path class="st38" d="M406.59,371.73h-6.8v3.28h-2.99v-5.52h6.87v-1.86h-6.9v-2.39h9.82V371.73z M404.17,373.53
					c1.42-0.07,2.84-0.23,4.24-0.47l0.32,2.33c-1.44,0.27-2.9,0.46-4.38,0.56s-3.4,0.15-5.75,0.15h-1.79v-2.45h1.79
					C400.89,373.64,402.75,373.61,404.17,373.53z M412.96,385.28h-13.98v-7.51h13.98V385.28z M401.93,382.88h8.1v-2.79h-8.1V382.88z
					 M412.96,376.87h-2.99v-12.66h2.99V376.87z M415.86,371.73h-3.8v-2.47h3.8V371.73z"/>
				<path class="st38" d="M436.28,374.86h-19.49v-2.34h19.49V374.86z M433.86,381.68h-11.88v1.92h-2.94v-4.04h11.87v-1.2h-11.88
					v-2.25h14.84V381.68z M434.43,385.34h-15.39v-2.32h15.39V385.34z M433.79,366.99h-11.6v4h-2.99v-6.36h14.59V366.99z
					 M433.94,371.33H419.2v-2.36h14.74V371.33z"/>
				<path class="st38" d="M456.98,375.17h-19.45v-2.37h19.45V375.17z M451.44,364.91c1.16,0.28,2.04,0.69,2.64,1.23
					s0.91,1.2,0.91,1.97c0,0.78-0.3,1.45-0.91,2s-1.49,0.97-2.64,1.25s-2.55,0.42-4.2,0.42s-3.04-0.14-4.2-0.42s-2.05-0.7-2.66-1.25
					s-0.92-1.22-0.92-2c0-0.77,0.31-1.43,0.92-1.97s1.5-0.95,2.66-1.23s2.56-0.42,4.2-0.42S450.28,364.63,451.44,364.91z
					 M454.6,381.83h-11.88v1.92h-2.94v-4.01h11.87v-1.17h-11.88v-2.19h14.84V381.83z M455.17,385.36h-15.39v-2.24h15.39V385.36z
					 M444.66,366.83c-0.69,0.11-1.2,0.27-1.54,0.49s-0.51,0.48-0.51,0.8c0,0.35,0.17,0.63,0.5,0.85s0.83,0.37,1.51,0.47
					s1.55,0.15,2.64,0.15c1.1,0,1.99-0.05,2.66-0.15s1.17-0.26,1.51-0.47s0.5-0.5,0.5-0.85c0-0.31-0.17-0.58-0.51-0.79
					s-0.85-0.38-1.54-0.49s-1.56-0.16-2.61-0.16C446.21,366.67,445.34,366.72,444.66,366.83z"/>
				<path class="st38" d="M471.06,375.27c2.29-0.1,4.45-0.3,6.47-0.61l0.19,2.19c-1.89,0.38-3.83,0.63-5.83,0.76
					s-4.22,0.21-6.69,0.24c-0.27,0.02-0.59,0.02-0.98,0.02l-0.38-2.45C466.37,375.42,468.77,375.37,471.06,375.27z M473.66,365.63
					c0.86,0.38,1.53,0.92,2.01,1.61s0.72,1.48,0.72,2.37c0,0.88-0.24,1.66-0.72,2.34s-1.15,1.22-2.01,1.61s-1.82,0.58-2.89,0.58
					c-1.08,0-2.04-0.19-2.89-0.58s-1.51-0.92-2-1.61s-0.73-1.47-0.73-2.34c0-0.89,0.24-1.68,0.73-2.37s1.15-1.22,2-1.61
					s1.81-0.57,2.89-0.56C471.84,365.06,472.8,365.25,473.66,365.63z M469.35,367.71c-0.41,0.17-0.72,0.41-0.96,0.73
					s-0.35,0.71-0.35,1.16c0,0.44,0.12,0.81,0.35,1.12s0.55,0.55,0.96,0.72s0.88,0.25,1.41,0.25c0.55,0,1.04-0.08,1.46-0.25
					s0.74-0.41,0.98-0.72s0.35-0.69,0.35-1.12c0-0.45-0.12-0.84-0.35-1.16s-0.56-0.56-0.97-0.73s-0.9-0.25-1.46-0.24
					C470.23,367.46,469.75,367.54,469.35,367.71z M472.39,384.89h-3v-8.61h3V384.89z M481.78,385.5h-2.98v-21.29h2.98V385.5z"/>
				<path class="st38" d="M497.2,368.79h-12.67v-2.36h12.67V368.79z M493.6,370.06c0.8,0.35,1.42,0.83,1.86,1.46
					s0.67,1.34,0.67,2.16c0,0.8-0.22,1.51-0.67,2.13s-1.07,1.09-1.86,1.44s-1.7,0.52-2.72,0.52c-1.03,0-1.95-0.17-2.75-0.52
					s-1.43-0.82-1.88-1.44s-0.67-1.32-0.67-2.13c0-0.81,0.22-1.53,0.67-2.16s1.07-1.11,1.88-1.46s1.72-0.52,2.75-0.52
					C491.9,369.54,492.81,369.72,493.6,370.06z M490.62,383.77h-2.99v-4.86h2.99V383.77z M502.23,385.15h-14.6v-2.41h14.6V385.15z
					 M489.63,372.05c-0.36,0.14-0.64,0.35-0.84,0.63s-0.29,0.61-0.29,1s0.1,0.71,0.29,0.98s0.47,0.47,0.84,0.62s0.78,0.21,1.26,0.21
					s0.9-0.07,1.26-0.21s0.65-0.35,0.85-0.62s0.3-0.6,0.3-0.98s-0.1-0.71-0.3-1s-0.49-0.49-0.85-0.63s-0.78-0.21-1.26-0.21
					S489.99,371.91,489.63,372.05z M492.37,367.6h-2.99v-3.42h2.99V367.6z M501.47,380.14h-2.99v-15.93h2.99V380.14z M504.35,373.19
					h-3.75v-2.45h3.75V373.19z"/>
				<path class="st38" d="M517.65,374.15c-0.43,1.6-1.09,3.02-1.97,4.25s-1.98,2.18-3.28,2.84l-1.88-2.45
					c1.17-0.53,2.16-1.3,2.96-2.32s1.4-2.16,1.79-3.45s0.59-2.62,0.59-4.02v-3.19h2.43V369
					C518.3,370.83,518.08,372.55,517.65,374.15z M519.47,372.96c0.38,1.24,0.95,2.34,1.72,3.3s1.73,1.7,2.88,2.2l-1.83,2.39
					c-1.28-0.63-2.35-1.54-3.21-2.71s-1.49-2.54-1.91-4.08s-0.63-3.23-0.63-5.05v-3.19h2.4V369
					C518.91,370.4,519.09,371.72,519.47,372.96z M527.37,373.3h-5.68v-2.4h5.68V373.3z M528.83,385.57h-2.96v-21.41h2.96V385.57z"/>
				<path class="st38" d="M535.63,371.08h4.61v-5.19h2.94v14.7h-10.54v-14.7h2.99V371.08z M540.23,378.14v-4.75h-4.61v4.75H540.23z
					 M549.43,385.57h-3.04v-21.41h3.04V385.57z"/>
				<path class="st38" d="M571.83,382.9h-19.5v-2.45h19.5V382.9z M561.89,371.33c-0.73,1.35-1.76,2.51-3.1,3.46
					s-2.91,1.62-4.71,1.97l-1.28-2.48c1.53-0.29,2.87-0.81,4.01-1.56s2.02-1.63,2.62-2.64s0.91-2.04,0.91-3.11v-1.52h2.62v1.52
					C562.98,368.53,562.62,369.98,561.89,371.33z M564.44,370.12c0.61,1.02,1.48,1.9,2.64,2.64s2.5,1.26,4.05,1.53l-1.31,2.48
					c-1.78-0.36-3.34-1.01-4.68-1.96s-2.37-2.09-3.09-3.45s-1.08-2.81-1.08-4.38v-1.52h2.57v1.52
					C563.53,368.06,563.83,369.1,564.44,370.12z"/>
			</g>
		</g>
		<g class="st6">
			<g>
				<g>
					<path class="st38" d="M229.3,277.16h-36.27v-5.59h36.27V277.16z M225.57,264.44h-28.98v-19.94h28.98V264.44z M203.39,259.09
						h15.34v-9.13h-15.34V259.09z M214.5,272.8h-6.79v-9.22h6.79V272.8z"/>
					<path class="st38" d="M231.75,268.42c4.67-0.03,8.99-0.13,12.97-0.3s7.75-0.49,11.33-0.95l0.49,4.92
						c-2.64,0.52-5.39,0.91-8.25,1.18c-2.86,0.27-5.56,0.44-8.08,0.52c-2.52,0.07-5.29,0.11-8.31,0.11l-0.75-5.48H231.75z
						 M249.5,245.57c1.7,0.87,3.05,2.06,4.03,3.59c0.98,1.53,1.47,3.24,1.47,5.15c0,1.91-0.49,3.62-1.47,5.15
						c-0.98,1.53-2.32,2.72-4.01,3.59c-1.69,0.87-3.6,1.3-5.71,1.3c-2.06,0-3.95-0.43-5.67-1.3c-1.72-0.87-3.08-2.06-4.07-3.59
						c-1-1.53-1.49-3.24-1.49-5.15c0-1.9,0.5-3.62,1.49-5.15c1-1.53,2.35-2.72,4.07-3.59c1.72-0.87,3.61-1.3,5.67-1.3
						C245.9,244.27,247.79,244.7,249.5,245.57z M241.57,250.66c-0.66,0.31-1.18,0.77-1.56,1.4c-0.38,0.62-0.57,1.37-0.57,2.25
						c0,0.9,0.19,1.66,0.57,2.27c0.38,0.61,0.9,1.07,1.56,1.38c0.66,0.31,1.4,0.46,2.23,0.46c0.86,0,1.63-0.15,2.31-0.46
						c0.68-0.31,1.21-0.77,1.6-1.38c0.39-0.61,0.58-1.36,0.58-2.27c0-0.87-0.19-1.62-0.58-2.25s-0.92-1.09-1.6-1.4
						c-0.68-0.31-1.45-0.46-2.31-0.46C242.98,250.2,242.23,250.35,241.57,250.66z M264.9,281.63h-6.85v-39.88h6.85V281.63z"/>
					<path class="st38" d="M314.9,270.59h-36.27V265h36.27V270.59z M310.79,248.59h-21.1v10.08h-6.75v-15.43h27.84V248.59z
						 M311.22,262.87h-28.27v-5.39h28.27V262.87z M310.02,255.68h-22.15v-5.22h22.15V255.68z M300.1,281.5h-6.83v-14.39h6.83V281.5z
						"/>
					<path class="st38" d="M329.46,261.08c-0.76,2.97-1.97,5.61-3.63,7.91c-1.66,2.3-3.76,4.02-6.29,5.17l-3.97-5.41
						c2.29-1.06,4.14-2.5,5.55-4.31c1.41-1.81,2.43-3.8,3.07-5.97c0.64-2.17,0.96-4.42,0.96-6.76v-3.35h5.46v3.35
						C330.6,254.98,330.22,258.11,329.46,261.08z M339.52,251.06h-22.26v-5.59h22.26V251.06z M333.03,257.95
						c0.62,2.05,1.62,3.94,3.02,5.66c1.4,1.73,3.2,3.1,5.4,4.14l-3.78,5.37c-2.52-1.1-4.6-2.76-6.23-4.98
						c-1.63-2.22-2.84-4.74-3.61-7.56c-0.77-2.82-1.16-5.78-1.16-8.87v-3.35h5.44v3.35C332.11,253.82,332.41,255.91,333.03,257.95z
						 M348.37,281.5h-6.92v-39.75h6.92V281.5z M353.76,262.1h-6.9v-5.71h6.9V262.1z"/>
					<path class="st38" d="M391,277.42h-36.27v-5.59H391V277.42z M387.06,258.02h-21.53v5.99h-6.88v-11.3h21.59v-3.09h-21.63v-5.48
						h28.45V258.02z M388.01,266.76h-29.35v-5.56h29.35V266.76z M376.19,274.13h-6.79v-9.17h6.79V274.13z"/>
					<path class="st38" d="M421.1,254.53c-1.39,2.87-3.46,5.31-6.21,7.32c-2.75,2.01-6.17,3.55-10.25,4.64l-2.84-5.44
						c3.17-0.8,5.79-1.85,7.86-3.15c2.08-1.3,3.61-2.77,4.61-4.42c1-1.65,1.49-3.4,1.49-5.26v-3.54h7.41
						C423.18,248.37,422.48,251.66,421.1,254.53z M419.68,250.28h-16.07v-5.61h16.07V250.28z M414.65,278.02h-7v-11.04h7V278.02z
						 M435.12,280.96h-27.48v-5.5h27.48V280.96z M434.09,269.86h-7v-28.1h7V269.86z M439.06,257.93h-6.88v-5.63h6.88V257.93z"/>
					<path class="st38" d="M459.7,250.26h-11.19v11.45h-6.88v-16.89h18.07V250.26z M455.79,258.56c2.41-0.16,4.7-0.47,6.88-0.92
						l0.71,5.46c-2.26,0.46-4.69,0.77-7.28,0.93c-2.59,0.17-6.25,0.25-10.96,0.25h-3.5v-5.48h3.5
						C449.83,258.79,453.39,258.71,455.79,258.56z M452.68,278.36h-6.92v-11.04h6.92V278.36z M473.28,280.96h-27.52v-5.5h27.52
						V280.96z M472.12,270.52h-6.92v-28.68h6.92V270.52z M477.13,257.65h-7V252h7V257.65z"/>
					<path class="st38" d="M501.32,252.88h-23.14v-5.46h23.14V252.88z M495.1,255.65c1.58,0.82,2.83,1.98,3.74,3.46
						c0.91,1.48,1.36,3.15,1.36,5s-0.46,3.51-1.36,5c-0.91,1.48-2.16,2.64-3.74,3.46c-1.58,0.82-3.36,1.24-5.34,1.24
						c-1.96,0-3.74-0.41-5.33-1.24c-1.59-0.82-2.83-1.98-3.73-3.46c-0.9-1.48-1.34-3.15-1.34-5s0.45-3.51,1.34-5
						c0.9-1.48,2.14-2.64,3.73-3.46c1.59-0.82,3.37-1.24,5.33-1.24C491.74,254.41,493.52,254.82,495.1,255.65z M487.8,260.45
						c-0.59,0.33-1.05,0.8-1.38,1.42c-0.33,0.62-0.49,1.36-0.49,2.23c0,0.87,0.16,1.63,0.49,2.26c0.33,0.63,0.79,1.1,1.38,1.42
						c0.59,0.32,1.25,0.47,1.98,0.47c0.76,0,1.42-0.16,1.99-0.47c0.57-0.31,1.01-0.79,1.32-1.42c0.31-0.63,0.47-1.38,0.47-2.26
						c0-0.87-0.16-1.62-0.47-2.23c-0.32-0.62-0.76-1.09-1.32-1.42c-0.57-0.33-1.23-0.49-1.99-0.49
						C489.05,259.95,488.39,260.12,487.8,260.45z M493.22,249.36h-6.88v-6.9h6.88V249.36z M510.06,281.5h-6.81v-39.75h6.81V281.5z
						 M515.45,262.47h-6.9v-5.63h6.9V262.47z"/>
					<path class="st38" d="M532.61,257.42c-0.85,3.22-2.34,6.17-4.46,8.85c-2.12,2.68-5.03,5.07-8.74,7.18l-3.85-4.79
						c2.98-1.75,5.31-3.61,6.99-5.6c1.68-1.98,2.88-4.2,3.59-6.65s1.06-5.33,1.06-8.66v-1.46h6.68
						C533.89,250.49,533.46,254.19,532.61,257.42z M529.27,251.77h-11.21v-5.48h11.21V251.77z M537.18,261.89h-7.69v-5.41h7.69
						V261.89z M542.55,279.93h-6.42v-37.34h6.42V279.93z M551.05,281.5h-6.47v-39.75h6.47V281.5z"/>
					<path class="st38" d="M229.26,322.7h-36.22v-5.44h36.22V322.7z M211.39,307.96c-1.13,1.96-2.89,3.62-5.27,4.97
						s-5.41,2.25-9.08,2.67l-2.51-5.33c3.08-0.34,5.55-0.99,7.42-1.94c1.87-0.95,3.2-2.03,4-3.23s1.19-2.43,1.19-3.7v-0.9h5.95v0.9
						C213.08,303.81,212.52,306,211.39,307.96z M226.1,302.93h-29.93v-5.28h29.93V302.93z M214.42,335.54h-6.83v-14.29h6.83V335.54z
						 M216.33,305.1c0.77,1.2,2.11,2.28,4,3.23c1.89,0.95,4.38,1.6,7.48,1.94l-2.47,5.33c-3.65-0.43-6.69-1.32-9.1-2.66
						c-2.41-1.35-4.2-3-5.35-4.97c-1.15-1.97-1.73-4.16-1.73-6.56v-0.9h6.02v0.9C215.17,302.67,215.55,303.9,216.33,305.1z"/>
					<path class="st38" d="M244.3,308.66c-0.8,2.26-2.07,4.23-3.79,5.91c-1.73,1.68-3.91,2.91-6.56,3.68l-3.39-5.37
						c2.25-0.67,4.06-1.62,5.45-2.84c1.38-1.22,2.36-2.57,2.93-4.05c0.57-1.48,0.86-3.03,0.86-4.65v-3.82h5.71v3.82
						C245.5,303.96,245.1,306.4,244.3,308.66z M264.54,335.5h-6.92v-9.15h-20.71v-5.46h27.63V335.5z M247.78,305.87
						c0.53,1.4,1.46,2.67,2.79,3.79c1.33,1.12,3.09,1.99,5.26,2.59l-3.37,5.44c-2.64-0.77-4.78-1.96-6.45-3.56
						c-1.66-1.6-2.88-3.48-3.64-5.65c-0.77-2.17-1.15-4.55-1.15-7.14v-3.82h5.76v3.82C246.99,302.96,247.25,304.47,247.78,305.87z
						 M264.54,319.37h-6.92v-23.61h6.92V319.37z"/>
					<path class="st38" d="M305.32,316.51h-36.22v-5.41h36.22V316.51z M295.13,297.06c2.19,0.51,3.86,1.26,5,2.27
						c1.14,1,1.71,2.22,1.71,3.65c0,1.43-0.57,2.66-1.71,3.67s-2.8,1.78-5,2.3s-4.84,0.77-7.95,0.77c-3.14,0-5.8-0.26-8-0.77
						c-2.2-0.52-3.87-1.28-5.03-2.3c-1.15-1.02-1.73-2.24-1.73-3.67c0-1.43,0.58-2.65,1.73-3.65c1.15-1,2.83-1.76,5.03-2.27
						c2.2-0.51,4.87-0.76,8-0.76C290.29,296.29,292.94,296.55,295.13,297.06z M301.04,328.97h-21.18v2.79h-6.77v-7.5h21.12V323
						h-21.08v-4.96h27.91V328.97z M301.96,335.35h-28.88v-5.09h28.88V335.35z M282.84,301.43c-1.1,0.12-1.91,0.3-2.41,0.56
						c-0.5,0.26-0.75,0.59-0.75,0.99c0,0.49,0.24,0.85,0.73,1.08c0.49,0.24,1.26,0.41,2.32,0.5c1.06,0.1,2.54,0.15,4.45,0.15
						c1.95,0,3.44-0.05,4.49-0.15c1.05-0.1,1.82-0.27,2.31-0.5s0.74-0.6,0.74-1.08c0-0.4-0.25-0.73-0.76-0.99
						c-0.51-0.26-1.31-0.44-2.41-0.56c-1.1-0.11-2.55-0.17-4.37-0.17C285.39,301.25,283.95,301.31,282.84,301.43z"/>
					<path class="st38" d="M330.5,314.18c-0.75,3.16-1.97,5.94-3.66,8.34c-1.7,2.4-3.96,4.21-6.78,5.45l-4.1-5.71
						c2.43-1,4.39-2.44,5.88-4.31s2.54-4.01,3.17-6.42c0.63-2.41,0.95-5.02,0.95-7.83v-5.09h5.67v5.09
						C331.61,307.52,331.24,311.02,330.5,314.18z M333.9,311.07c0.61,2.29,1.63,4.34,3.05,6.13c1.42,1.8,3.3,3.17,5.62,4.11l-4,5.54
						c-2.69-1.17-4.87-2.91-6.53-5.21c-1.66-2.3-2.86-4.96-3.59-7.98c-0.73-3.02-1.1-6.35-1.1-9.99v-5.09h5.63v5.09
						C332.99,306.32,333.29,308.78,333.9,311.07z M350.22,335.63h-7v-39.87h7V335.63z"/>
					<path class="st38" d="M367.59,309.38c-0.78,2.31-2.01,4.31-3.7,6.02c-1.68,1.71-3.83,2.97-6.43,3.8l-3.63-5.31
						c2.21-0.69,4-1.67,5.38-2.94c1.38-1.27,2.37-2.68,2.98-4.22c0.6-1.54,0.9-3.13,0.9-4.76v-2.13h5.67v2.13
						C368.76,304.6,368.37,307.07,367.59,309.38z M377.4,303.27h-21.76v-5.46h21.76V303.27z M386.48,335.5h-6.92v-8.85h-20.28v-5.44
						h27.2V335.5z M370.97,306.53c0.56,1.44,1.5,2.75,2.83,3.94c1.32,1.19,3.06,2.13,5.21,2.81l-3.46,5.29
						c-2.55-0.8-4.64-2.03-6.28-3.7c-1.64-1.66-2.84-3.58-3.61-5.77c-0.77-2.18-1.15-4.54-1.15-7.08v-2.19h5.63v2.19
						C370.13,303.59,370.41,305.09,370.97,306.53z M386.48,319.75h-6.92v-24h6.92V319.75z M391.45,310.56h-6.92v-5.67h6.92V310.56z"
						/>
					<path class="st38" d="M415.68,306.88h-23.14v-5.46h23.14V306.88z M409.46,309.64c1.58,0.82,2.83,1.98,3.74,3.46
						c0.91,1.48,1.36,3.15,1.36,5s-0.46,3.51-1.36,5c-0.91,1.48-2.16,2.64-3.74,3.46c-1.58,0.82-3.36,1.24-5.34,1.24
						c-1.96,0-3.74-0.41-5.33-1.24c-1.59-0.82-2.83-1.98-3.73-3.46c-0.9-1.48-1.34-3.15-1.34-5s0.45-3.51,1.34-5
						c0.9-1.48,2.14-2.63,3.73-3.46c1.59-0.82,3.37-1.24,5.33-1.24C406.1,308.41,407.88,308.82,409.46,309.64z M402.17,314.45
						c-0.59,0.33-1.05,0.8-1.38,1.42c-0.33,0.62-0.49,1.36-0.49,2.23c0,0.87,0.16,1.63,0.49,2.26c0.33,0.63,0.79,1.1,1.38,1.42
						c0.59,0.32,1.25,0.47,1.98,0.47c0.76,0,1.42-0.16,1.99-0.47c0.57-0.31,1.01-0.79,1.32-1.42c0.31-0.63,0.47-1.38,0.47-2.26
						c0-0.87-0.16-1.62-0.47-2.23c-0.32-0.62-0.76-1.09-1.32-1.42c-0.57-0.33-1.23-0.49-1.99-0.49
						C403.41,313.95,402.75,314.12,402.17,314.45z M407.58,303.36h-6.88v-6.9h6.88V303.36z M424.43,335.5h-6.81v-39.75h6.81V335.5z
						 M429.82,316.47h-6.9v-5.63h6.9V316.47z"/>
					<path class="st38" d="M441.81,314.71c-0.54,2.92-1.46,5.52-2.74,7.82c-1.28,2.3-2.98,4.1-5.1,5.4l-4.15-5.09
						c1.93-1.25,3.46-2.8,4.58-4.65c1.12-1.85,1.9-3.85,2.34-5.98c0.44-2.13,0.67-4.44,0.67-6.92V299h5.22v6.29
						C442.62,308.66,442.35,311.8,441.81,314.71z M444.57,311.7c0.34,1.99,0.98,3.86,1.94,5.61c0.96,1.75,2.31,3.22,4.06,4.4
						l-3.7,5.29c-2.09-1.27-3.72-3.03-4.89-5.27c-1.17-2.24-1.97-4.73-2.41-7.48c-0.44-2.74-0.66-5.83-0.66-9.27V299h5.13v5.97
						C444.06,307.46,444.23,309.71,444.57,311.7z M452.61,314.21h-6.1v-5.56h6.1V314.21z M457.04,333.8h-6.42v-37.6h6.42V333.8z
						 M465.42,335.5h-6.57v-39.75h6.57V335.5z"/>
					<path class="st38" d="M505.08,331.16h-36.27v-5.59h36.27V331.16z M494.68,298.72c2.31,0.92,4.12,2.21,5.45,3.87
						c1.32,1.66,1.99,3.56,1.99,5.69c0,2.16-0.66,4.07-1.97,5.73s-3.12,2.93-5.42,3.82c-2.31,0.9-4.91,1.36-7.82,1.39
						c-2.91-0.03-5.51-0.49-7.81-1.39c-2.3-0.89-4.1-2.17-5.41-3.82s-1.97-3.56-1.97-5.73c0-2.13,0.66-4.03,1.97-5.69
						c1.31-1.66,3.12-2.95,5.44-3.87c2.31-0.92,4.91-1.38,7.79-1.38S492.37,297.8,494.68,298.72z M483.14,326.5h-6.83v-10.7h6.83
						V326.5z M482.42,303.36c-1.24,0.42-2.2,1.04-2.87,1.87c-0.67,0.83-1.01,1.85-1.01,3.05c0,1.19,0.34,2.21,1.01,3.05
						c0.67,0.85,1.64,1.49,2.89,1.93c1.25,0.44,2.74,0.67,4.46,0.67c1.68,0,3.14-0.22,4.39-0.67c1.25-0.44,2.22-1.09,2.91-1.93
						c0.69-0.84,1.03-1.86,1.03-3.05c0-1.2-0.34-2.22-1.01-3.04c-0.67-0.82-1.64-1.45-2.89-1.87c-1.25-0.42-2.73-0.63-4.44-0.63
						C485.15,302.74,483.66,302.95,482.42,303.36z M497.62,326.5h-6.96v-10.7h6.96V326.5z"/>
				</g>
			</g>
			<circle class="st39" cx="420.81" cy="226.96" r="4.13"/>
			<circle class="st39" cx="458.31" cy="226.96" r="4.13"/>
		</g>
	</g>
</g>
<g id="레이어_2">
</g>
</svg>
